<?xml version="1.0" encoding="utf-8"?>
<!-- Generator: Adobe Illustrator 25.4.1, SVG Export Plug-In . SVG Version: 6.00 Build 0)  -->
<svg version="1.1" xmlns="http://www.w3.org/2000/svg" xmlns:xlink="http://www.w3.org/1999/xlink" x="0px" y="0px"
	 viewBox="0 0 381.56 122.54" style="enable-background:new 0 0 381.56 122.54;" xml:space="preserve">
<style type="text/css">
	.Arched_x0020_Green{fill:url(#SVGID_1_);stroke:#FFFFFF;stroke-width:0.25;stroke-miterlimit:1;}
	
		.Arched_x0020_Green_x0020_1{fill:url(#SVGID_00000021799820758627668120000017690544756482605698_);stroke:#FFFFFF;stroke-width:0.25;stroke-miterlimit:1;}
	
		.Arched_x0020_Green_x0020_2{fill:url(#SVGID_00000150083891216836311620000011326094279524598912_);stroke:#FFFFFF;stroke-width:0.25;stroke-miterlimit:1;}
	
		.Arched_x0020_Green_x0020_66{fill:url(#SVGID_00000183947555489595662340000004324988950144928948_);stroke:#FFFFFF;stroke-width:0.25;stroke-miterlimit:1;}
	
		.Arched_x0020_Green_x0020_67{fill:url(#SVGID_00000000198206932346205260000000746092308513167004_);stroke:#FFFFFF;stroke-width:0.25;stroke-miterlimit:1;}
	
		.Arched_x0020_Green_x0020_3{fill:url(#SVGID_00000061453150563510104400000004442683225909081522_);stroke:#FFFFFF;stroke-width:0.25;stroke-miterlimit:1;}
	
		.Arched_x0020_Green_x0020_4{fill:url(#SVGID_00000060748174614517425960000005846188068734146699_);stroke:#FFFFFF;stroke-width:0.25;stroke-miterlimit:1;}
</style>
<linearGradient id="SVGID_1_" gradientUnits="userSpaceOnUse" x1="0" y1="180.6938" x2="0.7071" y2="179.9867">
	<stop  offset="0" style="stop-color:#20AC4B"/>
	<stop  offset="0.9831" style="stop-color:#19361A"/>
</linearGradient>
<linearGradient id="SVGID_00000036951225200721817050000010137326984353661102_" gradientUnits="userSpaceOnUse" x1="0" y1="180.6938" x2="0.7071" y2="179.9867">
	<stop  offset="0" style="stop-color:#22AC4B"/>
	<stop  offset="0.9831" style="stop-color:#1D361D"/>
</linearGradient>
<linearGradient id="SVGID_00000061468155508387646360000003622920252067872162_" gradientUnits="userSpaceOnUse" x1="0" y1="180.6938" x2="0.7071" y2="179.9867">
	<stop  offset="0" style="stop-color:#23AB4B"/>
	<stop  offset="0.9831" style="stop-color:#1F361F"/>
</linearGradient>
<linearGradient id="SVGID_00000101803916033165211810000001040424051454275761_" gradientUnits="userSpaceOnUse" x1="0" y1="180.6938" x2="0.7071" y2="179.9867">
	<stop  offset="0" style="stop-color:#1CA64A"/>
	<stop  offset="0.9831" style="stop-color:#1F3622"/>
</linearGradient>
<linearGradient id="SVGID_00000000209530922788217000000011963231472880533914_" gradientUnits="userSpaceOnUse" x1="0" y1="180.6938" x2="0.7071" y2="179.9867">
	<stop  offset="0" style="stop-color:#20AB4B"/>
	<stop  offset="0.9831" style="stop-color:#1F3620"/>
</linearGradient>
<linearGradient id="SVGID_00000124880423394313968550000007681282783340178581_" gradientUnits="userSpaceOnUse" x1="0" y1="180.6938" x2="0.7071" y2="179.9867">
	<stop  offset="0" style="stop-color:#1CA84A"/>
	<stop  offset="0.9831" style="stop-color:#203621"/>
</linearGradient>
<linearGradient id="SVGID_00000062177369875509312040000011911387435417357724_" gradientUnits="userSpaceOnUse" x1="0" y1="180.6938" x2="0.7071" y2="179.9867">
	<stop  offset="0" style="stop-color:#1EA74A"/>
	<stop  offset="0.9831" style="stop-color:#203621"/>
</linearGradient>
<g id="Layer_2">
</g>
<g id="Pentagram">
</g>
<g id="Layer_3">
	<g>
		<polygon points="19.92,54.26 32.46,44.4 56.23,4.5 0.5,49.27 3.89,57.32 22.66,60.74 		"/>
		<polygon points="41.89,104.82 25.02,65.85 5.73,62.47 31.4,122.04 39.97,121.02 48.89,104.16 		"/>
		<polygon points="96.4,99.39 54.24,103.59 45.04,121.14 109.51,114.57 111.32,106.02 97.86,92.5 		"/>
		<polygon points="120.05,32.9 102.29,42.44 108.35,46.02 99.42,87.39 112.95,101.14 127.36,36.41 		"/>
		<polygon points="44.52,83.78 59.54,58.49 57.32,49.52 42.74,73.47 		"/>
		<polygon points="88.07,74.22 95.57,61.75 93.42,51.96 85.82,64.25 		"/>
		<polygon points="41.59,70.71 56.53,46.08 84.3,62.58 91.84,50.35 71.64,38.1 72.27,36.95 70.19,27.13 65.84,34.59 63.87,33.39 
			69.32,24.33 96.77,39.88 115.12,29.68 64.61,0.5 27.68,62.45 		"/>
		<path d="M285.59,37.91l-6.16,28.82c-1.3,6.3-2.26,9.59-11.43,9.59c-9.17,0-8.63-3.22-7.26-9.59l6.16-28.82h-10.2h-0.96h-41.08
			h-0.89h-10.2l-6.16,28.82c-1.3,6.3-2.26,9.59-11.43,9.59s-8.63-3.22-7.26-9.59l6.16-28.82h-10.13h-1.03h-33.75l-10.13,47.72h11.02
			l3.7-17.53h17.6l1.99-9.45h-17.59l2.4-11.09h22.73l-5.27,24.72c-2.46,11.5,4.93,14.31,17.46,14.31c12.46,0,21.02-2.81,23.48-14.31
			l5.27-24.72h15.07l-8.08,38.07h11.09l8.08-38.07h14.92l-5.27,24.72c-2.46,11.5,4.93,14.31,17.46,14.31
			c12.46,0,21.02-2.81,23.48-14.31l7.33-34.37H285.59z"/>
		<path d="M379,47.56l2.05-9.65h-35.6l-10.11,47.6c-5.72-14.9-8.38-19.19-11.32-20.36c9.17-0.48,13.28-6.43,14.72-13.28
			c1.71-7.87-0.27-13.97-10.06-13.97h-26.63l-10.13,47.72h11.02l3.56-17.05h4.93c2.94,0,5.55,4.04,10.2,17.05h13.69h0.07h34.82
			l1.99-9.65h-23.87l2.26-10.41h17.6l1.98-9.45h-17.59l1.85-8.56H379z M320.67,59.54h-12.25l2.67-12.26h12.39
			c2.46,0,3.56,1.98,2.67,6.3C325.26,57.83,323.07,59.54,320.67,59.54z"/>
		<path d="M361.7,104.46c-0.48,1.24-0.87,4.44-1.17,6.19c-0.11,0.62-0.13,0.87-0.13,0.87s-0.08,0.74,0.23,1.31
			c0.1,0.19,0.54,0.58,0.68,0.69c0.6,0.46,2.43,0.37,4.39,0.37c1.96,0,3.57,0,3.57,0l1.37-6.71l-4.73,0.01l-0.37,2.11l2.53,0
			c0,0-0.28,1.16-0.45,1.75c-0.07,0.26-0.41,0.39-0.41,0.39c-0.31,0.1-1.38,0.08-2.5,0.07c-0.46,0-0.96,0.04-1.31-0.08
			c-0.21-0.07-0.38-0.21-0.45-0.37c-0.1-0.25-0.01-0.58,0-0.7c0.21-1.3,0.47-2.91,0.62-3.72c0.06-0.3,0.1-0.46,0.1-0.46
			s0.31-0.91,1.55-0.89c1.24,0.01,5.77,0.01,5.77,0.01l0.56-2.66h-7.25C364.3,102.65,362.35,102.78,361.7,104.46z"/>
		<polygon points="219.1,105.19 222.14,105.19 220.43,114 222.88,114 224.68,105.22 227.67,105.25 228.2,102.56 219.66,102.56 		"/>
		<polygon points="175.1,114.09 177.46,114.09 179.89,102.56 177.46,102.56 		"/>
		<polygon points="266.35,114.03 268.75,114.03 271.14,102.53 268.75,102.53 		"/>
		<path d="M319.63,102.52c-2.75-0.01-7.03,0.01-7.03,0.01L310.18,114h2.42l1.91-8.76l4.1,0.01c0,0,0.79-0.07,0.62,0.85
			c-0.18,0.96-1.58,7.9-1.58,7.9h2.48l1.67-8.58c0,0,0.17-0.7,0.19-0.89C322.07,103.95,321.83,102.53,319.63,102.52z"/>
		<polygon points="133.52,102.53 128.63,106.52 129.5,102.53 126.78,102.53 124.3,114.06 127.08,114.06 127.98,109.86 
			130.86,114.06 134.32,114.06 130.06,108.21 137.04,102.53 		"/>
	</g>
</g>
</svg>
