<svg width="1920px" height="1080px" viewBox="0 0 1920 1080" version="1.1" xmlns="http://www.w3.org/2000/svg" xmlns:xlink="http://www.w3.org/1999/xlink">
    <title>Combined Shape</title>
    <g id="Page-1" stroke="none" stroke-width="1" fill="none" fill-rule="evenodd">
        <path d="M1821.137,0 L1737.87772,82.7290753 L1799.25215,95.7091903 L1836.66473,470.532239 L1920,514.133 L1920,559.128 L1842.84624,518.30964 L1848.72105,580.617197 L1501.84063,730.778408 L1471.75452,902.480231 L1920,709.324 L1920,1080 L0,1080 L0,0 L1140.752,0 L922,378.584169 L1472.84326,706.893381 L1546.28902,583.232911 L1327.28548,450.4157 L1473.99918,203.539263 L1365.25321,136.508354 L1256.3294,316.087181 L1246.1039,310.486455 L1158.78702,328.97774 L1225.1194,367.649418 L1214.44931,385.162799 L1133.89015,336.712076 L1272.1567,92.6804521 L1220.629,0 L1268.66,0 L1292.53057,44.5219463 L1318.782,0 L1368.355,0 L1692.54944,70.1106175 L1763.666,0 L1821.137,0 Z M956.015748,451.780098 L1354.22642,947 L1425.82785,916.87627 L1456.24734,750.084998 L1398.61041,774.432792 L1310.90978,663.001649 L956.015748,451.780098 Z M1437.09399,423.767659 L1357.20148,443.33349 L1570.51536,571.833407 L1662.34275,556.145489 L1437.09399,423.767659 Z M1465.27218,102.124833 L1377.71098,121.317971 L1487.63204,189.163483 L1576.80315,169.077641 L1465.27218,102.124833 Z" id="Combined-Shape" fill="#000000"></path>
    </g>
</svg>