<svg version="1.1" id="Vrstva_1" xmlns="http://www.w3.org/2000/svg" xmlns:xlink="http://www.w3.org/1999/xlink" x="0px" y="0px"
	 viewBox="0 0 320 640" style="enable-background:new 0 0 320 640;" xml:space="preserve">
<g>
	<g>
		<path d="M320,375.7V640H0V0h320v181.1l-19.6-4.2L268.1,209l16.4,3.5l10,100.6l25.4,13.3v12.2l-24-12.7l1.5,16.7l-93,40.3l-8.1,46
			L320,375.7z M255.9,205.3l32.8-32.3l-154.5-34.4l-8.4,17.4l22.8,42.4l8.5-14.5L255.9,205.3z M222.7,340.6l24.6-4.2l-60.3-35.9
			l-21.4,5.3L222.7,340.6z M200.7,237.8l23.8-5.4l-29.8-17.9l-23.4,5.1L200.7,237.8z M196.4,376.5l19.7-33.2l-58.8-35.6l39.4-66.3
			l-29.2-18l-29.2,48.2l-2.7-1.5l-23.4,5l17.8,10.4l-2.8,4.7l-21.6-13l37.1-65.5l-24.3-43.8L48.5,288.4L196.4,376.5z M184.1,433.3
			l8.2-44.8l-15.5,6.5l-23.5-29.9l-95.2-56.7l106.8,133L184.1,433.3z"/>
	</g>
</g>
</svg>
