<?xml version="1.0" encoding="UTF-8"?>
<svg width="1440px" height="900px" viewBox="0 0 1440 900" version="1.1" xmlns="http://www.w3.org/2000/svg" xmlns:xlink="http://www.w3.org/1999/xlink">
    <title>Combined Shape</title>
    <defs>
        <path d="M1399.297,-1.70530257e-13 L1312,86.6342788 L1360.59567,96.8992154 L1390.21858,393.316838 L1440,419.33 L1440,454.818 L1394.93655,431 L1399.58989,480.304912 L1124.83079,599.12975 L1101,735 L1440,589.061 L1440,900 L0,900 L0,0 L851.63,-1.70530257e-13 L666,320.679094 L1101.88235,580 L1160,482.324565 L986.702464,377.416514 L1102.79704,182.416743 L1016.74633,129.47118 L930.554907,271.31473 L922.463467,266.890897 L853.369605,281.496569 L905.858425,312.042086 L897.415183,325.875343 L833.668708,287.605672 L943.079049,94.8529277 L890.248,-1.70530257e-13 L928.917,-1.70530257e-13 L959.604338,57.2641374 L984.786049,14.5361489 L1275.78253,77.5 L1354.355,-1.70530257e-13 L1399.297,-1.70530257e-13 Z M693.5,378.5 L1007.94079,770.5 L1064.47973,746.655033 L1088.5,614.628477 L1042.98791,633.9014 L973.736486,545.696124 L693.5,378.5 Z M1073.36077,357 L1010,372.592857 L1179.17396,475 L1252,462.497619 L1073.36077,357 Z M1096.04897,102 L1027,117.215385 L1113.68149,171 L1184,155.076923 L1096.04897,102 Z" id="path-1"></path>
        <filter x="-1.5%" y="-1.2%" width="103.1%" height="104.9%" filterUnits="objectBoundingBox" id="filter-2">
            <feMorphology radius="1.5" operator="erode" in="SourceAlpha" result="shadowSpreadOuter1"></feMorphology>
            <feOffset dx="0" dy="11" in="shadowSpreadOuter1" result="shadowOffsetOuter1"></feOffset>
            <feGaussianBlur stdDeviation="7" in="shadowOffsetOuter1" result="shadowBlurOuter1"></feGaussianBlur>
            <feColorMatrix values="0 0 0 0 0.328008278   0 0 0 0 0.430256389   0 0 0 0 0.593438632  0 0 0 0.0747104458 0" type="matrix" in="shadowBlurOuter1"></feColorMatrix>
        </filter>
    </defs>
    <g id="Page-1" stroke="none" stroke-width="1" fill="none" fill-rule="evenodd">
        <g id="Combined-Shape">
            <use fill="black" fill-opacity="1" filter="url(#filter-2)" xlink:href="#path-1"></use>
            <use fill="#0A0A0A" fill-rule="evenodd" xlink:href="#path-1"></use>
        </g>
    </g>
</svg>