<svg width="516px" height="495px" viewBox="0 0 516 495" version="1.1" xmlns="http://www.w3.org/2000/svg" xmlns:xlink="http://www.w3.org/1999/xlink">
    <title>Group 30</title>
    <g id="Page-1" stroke="none" stroke-width="1" fill="none" fill-rule="evenodd">
        <g id="Group-30" fill="#242424" fill-rule="nonzero">
            <polygon id="Path" points="79.1017405 218.614509 130.179795 178.466216 227 16 0 198.296053 13.8081823 231.074324 90.2623363 245"></polygon>
            <polygon id="Path" points="168.455051 424.755582 99.6617238 265.787813 21 252 125.678406 495 160.625579 490.839181 197 422.063287"></polygon>
            <polygon id="Path" points="390.221485 402.146997 218.477369 419.304818 181 491 443.626735 464.160265 451 429.231844 396.16898 374"></polygon>
            <polygon id="Path" points="486.173944 131 413.710093 169.864596 438.435934 184.449004 402 352.984467 457.204724 409 516 145.299238"></polygon>
            <polygon id="Path" points="179.204762 339 240 235.654991 231.014286 199 172 296.869235"></polygon>
            <polygon id="Path" points="356.230769 300 387 249.022013 378.179487 209 347 259.242138"></polygon>
            <polygon id="Path" points="166.632662 286 227.458829 185.669848 340.520586 252.882495 371.218664 203.063666 288.977127 153.163367 291.542086 148.478849 283.073651 108.47714 265.36322 138.865404 257.342635 133.977211 279.531565 97.0713574 391.290485 160.414186 466 118.864549 260.355444 0 110 252.352941"></polygon>
        </g>
    </g>
</svg>