<?xml version="1.0" encoding="UTF-8"?>
<svg width="13px" height="13px" viewBox="0 0 13 13" version="1.1" xmlns="http://www.w3.org/2000/svg" xmlns:xlink="http://www.w3.org/1999/xlink">
    <title>Shape</title>
    <g id="Page-1" stroke="none" stroke-width="1" fill="none" fill-rule="evenodd">
        <g id="cart-1.3" transform="translate(-222.000000, -367.000000)" fill="#000000" fill-rule="nonzero">
            <g id="Group-6" transform="translate(209.000000, 359.000000)">
                <path d="M24.0834648,16.5166574 C24.9102468,14.4622339 24.3930435,12.0852382 22.7976499,10.6072285 C21.2022564,9.1292187 18.883567,8.87897715 17.0331756,9.98510504 L16.4167025,8.85621882 C18.3359658,7.70904928 20.6935782,7.71498926 22.6075338,8.87181656 C25.3978202,10.5563722 26.4667049,14.1633488 25.1660213,17.1711125 L26,17.6741395 L23.4116832,19.1130307 L23.3091448,16.0493752 L24.0834648,16.5166574 Z M14.9171567,12.4833426 C14.0903747,14.5377661 14.607578,16.9147618 16.2029715,18.3927715 C17.798365,19.8707813 20.1170544,20.1210228 21.9674459,19.014895 L22.5839189,20.1437812 C20.6646557,21.2909507 18.3070433,21.2850107 16.3930876,20.1281834 C13.6028013,18.4436278 12.5339165,14.8366512 13.8346001,11.8288875 L13,11.3265104 L15.5883168,9.88761918 L15.6908552,12.9512747 L14.9165352,12.4839925 L14.9171567,12.4833426 Z M17.3252546,15.7998114 L20.7432,15.7998114 C20.9148072,15.7998114 21.0539223,15.6543251 21.0539223,15.4748586 C21.0539223,15.2953921 20.9148072,15.1499057 20.7432,15.1499057 L18.2574215,15.1499057 C17.3993855,15.1499057 16.7038099,14.422474 16.7038099,13.5251414 C16.7038099,12.6278089 17.3993855,11.9003772 18.2574215,11.9003772 L18.8788661,11.9003772 L18.8788661,11.2504715 L20.1217553,11.2504715 L20.1217553,11.9003772 L21.6753669,11.9003772 L21.6753669,13.2001886 L18.2574215,13.2001886 C18.0858143,13.2001886 17.9466992,13.3456749 17.9466992,13.5251414 C17.9466992,13.7046079 18.0858143,13.8500943 18.2574215,13.8500943 L20.7432,13.8500943 C21.6012359,13.8500943 22.2968115,14.577526 22.2968115,15.4748586 C22.2968115,16.3721911 21.6012359,17.0996228 20.7432,17.0996228 L20.1217553,17.0996228 L20.1217553,17.7495285 L18.8788661,17.7495285 L18.8788661,17.0996228 L17.3252546,17.0996228 L17.3252546,15.7998114 Z" id="Shape"></path>
            </g>
        </g>
    </g>
</svg>