<?xml version="1.0" encoding="UTF-8"?>
<svg height="29px" version="1.1" viewBox="0 0 29 29" width="29px" xmlns="http://www.w3.org/2000/svg"
>
  <title>Group</title>
  <defs>
    <filter id="filter-1">
      <feColorMatrix in="SourceGraphic" type="matrix"
                     values="0 0 0 0 1.000000 0 0 0 0 1.000000 0 0 0 0 1.000000 0 0 0 1.000000 0"></feColorMatrix>
    </filter>
  </defs>
  <g fill="none" fill-rule="evenodd" id="Page-1" stroke="none" stroke-width="1">
    <g id="Homepage-1.2" transform="translate(-1192.000000, -29.000000)">
      <g filter="url(#filter-1)" id="Group" transform="translate(20.000000, 0.000000)">
        <g transform="translate(1172.000000, 29.000000)">
          <polygon id="Path" points="0 0 29 0 29 29 0 29"></polygon>
          <path
            d="M15.5,2 C19.9817337,2 23.614904,5.60410776 23.614904,10.05 L24.8599635,10.05 C25.4655763,10.0500187 25.9691267,10.5124652 26.0157589,11.11145 L26.9965041,23.76145 C27.0457829,24.3946655 26.5682912,24.9476262 25.9299727,24.99655 L25.8407087,25 L5.15927328,25 C4.51902433,25 4,24.4851275 4,23.85 L4.00347782,23.76145 L4.98422302,11.11145 C5.03085521,10.5124652 5.53440565,10.0500187 6.14001848,10.05 L7.38507799,10.05 C7.38507799,5.60410776 11.0182483,2 15.5,2 Z M23.7853171,12.35 L7.21350554,12.35 L6.41012916,22.7 L24.5886935,22.7 L23.7853171,12.35 Z M15.499991,4.3 C12.3967119,4.30017786 9.84410323,6.72489532 9.70942092,9.80045 L9.70362456,10.05 L21.2963574,10.05 C21.2961781,6.97154473 18.8519084,4.43935495 15.7515533,4.30575 L15.499991,4.3 Z"
            fill="#000000" fill-rule="nonzero" id="Shape"></path>
        </g>
      </g>
    </g>
  </g>
</svg>
