<?xml version="1.0" encoding="UTF-8"?>
<svg width="13px" height="12px" viewBox="0 0 13 12" version="1.1" xmlns="http://www.w3.org/2000/svg" xmlns:xlink="http://www.w3.org/1999/xlink">
    <title>Shape</title>
    <g id="Page-1" stroke="none" stroke-width="1" fill="none" fill-rule="evenodd">
        <g id="cart-1.3" transform="translate(-90.000000, -368.000000)" fill="#000000" fill-rule="nonzero">
            <g id="Group-2" transform="translate(70.000000, 359.000000)">
                <path d="M20.65,9 L32.35,9 C32.7089851,9 33,9.29847683 33,9.66666667 L33,20.3333333 C33,20.7015232 32.7089851,21 32.35,21 L20.65,21 C20.2910149,21 20,20.7015232 20,20.3333333 L20,9.66666667 C20,9.29847683 20.2910149,9 20.65,9 Z M31.7,15 L21.3,15 L21.3,19.6666667 L31.7,19.6666667 L31.7,15 Z M31.7,12.3333333 L31.7,10.3333333 L21.3,10.3333333 L21.3,12.3333333 L31.7,12.3333333 Z" id="Shape"></path>
            </g>
        </g>
    </g>
</svg>