<svg version="1.1" id="Layer_1" xmlns="http://www.w3.org/2000/svg" x="0px" y="0px"
     viewBox="0 0 1945 504" style="enable-background:new 0 0 1945 504;" xml:space="preserve">
<style type="text/css">
    .st1 {
        fill: #0079BE;
    }
</style>
    <g>
	<g>
		<g>
			<path fill="currentColor" d="M1650.5,401.3c0,12.5,2.8,17.5,14.2,17.5h1.9v3c-6,0-12-0.5-18-0.5c-6.3,0-12.8,0.5-19,0.5v-3l1.4,0
				c10.4,0,13.6-7.4,13.6-18.9v-60.8c0-8.5-7-13.6-13.7-13.6h-1.3v-3c5.2,0,10.7,0.6,16,0.6c4.4,0,8.6-0.6,12.8-0.6l64.2,72.5
				l0.5-0.5l0.3-0.3l0.2-54.5c0-12.2-8.7-14.2-13.2-14.2h-2.5v-3c6.5,0,13,0.6,19.5,0.6c5.8,0,11.5-0.5,17.2-0.6v3h-1.6
				c-6.2,0.1-13.5,1.6-13.5,19v65.6c0,4.8,0.1,9.6,0.7,13.9h-4.7l-74.9-83.8V401.3z"/>
            <path fill="currentColor" d="M758.3,323c4.4,0,8.6-0.6,12.8-0.6l64.1,72.5l0.5-0.4l0.3-0.3l0.2-54.5c0-12.2-8.8-14.2-13.2-14.2h-2.5
				l0-3.1c6.5,0,13,0.6,19.5,0.6c5.7,0,11.4-0.5,17.1-0.6v3.1h-1.5c-6.2,0-13.5,1.6-13.5,18.9v65.6c0,4.8,0.1,9.6,0.8,13.9h-4.8
				l-74.9-83.8v61.1c0,12.5,2.8,17.5,14.2,17.5h1.8v3.1c-6-0.1-11.9-0.6-18-0.6c-6.3,0-12.7,0.5-19,0.6v-3.1l1.4,0
				c10.4,0,13.6-7.4,13.6-18.9v-60.7c0-8.4-7-13.6-13.7-13.6h-1.3l0-3.1C747.6,322.5,753,323,758.3,323z"/>
            <path fill="currentColor" d="M713.7,323c7,0,15.4-0.6,22-0.6v3.1h-1.4c-5.1,0-11.3,0.9-11.3,8.9v75.6c0,8,6.2,8.9,11.3,8.9h1.4v3.1
				c-6.8,0-15.2-0.6-22.2-0.6c-6.8,0-15,0.5-20.6,0.6v-3.1h1.4c5.1,0,11.3-0.9,11.3-8.9v-75.6c0-8-6.2-8.9-11.3-8.9h-1.4v-3.1
				C698.5,322.5,706.8,323,713.7,323z"/>
            <path fill="currentColor" d="M1880.7,408.4c0,6.2,4.5,8.2,9.2,8.7c2.6,0.2,5.3,0.3,8.1,0.3c3.5,0,7.3-0.2,11.1-0.6
				c6.2-0.8,11.6-4.3,14.3-8c2.3-3.1,3.6-7,4.4-10.2h3c-1.6,7.8-3.4,15.4-5.1,23.3c-12.5,0-25-0.5-37.5-0.5s-25,0.5-37.5,0.5v-3h1.4
				c5.2,0,11.4-1,11.4-10.3v-74.1c0-7.9-6.3-8.8-11.4-8.8h-1.4v-3.1c7.4,0,14.7,0.6,22.2,0.6c7.2,0,14.2-0.5,21.3-0.6v3.1h-3
				c-5.4,0-10.5,0.4-10.5,8.4V408.4z"/>


            <path fill="currentColor" d="M988.1,145.5v17.2c15.1-10.9,28.1-19.9,45.9-19.9c22.5,0,30.4,16.4,30.4,37.1v68.4c0,8.8,5.8,8.8,13.3,8.8
				h4.8v6.9c-9.3,0-18.6-0.5-28.1-0.5c-9.5,0-19.1,0.3-28.6,0.5v-6.9h4.8c7.4,0,12.7,0,12.7-8.8v-68.6c0-15.1-9.2-22.5-24.4-22.5
				c-8.5,0-22,6.9-30.8,12.7v78.4c0,8.8,5.9,8.8,13.3,8.8h4.8v6.9c-9.3,0-18.6-0.5-28.1-0.5c-9.5,0-19.1,0.3-28.6,0.5v-6.9h4.8
				c7.4,0,12.7,0,12.7-8.8v-70.2c0-9.8-2.9-12.4-15.4-17.5v-5c11.4-3.7,22.2-7.2,35-12.7C987.3,142.9,988.1,143.4,988.1,145.5z"/>
            <path fill="currentColor" d="M1086,371.2h0.6h7.1c14.5,0,22.8-5.9,22.8-23.1c0-13.1-8.6-21.7-21.7-21.7c-4.4,0-6.3,0.4-8.3,0.6l-0.6,0.1
				V371.2z M1057.9,418.8c5.4,0,10.9-2.6,10.9-8.4v-73.3c0-10.8-6.4-11.6-10.9-11.6h-2v-3.1c4.7,0,13.3,0.6,21.7,0.6
				c8.7,0,15.6-0.6,23.2-0.6c18.1,0.1,33.7,4.7,33.7,24.7c0,12.7-8.4,20.4-19.6,24.8l-0.7,0.3l25.1,37.5c3.9,6,7.1,8,13.9,8.9v3.2
				c-4.5-0.1-8.9-0.6-13.5-0.6c-4.5,0-9.1,0.6-13.5,0.6c-10.6-14.3-20.1-29.9-29.5-46.4l-0.2-0.3h-9.9h-0.6v31.5
				c0,11.4,5.9,12.2,12.4,12.2h2v3c-8,0-16.1-0.6-24.2-0.6c-6.8,0-13.3,0.5-20.3,0.6v-3H1057.9z"/>
            <path fill="currentColor" d="M1924.5,327.6c0-1.6-0.2-2.1-2.1-2v-0.8h6.7v1h-1.7v7.1h1.7v1h-1.7v5.1c0,1,0.4,0.9,2.2,1.2v0.8h-7.3v-0.8
				c1.9-0.3,2.2-0.2,2.2-1.4V327.6z"/>
            <path fill="currentColor" d="M1799.7,319c0.3-0.1,0.5-0.2,0.8-0.2h0.3c0.1,0,0.1,0,0.2,0.2c0.4,1,0.8,2.3,1.2,3.4l26.5,75.4
				c1.7,5,3.4,10.4,5.3,14.8c1.8,4.2,5.2,6.2,10.1,6.2h0.2l0,3c-6.3-0.2-12.6-0.5-19.3-0.5c-6.9,0-13.9,0.3-21,0.5v-3h1
				c3.3-0.1,9.3-0.4,9.6-4.8c0-2.1-1.3-6-2.9-10.6l-5.8-17.1h-33.6l-4.8,15.4l0.4,0.1l-0.4-0.1c-1.4,4.9-3.2,8.6-3.2,11.4
				c0.2,5.1,6.8,5.6,11.4,5.7h1v3c-5.6-0.2-11.2-0.5-16.8-0.5c-5,0-10,0.3-14.9,0.5v-3h0.2c5.9,0,10.9-3.6,13.1-9.8l23.1-66.2
				c1.9-5.4,4.5-12.5,5.4-18C1791.1,323.7,1796.9,320.8,1799.7,319z M1803.3,379.4l-13.6-42.1h-0.5h-0.3h-0.4l-13.8,42.1H1803.3z"/>

            <path fill="currentColor" d="M1102.6,206.3c1.6,25.2,17.8,45.8,38.9,45.8c14.6,0,26-7.9,35.8-17.8l3.7,3.7c-12.2,16.2-27.3,29.9-49,29.9
				c-42.2,0-50.6-40.8-50.6-57.8c0-52,35-67.3,53.5-67.3c21.5,0,44.6,13.5,44.8,41.6c0,1.6,0,3.2-0.2,4.8l-2.4,1.6h-74.5
				C1102.1,193.3,1102.1,197.2,1102.6,206.3z M1156.9,175.8c0-13.5-8.2-24.4-23.1-24.4c-16.1,0-27.3,11.9-30.5,31h46.1
				C1156.1,182.4,1156.9,178.9,1156.9,175.8z"/>

            <path fill="currentColor" d="M913.4,102.1c-6.9,0-13-6.4-13-13.2c0-6.6,6.4-12.8,13-12.8c6.9,0,13,5.6,13,12.8
				C926.4,96,920.5,102.1,913.4,102.1z"/>
            <path fill="currentColor" d="M1289.2,421.3c-5,0-10,0.3-15,0.5v-3h0.2c5.9,0,10.9-3.6,13.1-9.8l23.1-66.2c1.9-5.3,4.5-12.5,5.4-18
				c4.3-1.1,10.1-4,12.8-5.8c0.4-0.1,0.5-0.2,0.8-0.2h0.3c0.1,0,0.1,0,0.2,0.1c0.4,1,0.8,2.3,1.2,3.5l26.5,75.4
				c1.7,5.1,3.5,10.4,5.3,14.8c1.8,4.2,5.2,6.2,10.1,6.2h0.2v3c-6.3-0.2-12.5-0.5-19.2-0.5c-6.9,0-13.9,0.3-21,0.5v-3h1
				c3.3-0.1,9.4-0.4,9.6-4.8c0-2.1-1.3-6-2.9-10.6l-5.8-17.1h-33.6l-4.8,15.4l0.6,0.2l-0.6-0.2c-1.4,4.9-3.2,8.6-3.2,11.4
				c0.2,5.1,6.7,5.6,11.4,5.7h0.9v3C1300.5,421.6,1294.8,421.3,1289.2,421.3z M1332.6,379.4l-13.7-42.1h-0.4h-0.3h-0.5l-13.8,42.1
				H1332.6z"/>
            <path fill="currentColor" d="M1465.1,167.5c0,53.6,38.2,92,79,92c26.2,0,48-18,53.3-45.9l6.1,1.6l-6.1,38.7
				c-11.1,6.9-41.1,14.1-58.6,14.1c-62,0-101.2-40-101.2-99.7c0-54.3,48.5-93.3,100.4-93.3c21.5,0,42.1,6.9,62.5,14.1l2.6,37.9h-6.6
				c-5-31-27-43.5-56.7-43.5C1509.4,83.5,1465.1,103.9,1465.1,167.5z"/>
            <path fill="currentColor" d="M1287.9,227.2c3.5,17.5,14,32.3,33.4,32.3c15.6,0,21.4-9.5,21.4-18.8c0-31.3-57.8-21.2-57.8-63.9
				c0-14.8,11.9-33.9,41.1-33.9c8.5,0,19.9,2.4,30.2,7.7l1.9,27h-6.1c-2.6-16.7-11.9-26.2-28.9-26.2c-10.6,0-20.7,6.1-20.7,17.5
				c0,31,61.5,21.5,61.5,63.1c0,17.5-14.1,36.1-45.6,36.1c-10.6,0-23.1-3.7-32.3-9l-2.9-30.5L1287.9,227.2z"/>
            <path fill="currentColor" d="M1649.6,61.5c1.6,0,2.1,1.6,2.1,3.7v183.1c0,8.8,5.8,8.8,13.2,8.8h4.5v6.9c-9,0-18.2-0.5-27.8-0.5
				c-9.5,0-19.1,0.3-28.9,0.5v-6.9h5c7.4,0,12.8,0,12.8-8.8V100.8c0-17.2-4-17.8-14.1-20.7v-4.2c10.6-3.4,21.7-8.2,27.3-11.4
				C1646.7,62.8,1648.8,61.5,1649.6,61.5z"/>
            <path fill="currentColor" d="M1226.6,170.2h0.6c6.6-10.3,17.8-27.3,33.9-27.3c6.6,0,15.1,4.5,15.1,14.1c0,7.2-5,13.5-12.4,13.5
				c-8.2,0-8.2-6.4-17.5-6.4c-4.5,0-19.3,6.1-19.3,22v62.3c0,8.8,5.3,8.8,12.7,8.8h14.8v6.9c-14.6-0.3-25.7-0.5-37.1-0.5
				c-10.9,0-22,0.3-31.5,0.5v-6.9h7.2c7.4,0,12.7,0,12.7-8.8v-74.5c0-8.2-9.8-9.8-13.8-11.9v-4c19.3-8.2,30-15.1,32.4-15.1
				c1.6,0,2.3,0.8,2.3,3.5V170.2z"/>

            <path class="st1" d="M24.1,251.5c0,127.4,103.2,230.7,230.6,230.7c127.4,0,230.6-103.3,230.7-230.7
				c0-127.4-103.3-230.7-230.7-230.7C127.3,20.9,24.1,124.1,24.1,251.5z M372.7,0c137.8-0.1,263.5,103.9,263.5,254.2
				c0,137.5-125.7,250.5-263.5,249.8H254.1C114.7,504.7,0,391.7,0,254.2C0,103.9,114.7-0.1,254.1,0H372.7z"/>
            <path fill="currentColor" d="M867.3,318.3c1.3,4,5,4.2,8.4,4.2h0.8h74.4c3.6,0,7.7-0.2,8.3-4.4l2.2,0.4c-0.5,3.7-1.1,7.4-1.5,11.1
				c-0.3,3.8-0.3,7.6-0.3,11.3l-3.1,1.1c-0.3-5.4-1.6-13.6-11.3-13.6h-24.3v77.4c0,11.3,5.6,13,12.6,13h2.1v3
				c-5.7,0-15.3-0.5-22.9-0.5c-8.4,0-18.1,0.5-23.8,0.5v-3h2.1c7.9,0,12.6-1.2,12.6-12.8v-77.7h-24.3c-10.8-0.1-12,3.1-13.9,13.2
				h-3.1c0.5-3.8,1.2-7.6,1.6-11.6c0.6-3.8,0.8-7.7,0.9-11.7H867.3z"/>

            <path fill="currentColor" d="M1835.7,234.1c0,10.1,9.5,27.1,27.3,27.1c28.4,0,40.3-27.9,40.3-51.4c0-28.6-21.7-52.5-42.4-52.5
				c-9.8,0-18,6.4-25.2,12.5V234.1z M1833.6,61.5c1.6,0,2.1,1.6,2.1,3.7V162c10.6-9,24.9-19.1,39.5-19.1c30.8,0,49.3,26.8,49.3,55.7
				c0,34.7-25.4,69.5-63.3,69.5c-19.6,0-29.9-6.4-36.8-9.3l-7.9,6.1l-5.6-2.9c2.3-15.6,3.7-31,3.7-47.2v-114
				c0-17.2-4-17.8-14.1-20.7v-4.2c10.6-3.4,21.7-8.2,27.3-11.4C1830.6,62.8,1832.7,61.5,1833.6,61.5z"/>
            <path class="st1" d="M307,115.1c54.9,21.1,93.8,74.2,93.9,136.5C400.8,313.9,361.9,367,307,388V115.1z"/>
            <path class="st1"
                  d="M202.4,115.1V388c-54.8-21.1-93.7-74.2-93.8-136.4C108.6,189.3,147.5,136.2,202.4,115.1z"/>
            <path fill="currentColor" d="M1790.3,254.5c3.2,0,7.1-0.3,10.6-0.3v5.6c-11.4,1.1-33.1,6.6-38.2,8.2l-1.3-0.8v-21.4
				c-15.9,13-28.1,22.2-46.9,22.2c-14.3,0-29.2-9.3-29.2-31.5v-67.9c0-6.9-1-13.5-15.9-14.8v-5c9.6-0.3,30.7-1.9,34.2-1.9
				c2.9,0,2.9,1.9,2.9,7.7v68.4c0,8,0,30.8,23,30.8c9,0,20.9-6.9,32.1-16.1v-71.3c0-5.3-12.7-8.2-22.2-10.9v-4.8
				c23.8-1.6,38.7-3.7,41.3-3.7c2.2,0,2.2,1.9,2.2,4.8v97.8C1782.9,254.2,1785.8,254.5,1790.3,254.5z"/>
            <path fill="currentColor" d="M1489.9,323c7,0,15.4-0.5,22-0.6v3.1h-1.4c-5.2,0-11.3,0.9-11.3,8.9v75.6c0,8,6.1,8.9,11.3,8.9h1.4v3
				c-6.8,0-15.2-0.5-22.1-0.5c-6.8,0-15,0.5-20.6,0.5v-3h1.4c5.1,0,11.3-0.9,11.3-8.9v-75.6c0-8-6.2-8.9-11.3-8.9h-1.4v-3.1
				C1474.8,322.5,1483.1,323,1489.9,323z"/>
            <path fill="currentColor" d="M1368.5,318.2c1.3,4.1,5,4.2,8.4,4.2h0.7h74.4c3.6,0.1,7.7-0.2,8.3-4.4l2.2,0.4c-0.5,3.7-1.1,7.4-1.5,11.1
				c-0.3,3.8-0.3,7.5-0.3,11.3l-3.2,1.1c-0.3-5.4-1.5-13.6-11.2-13.6h-24.3v77.4c0,11.3,5.6,13,12.6,13h2.1v3.1
				c-5.7-0.1-15.3-0.6-22.9-0.6c-8.4,0-18.1,0.5-23.8,0.6v-3.1h2.1c7.9,0,12.6-1.2,12.6-12.7v-77.7h-24.3
				c-10.8-0.1-12,3.1-13.9,13.2h-3.1c0.5-3.8,1.2-7.6,1.6-11.6c0.6-3.8,0.8-7.7,0.9-11.7H1368.5z"/>

            <path fill="currentColor" d="M769.7,79c68.6,0,106,45.8,106,92.8c0,26.2-15.4,92.2-109.2,92.2c-13.5,0-26-0.5-38.4-0.5
				c-11.9,0-23.6,0.3-35.5,0.5v-6.9c15.9-1.6,23.6-2.1,24.4-20.2V108.4c0-23.8-12.4-22.3-24.4-22.5V79c10.3,0.5,20.9,0.5,31.3,0.5
				C735,79.5,750.1,79,769.7,79z M742.9,232.8c0,20.4,14.6,22.8,27.6,22.8c57.3,0,76.1-43.2,76.1-82.7c0-49.6-31.8-85.3-83-85.3
				c-10.9,0-15.9,0.8-20.7,1.1V232.8z"/>
            <path fill="currentColor" d="M967.3,322.4c8.8,0,23.4,0.6,35.3,0.6c11.9,0,26.5-0.5,36.3-0.6c-0.1,2-0.1,4.4-0.1,6.8
				c0,4.8,0.2,10,0.4,14.1l-3.1,0.8c-0.6-9.1-3.1-16.8-18.1-16.7h-20.7v39h17.8c8.8,0.1,11.1-5.2,11.9-12.7h3.1
				c-0.3,5.4-0.4,10.8-0.4,16.3c0,5.3,0.1,10.6,0.4,15.9l-3.1,0.6c-0.7-8.2-1.7-14.3-11.8-14.2h-17.9v34.2c0,10,9.1,10,18.2,10
				c17,0.1,25.4-1.3,29.7-17.5l2.9,0.7c-1.8,7.3-3.4,14.6-4.7,21.8c-9.3,0-25.5-0.5-38.3-0.5c-12.7,0-29.3,0.5-37.7,0.5v-3h1.4
				c5.1,0,11.3-0.9,11.3-8.9v-75.6c0-8-6.2-8.9-11.3-8.9h-1.4V322.4z"/>
            <path fill="currentColor" d="M1570.1,320.3c30.5,0,54.6,18.8,54.7,49.1c-0.1,32.9-23.5,54.6-53.9,54.6c-30.3,0-53.3-20.5-53.4-51.1
				C1517.5,343.2,1540.4,320.3,1570.1,320.3z M1536.4,367.8c0,26,11.9,51.1,35.8,51.1c28.5,0,33.5-25.3,33.5-46.3
				c0-21.2-11.5-47.2-35.9-47.2C1544.1,325.3,1536.5,348.4,1536.4,367.8z"/>
            <path fill="currentColor" d="M917.3,144.2c1.9-1.1,3.5-1.3,4.8-1.3c1.3,0,1.9,1.6,1.9,3.7v101.8c0,8.8,5.8,8.8,13.2,8.8h4.5v6.9
				c-9,0-18.3-0.5-27.8-0.5c-9.5,0-19.1,0.3-28.9,0.5v-6.9h5c7.4,0,12.7,0,12.7-8.8v-71.8c0-11.6-4-13.3-13.8-18.5v-4.2
				C901.4,150,916.3,145,917.3,144.2z"/>
            <path fill="currentColor" d="M1174.7,323c4.4,0,8.5-0.6,12.8-0.6l64.2,72.5l0.4-0.5l0.3-0.3l0.2-54.5c0-12.2-8.7-14.1-13.2-14.2h-2.6v-3
				c6.5,0,13,0.6,19.6,0.6c5.7,0,11.4-0.5,17.1-0.6v3h-1.5c-6.2,0.1-13.5,1.6-13.5,19v65.6c0,4.8,0.1,9.6,0.8,13.9h-4.7l-74.9-83.8
				v61c0,12.6,2.9,17.5,14.2,17.5h1.8v3c-6,0-11.9-0.5-18-0.5c-6.3,0-12.8,0.5-19,0.5v-3l1.4,0c10.3,0,13.6-7.4,13.6-19v-60.7
				c0-8.5-6.9-13.6-13.7-13.6h-1.3v-3C1164,322.5,1169.4,323,1174.7,323z"/>

		</g>
        <g>
		</g>
	</g>
</g>
</svg>
