<?xml version="1.0" encoding="UTF-8"?>
<svg height="93px" version="1.1" viewBox="0 0 131 93" width="131px" xmlns="http://www.w3.org/2000/svg"
     xmlns:xlink="http://www.w3.org/1999/xlink">
  <defs>
    <filter id="filter-1">
      <feColorMatrix in="SourceGraphic" type="matrix"
                     values="0 0 0 0 1.000000 0 0 0 0 1.000000 0 0 0 0 1.000000 0 0 0 1.000000 0"></feColorMatrix>
    </filter>
    <polygon id="path-2" points="0 93 131 93 131 0 0 0"></polygon>
  </defs>
  <g fill="none" fill-rule="evenodd" id="Page-1" stroke="none" stroke-width="1">
    <g id="Homepage-1.2" transform="translate(-20.000000, 0.000000)">
      <g filter="url(#filter-1)" id="kitelement_logo" transform="translate(20.000000, 0.000000)">
        <g>
          <polygon fill="#000000" id="Fill-1" points="37 52 40 52 40 40 37 40"></polygon>
          <polygon fill="#000000" id="Fill-2" points="59 52 62 52 62 36 59 36"></polygon>
          <g id="Group-19">
            <path
              d="M49.8707595,45.220046 C49.9796841,44.4691266 50.2462744,43.8740689 50.6707503,43.4348728 C51.0950061,42.9955662 51.6924411,42.7758577 52.4632753,42.7758577 C53.1719454,42.7758577 53.7656396,42.9831945 54.2443577,43.3976472 C54.7231859,43.8120998 54.9897762,44.4195293 55.0443485,45.220046 L49.8707595,45.220046 Z M57.1480238,42.5359346 C56.6260659,41.7589463 55.9643764,41.1901785 55.1632854,40.8297417 C54.3620843,40.4695257 53.4616409,40.2892521 52.462175,40.2892521 C50.7789047,40.2892521 49.4097553,40.8224512 48.355057,41.888518 C47.3002487,42.9545849 46.7728995,44.4866901 46.7728995,46.4845022 C46.7728995,48.6167464 47.3570215,50.1559211 48.5254855,51.101916 C49.6939496,52.0479108 51.0425243,52.5209083 52.5709896,52.5209083 C54.4228181,52.5209083 55.8631535,51.9602042 56.891996,50.838575 C57.5533554,50.1332764 57.9243593,49.4383612 58.0052275,48.7540504 L54.9393848,48.7540504 C54.7605944,49.0927263 54.5544078,49.3571718 54.3212651,49.5477184 C53.8937085,49.9005334 53.3378629,50.07672 52.6538384,50.07672 C52.0085425,50.07672 51.4567679,49.932236 50.9980742,49.6429365 C50.2439638,49.17734 49.8435834,48.366219 49.7970429,47.2092421 L58.162013,47.2092421 C58.1768663,46.213208 58.1438588,45.4501379 58.0629906,44.9202526 C57.9234791,44.0159019 57.6183801,43.2212397 57.1480238,42.5359346 L57.1480238,42.5359346 Z"
              fill="#000000" id="Fill-3"></path>
            <polygon fill="#000000" id="Fill-5"
                     points="36.1739076 40.6490482 32.4395539 40.6490482 28.651838 44.9994758 28.651838 36.5859318 25.7015214 36.5859318 25.7015214 52.1294537 28.651838 52.1294537 28.651838 48.5001208 29.8956691 47.2018632 32.6784178 52.1294537 36.3332236 52.1294537 32.0572175 44.9455705"></polygon>
            <path
              d="M46.2382667,50.0026664 C45.6271887,50.0026664 45.2617961,49.944453 45.1424191,49.8280263 C45.0229321,49.71171 44.9632986,49.4172189 44.9632986,48.9445528 L44.9632986,42.8499334 L46.8283301,42.8499334 L46.8283301,40.7020036 L44.9632986,40.7020036 L44.9632986,37.485356 L41.9918572,37.485356 L41.9918572,40.7020036 L40.3903354,40.7020036 L40.3903354,42.8499334 L41.9918572,42.8499334 L41.9918572,49.9497552 C41.9918572,50.6693034 42.1605253,51.2019502 42.4976415,51.5474747 C43.017399,52.0907258 43.986828,52.337387 45.4058186,52.2881211 L46.8283301,52.2352099 L46.8283301,49.9814577 C46.7298578,49.9886378 46.6298452,49.9939399 46.5280722,49.9973642 C46.4261892,50.0010095 46.3294773,50.0026664 46.2382667,50.0026664"
              fill="#000000" id="Fill-7"></path>
            <mask fill="white" id="mask-3">
              <use xlink:href="#path-2"></use>
            </mask>
            <polygon fill="#000000" id="Fill-9" mask="url(#mask-3)"
                     points="36.6972519 39.2205673 39.74241 39.2205673 39.74241 36.4377031 36.6972519 36.4377031"></polygon>
            <path
              d="M118.966636,37.4853228 L115.995195,37.4853228 L115.995195,40.7019705 L114.393673,40.7019705 L114.393673,42.8499002 L115.995195,42.8499002 L115.995195,49.9497221 C115.995195,50.6692702 116.163753,51.201917 116.500979,51.547552 C117.020736,52.0908032 117.990165,52.3374644 119.409156,52.2881984 L120.831667,52.2352872 L120.831667,49.9815351 C120.733195,49.9886046 120.633073,49.9939068 120.53141,49.9973311 C120.429417,50.0009763 120.332815,50.0026333 120.241604,50.0026333 C119.630416,50.0026333 119.265133,49.9444199 119.145756,49.8281036 C119.026269,49.7116769 118.966636,49.4171857 118.966636,48.9445197 L118.966636,42.8499002 L120.831667,42.8499002 L120.831667,40.7019705 L118.966636,40.7019705 L118.966636,37.4853228 Z"
              fill="#000000" id="Fill-11" mask="url(#mask-3)"></path>
            <path
              d="M112.733849,41.2574498 C111.981829,40.6331197 111.01482,40.3210651 109.832713,40.3210651 C108.88837,40.3210651 108.108294,40.5538081 107.492924,41.0194046 C107.150087,41.2804258 106.786235,41.7071398 106.401698,42.2996569 L106.401698,40.6173236 L103.493521,40.6173236 L103.493521,52.1294317 L106.496539,52.1294317 L106.496539,45.8866829 C106.496539,45.1742043 106.594131,44.5888672 106.789426,44.1302298 C107.165931,43.2625524 107.859747,42.8287689 108.870986,42.8287689 C109.693642,42.8287689 110.251468,43.1250274 110.544464,43.7175445 C110.70488,44.0420813 110.784978,44.5076778 110.784978,45.1142236 L110.784978,52.1294317 L113.861824,52.1294317 L113.861824,44.3629728 C113.861824,42.9170279 113.485759,41.8817799 112.733849,41.2574498"
              fill="#000000" id="Fill-12" mask="url(#mask-3)"></path>
            <path
              d="M90.1087545,41.6754041 C89.708374,41.1817503 89.2622232,40.8360048 88.7705221,40.6384991 C88.278821,40.4411039 87.7800783,40.3422406 87.274404,40.3422406 C86.5156726,40.3422406 85.827137,40.5008637 85.2091274,40.818331 C84.6258856,41.1357982 84.1378153,41.6330972 83.7444764,42.3102281 C83.5195856,41.7459892 83.189511,41.2839275 82.7540326,40.9241534 C82.2130404,40.536322 81.5036001,40.3422406 80.6254917,40.3422406 C79.6983122,40.3422406 78.9431015,40.5680245 78.3600798,41.0193714 C78.0298952,41.2733231 77.6786958,41.7001475 77.3063717,42.2996237 L77.3063717,40.6172905 L74.3877422,40.6172905 L74.3877422,52.1293985 L77.4329003,52.1293985 L77.4329003,45.1883103 C77.4329003,44.5605559 77.5135485,44.0878898 77.675175,43.7704226 C77.9702617,43.2132533 78.5461318,42.9345582 79.4032255,42.9345582 C80.1408322,42.9345582 80.6360541,43.2132533 80.8890012,43.7704226 C81.0293929,44.0809307 81.0996988,44.5782298 81.0996988,45.2623197 L81.0996988,52.1293985 L84.1238421,52.1293985 L84.1238421,45.2623197 C84.1238421,44.7475677 84.2044904,44.3066042 84.3661169,43.9397605 C84.6822183,43.2484906 85.2546777,42.9028556 86.083715,42.9028556 C86.8001969,42.9028556 87.2917879,43.1709464 87.5588183,43.7069071 C87.69932,43.989137 87.7696259,44.3489111 87.7696259,44.7862293 L87.7696259,52.1293985 L90.8463611,52.1293985 L90.8674859,44.8602387 C90.8674859,44.1126333 90.8321679,43.5447491 90.7620821,43.1566968 C90.6496367,42.5713597 90.4317874,42.077485 90.1087545,41.6754041"
              fill="#000000" id="Fill-13" mask="url(#mask-3)"></path>
            <path
              d="M65.7100375,45.220046 C65.8190721,44.4691266 66.0855523,43.8740689 66.5100282,43.4348728 C66.9342841,42.9955662 67.5317191,42.7758577 68.3025532,42.7758577 C69.0112234,42.7758577 69.6049175,42.9831945 70.0836357,43.3976472 C70.5624639,43.8120998 70.8290541,44.4195293 70.8836265,45.220046 L65.7100375,45.220046 Z M72.9873018,42.5359346 C72.4653438,41.7589463 71.8036543,41.1901785 71.0025633,40.8297417 C70.2013623,40.4695257 69.3010289,40.2892521 68.301453,40.2892521 C66.6181827,40.2892521 65.2490333,40.8224512 64.194335,41.888518 C63.1395266,42.9545849 62.6121775,44.4866901 62.6121775,46.4845022 C62.6121775,48.6167464 63.1962995,50.1559211 64.3647635,51.101916 C65.5332275,52.0479108 66.8818022,52.5209083 68.4102676,52.5209083 C70.262206,52.5209083 71.7024315,51.9602042 72.7312739,50.838575 C73.3926334,50.1332764 73.7637472,49.4383612 73.8445055,48.7540504 L70.7786627,48.7540504 C70.5998723,49.0927263 70.3936857,49.3571718 70.1605431,49.5477184 C69.7329865,49.9005334 69.1771409,50.07672 68.4931163,50.07672 C67.8479305,50.07672 67.2960458,49.932236 66.8373522,49.6429365 C66.0832418,49.17734 65.6828613,48.366219 65.6363208,47.2092421 L74.0012909,47.2092421 C74.0161443,46.213208 73.9831368,45.4501379 73.9023786,44.9202526 C73.762757,44.0159019 73.4576581,43.2212397 72.9873018,42.5359346 L72.9873018,42.5359346 Z"
              fill="#000000" id="Fill-14" mask="url(#mask-3)"></path>
            <path
              d="M94.7400859,45.220046 C94.8490105,44.4691266 95.1156008,43.8740689 95.5400767,43.4348728 C95.9643325,42.9955662 96.5617675,42.7758577 97.3327117,42.7758577 C98.0412718,42.7758577 98.634966,42.9831945 99.1136842,43.3976472 C99.5925123,43.8120998 99.8589926,44.4195293 99.9136749,45.220046 L94.7400859,45.220046 Z M102.01735,42.5359346 C101.495392,41.7589463 100.833703,41.1901785 100.032612,40.8297417 C99.2314108,40.4695257 98.3309673,40.2892521 97.3315015,40.2892521 C95.6482311,40.2892521 94.2790818,40.8224512 93.2243834,41.888518 C92.1695751,42.9545849 91.6422259,44.4866901 91.6422259,46.4845022 C91.6422259,48.6167464 92.2263479,50.1559211 93.3948119,51.101916 C94.563276,52.0479108 95.9118507,52.5209083 97.440316,52.5209083 C99.2921445,52.5209083 100.73248,51.9602042 101.761322,50.838575 C102.422682,50.1332764 102.793796,49.4383612 102.874554,48.7540504 L99.8087112,48.7540504 C99.6299208,49.0927263 99.4237342,49.3571718 99.1905915,49.5477184 C98.7630349,49.9005334 98.2071893,50.07672 97.5231648,50.07672 C96.877869,50.07672 96.3260943,49.932236 95.8674006,49.6429365 C95.1132902,49.17734 94.7129098,48.366219 94.6662592,47.2092421 L103.031339,47.2092421 C103.046193,46.213208 103.013185,45.4501379 102.932427,44.9202526 C102.792805,44.0159019 102.487707,43.2212397 102.01735,42.5359346 L102.01735,42.5359346 Z"
              fill="#000000" id="Fill-15" mask="url(#mask-3)"></path>
            <polygon fill="#000000" id="Fill-16" mask="url(#mask-3)"
                     points="25.7015214 33.5782558 22.4432451 28.9913295 11.4726663 44.6667428 22.4432451 60.349778 25.7015214 55.7629622 17.8916267 44.6667428"></polygon>
            <polygon fill="#000000" id="Fill-17" mask="url(#mask-3)"
                     points="120.29314 35.7967706 120.846125 35.7967706 120.846125 37.3905135 121.239794 37.3905135 121.239794 35.7967706 121.786507 35.7967706 121.786507 35.4893554 120.29314 35.4893554"></polygon>
            <polygon fill="#000000" id="Fill-18" mask="url(#mask-3)"
                     points="123.483267 35.4872345 123.436836 35.4872345 123.211615 35.4872345 122.87857 36.9504116 122.870758 36.9504116 122.537713 35.4872345 122.319424 35.4872345 122.266062 35.4872345 121.982417 35.4872345 121.982417 37.3883926 122.319424 37.3883926 122.319424 35.7379828 122.670073 37.3883926 123.079255 37.3883926 123.436836 35.7056175 123.436836 37.3883926 123.773842 37.3883926 123.773842 35.4872345"></polygon>
          </g>
        </g>
      </g>
    </g>
  </g>
</svg>
