<svg version="1.1"
	 id="svg2" inkscape:version="0.91 r13725" sodipodi:docname="American_Express_2018.svg" xmlns:inkscape="http://www.inkscape.org/namespaces/inkscape" xmlns:sodipodi="http://sodipodi.sourceforge.net/DTD/sodipodi-0.dtd"
	 xmlns="http://www.w3.org/2000/svg" x="0px" y="0px" viewBox="0 0 1000 997.5"
	 style="enable-background:new 0 0 1000 997.5;" xml:space="preserve">
<style type="text/css">
	.st4{fill:#016FD0;}
</style>
<sodipodi:namedview  bordercolor="#666666" borderopacity="1.0" fit-margin-bottom="0" fit-margin-left="0" fit-margin-right="0" fit-margin-top="0" inkscape:current-layer="layer1" inkscape:cx="850.2929" inkscape:cy="357.59411" inkscape:document-units="px" inkscape:pageopacity="0.0" inkscape:pageshadow="2" inkscape:window-height="931" inkscape:window-maximized="1" inkscape:window-width="1680" inkscape:window-x="0" inkscape:window-y="1" inkscape:zoom="0.125" pagecolor="#ffffff" showgrid="true">
	
		<inkscape:grid  empspacing="5" enabled="true" originx="-55.5px" originy="947.50002px" snapvisiblegridlinesonly="true" type="xygrid" visible="true">
		</inkscape:grid>
</sodipodi:namedview>
	<rect width="100%" height="100%" fill="#ffffff"/>
<g transform="translate(-55.5,-1002.3452)" inkscape:groupmode="layer" inkscape:label="Layer 1">
	<g>
		<g>
			<path class="st4" d="M1053,1686.6v313.2H55.5v-507.6h46.2l9.9-24.7h26.5l9.9,24.7h375.8v-24.7l20.1,24.7h101.1v-17.4
				c0,0,17.1,17.4,44,17.4h67l9.8-24.7h26.6l9.9,24.7H901v-27.8l17.7,27.8h67.9v-156.6h-67.9v27.7l-18.5-27.7H833v48.6l-20.8-48.2
				l-117.1-0.4c-31.2,0-50.1,17.7-50.1,17.7v-17.7H284l-12.2,35.3l-12.6-35.3h-80.4v48.8l-21.2-48.8H92.9l-37.4,87.2v-420.4H1053
				v538.5H451.1l-18.4,23.2l-17.8-23.2H249.1v156.6h164.8l18-23.7l17.8,23.7h99.5v-36.3h22.4c19.4,0,28.4-5.9,28.4-5.9v42.1h65.7
				v-24.7l20,24.7h333.3C1037.3,1697.3,1053,1686.6,1053,1686.6z"/>
		</g>
		<g>
		</g>
	</g>
	<path inkscape:connector-curvature="0" class="st4" d="M106.1,1354.9l-50.4,117.3h32.8l9.3-23.5h54.1l9.3,23.5h33.6
		l-50.4-117.3L106.1,1354.9L106.1,1354.9z M124.8,1382.2l16.5,41h-33L124.8,1382.2z"/>
	<path inkscape:connector-curvature="0" sodipodi:nodetypes="cccccccccccccc" class="st4" d="M198.2,1472.2v-117.3
		l46.7,0.2l27.1,75.6l26.5-75.8h46.3v117.3h-29.3v-86.4l-31.1,86.4h-25.7l-31.2-86.4v86.4H198.2z"/>
	<path inkscape:connector-curvature="0" sodipodi:nodetypes="ccccccccccccc" class="st4" d="M364.9,1472.2v-117.3
		h95.7v26.2h-66v20.1H459v24.7h-64.5v20.8h66v25.5L364.9,1472.2z"/>
	<path inkscape:connector-curvature="0" class="st4" d="M477.5,1354.9v117.3h29.3v-41.7h12.3l35.2,41.7h35.8
		l-38.6-43.2c15.8-1.3,32.2-14.9,32.2-36c0-24.7-19.4-38-41-38L477.5,1354.9L477.5,1354.9z M506.8,1381.2h33.5
		c8,0,13.9,6.3,13.9,12.3c0,7.8-7.6,12.3-13.5,12.3h-33.9L506.8,1381.2L506.8,1381.2z"/>
	<path inkscape:connector-curvature="0" sodipodi:nodetypes="ccccc" class="st4" d="M625.6,1472.2h-29.9v-117.3h29.9
		V1472.2z"/>
	<path inkscape:connector-curvature="0" sodipodi:nodetypes="ccccccccccc" class="st4" d="M696.6,1472.2h-6.5
		c-31.3,0-50.2-24.6-50.2-58.1c0-34.3,18.8-59.1,58.2-59.1h32.4v27.8H697c-16,0-27.4,12.5-27.4,31.6c0,22.7,13,32.2,31.6,32.2h7.7
		L696.6,1472.2z"/>
	<path inkscape:connector-curvature="0" class="st4" d="M760.4,1354.9L710,1472.2h32.8l9.3-23.5h54.1l9.3,23.5H849
		l-50.4-117.3L760.4,1354.9L760.4,1354.9z M779,1382.2l16.5,41h-33L779,1382.2L779,1382.2z"/>
	<path inkscape:connector-curvature="0" sodipodi:nodetypes="ccccccccccc" class="st4" d="M852.4,1472.2v-117.3h37.3
		l47.6,73.7v-73.7h29.3v117.3h-36.1l-48.8-75.6v75.6H852.4z"/>
	<path inkscape:connector-curvature="0" sodipodi:nodetypes="ccccccccccccc" class="st4" d="M269.2,1677.4v-117.3
		h95.7v26.2h-66v20.1h64.5v24.7h-64.5v20.8h66v25.5L269.2,1677.4z"/>
	<path inkscape:connector-curvature="0" sodipodi:nodetypes="ccccccccccccc" class="st4" d="M737.9,1677.4v-117.3
		h95.7v26.2h-66v20.1h64.2v24.7h-64.2v20.8h66v25.5L737.9,1677.4z"/>
	<path inkscape:connector-curvature="0" sodipodi:nodetypes="ccccccccccccc" class="st4" d="M368.6,1677.4l46.6-57.9
		l-47.7-59.4h36.9l28.4,36.7l28.5-36.7h35.5l-47.1,58.6l46.7,58.6h-36.9l-27.6-36.1l-26.9,36.1L368.6,1677.4z"/>
	<path inkscape:connector-curvature="0" class="st4" d="M499.9,1560.1v117.3H530v-37h30.9c26.1,0,45.9-13.9,45.9-40.8
		c0-22.3-15.5-39.4-42.1-39.4H499.9L499.9,1560.1z M530,1586.7h32.5c8.4,0,14.5,5.2,14.5,13.5c0,7.8-6,13.5-14.6,13.5H530V1586.7
		L530,1586.7z"/>
	<path inkscape:connector-curvature="0" class="st4" d="M619.4,1560.1v117.3h29.3v-41.7h12.3l35.2,41.7h35.8
		l-38.6-43.2c15.8-1.3,32.2-14.9,32.2-36c0-24.7-19.4-38-41-38L619.4,1560.1L619.4,1560.1z M648.8,1586.4h33.5
		c8,0,13.9,6.3,13.9,12.3c0,7.8-7.6,12.3-13.5,12.3h-33.9V1586.4z"/>
	<path inkscape:connector-curvature="0" sodipodi:nodetypes="ccccccccccccccccc" class="st4" d="M847.2,1677.4v-25.5
		h58.7c8.7,0,12.4-4.7,12.4-9.8c0-4.9-3.7-9.9-12.4-9.9h-26.5c-23,0-35.9-14-35.9-35.1c0-18.8,11.8-36.9,46-36.9h57.1l-12.3,26.4
		h-49.4c-9.4,0-12.3,5-12.3,9.7c0,4.9,3.6,10.2,10.8,10.2h27.8c25.7,0,36.8,14.6,36.8,33.7c0,20.5-12.4,37.3-38.2,37.3H847.2z"/>
	<path inkscape:connector-curvature="0" sodipodi:nodetypes="ccccccccccccccccc" class="st4" d="M954.8,1677.4v-25.5
		h58.7c8.7,0,12.4-4.7,12.4-9.8c0-4.9-3.7-9.9-12.4-9.9h-26.5c-23,0-35.9-14-35.9-35.1c0-18.8,11.8-36.9,46-36.9h57.1l-12.3,26.4
		h-49.4c-9.4,0-12.3,5-12.3,9.7c0,4.9,3.6,10.2,10.8,10.2h27.8c25.7,0,36.8,14.6,36.8,33.7c0,20.5-12.4,37.3-38.2,37.3H954.8z"/>
</g>
</svg>
