<?xml version="1.0" encoding="utf-8"?>
<!-- Generator: Adobe Illustrator 25.4.7, SVG Export Plug-In . SVG Version: 6.00 Build 0)  -->
<svg version="1.1"
	 id="Ebene_1" inkscape:version="1.0.2 (e86c870879, 2021-01-15, custom)" sodipodi:docname="DHL_Logo.svg" xmlns:cc="http://creativecommons.org/ns#" xmlns:dc="http://purl.org/dc/elements/1.1/" xmlns:inkscape="http://www.inkscape.org/namespaces/inkscape" xmlns:rdf="http://www.w3.org/1999/02/22-rdf-syntax-ns#" xmlns:sodipodi="http://sodipodi.sourceforge.net/DTD/sodipodi-0.dtd" xmlns:svg="http://www.w3.org/2000/svg"
	 xmlns="http://www.w3.org/2000/svg" xmlns:xlink="http://www.w3.org/1999/xlink" x="0px" y="0px" viewBox="0 0 175.7 38.8"
	 style="enable-background:new 0 0 175.7 38.8;" xml:space="preserve">
<style type="text/css">
	.st0{fill:#D50029;}
</style>
<sodipodi:namedview  bordercolor="#666666" borderopacity="1" fit-margin-bottom="0" fit-margin-left="0" fit-margin-right="0" fit-margin-top="0" gridtolerance="10" guidetolerance="10" id="namedview7" inkscape:current-layer="Ebene_1" inkscape:cx="117.60352" inkscape:cy="-18.612463" inkscape:pageopacity="0" inkscape:pageshadow="2" inkscape:window-height="988" inkscape:window-maximized="1" inkscape:window-width="1680" inkscape:window-x="-8" inkscape:window-y="-8" inkscape:zoom="2" objecttolerance="10" pagecolor="#ffffff" showgrid="false">
	</sodipodi:namedview>
<path id="path4" class="st0" d="M56.7,16.2c-0.8,1-2.1,2.8-2.8,3.9c-0.4,0.5-1.1,1.5,1.3,1.5c2.5,0,12.5,0,12.5,0s2-2.7,3.7-5
	c2.3-3.1,0.2-9.6-8-9.6c-7.4,0-32.4,0-32.4,0l-5.6,7.6c0,0,29.1,0,30.6,0C57.4,14.6,57.4,15.2,56.7,16.2z M47.5,23.5
	c-2.4,0-1.7-1-1.3-1.5c0.8-1.1,2.1-2.8,2.9-3.9c0.8-1,0.8-1.6-0.8-1.6c-1.5,0-14,0-14,0L23,31.8c0,0,20.1,0,27.5,0
	c9.1,0,14.1-6.2,15.7-8.3C66.2,23.5,50,23.5,47.5,23.5z M65.4,31.8h16.1l6.1-8.3l-16.1,0C71.5,23.5,65.4,31.8,65.4,31.8z M107,7
	l-6.2,8.4h-7.2L99.8,7H83.7L72.9,21.6h39.5L123.1,7H107z M88.7,31.8h16.1l6.1-8.3H94.8C94.8,23.5,88.7,31.8,88.7,31.8z M0,26.8v1.8
	h22.5l1.3-1.8H0z M26.2,23.5H0v1.8h24.9L26.2,23.5z M0,31.8h20.1l1.3-1.8H0V31.8z M152.1,28.5h23.7v-1.8h-22.4L152.1,28.5z
	 M149.7,31.8h26.1v-1.8H151L149.7,31.8z M155.8,23.5l-1.3,1.8h21.3v-1.8L155.8,23.5z M134.7,21.6L145.4,7h-17.1
	c0,0-10.8,14.7-10.8,14.7H134.7z M116.2,23.5c0,0-1.2,1.6-1.8,2.4c-2,2.7-0.2,5.9,6.4,5.9c7.6,0,25.9,0,25.9,0l6.1-8.3L116.2,23.5
	L116.2,23.5z"/>
</svg>
