<?xml version="1.0" encoding="utf-8"?>
<!-- Generator: Adobe Illustrator 25.4.7, SVG Export Plug-In . SVG Version: 6.00 Build 0)  -->
<svg version="1.1" id="Layer_1" xmlns="http://www.w3.org/2000/svg" xmlns:xlink="http://www.w3.org/1999/xlink" x="0px" y="0px"
	 viewBox="0 0 1945 504" style="enable-background:new 0 0 1945 504;" xml:space="preserve">
<style type="text/css">
	.st0{fill:#ffffff;}
	.st1{fill:#0079BE;}
</style>
<g id="__x0023_Layer_x0020_1">
	<g id="XMLID_00000085940403128891462340000008816753750134399628_">
		<g>
			<path class="st0" d="M1470.6,326.1c5.2,0,10.7,0.7,10.7,8.2v75.6c0,7.5-5.4,8.2-10.7,8.2h-2v4.4c5.6,0,14.1-0.6,21.2-0.6
				c7.2,0,15.8,0.6,22.8,0.6v-4.4h-2c-5.2,0-10.7-0.7-10.7-8.2v-75.6c0-7.5,5.5-8.2,10.7-8.2h2v-4.3c-6.8,0-15.4,0.6-22.7,0.6
				c-7.1,0-15.7-0.6-21.3-0.6v4.3H1470.6z M1489.8,422.5c-7.1,0-15.6,0.6-21.2,0.6h-0.6v-0.6v-4.4v-0.6h0.6h2c5.2-0.1,10-0.5,10-7.6
				v-75.6c0-7-4.8-7.5-10-7.6h-2.6v-0.6v-4.9h0.6c5.6,0,14.3,0.5,21.3,0.5c7.2,0,15.8-0.5,22.7-0.5h0.6v0.6v4.9h-0.6h-2
				c-5.3,0.1-10,0.6-10.1,7.6v75.6c0.1,7.1,4.8,7.5,10.1,7.6h2.6v0.6v5h-0.6C1505.6,423.1,1497,422.5,1489.8,422.5z"/>
			<path class="st0" d="M1650.5,401.3c0,12.5,2.8,17.5,14.2,17.5h1.9v3c-6,0-12-0.5-18-0.5c-6.3,0-12.8,0.5-19,0.5v-3l1.4,0
				c10.4,0,13.6-7.4,13.6-18.9v-60.8c0-8.5-7-13.6-13.7-13.6h-1.3v-3c5.2,0,10.7,0.6,16,0.6c4.4,0,8.6-0.6,12.8-0.6l64.2,72.5
				l0.5-0.5l0.3-0.3l0.2-54.5c0-12.2-8.7-14.2-13.2-14.2h-2.5v-3c6.5,0,13,0.6,19.5,0.6c5.8,0,11.5-0.5,17.2-0.6v3h-1.6
				c-6.2,0.1-13.5,1.6-13.5,19v65.6c0,4.8,0.1,9.6,0.7,13.9h-4.7l-74.9-83.8V401.3z"/>
			<path class="st0" d="M758.3,322.4c-5.5,0-11.1-0.6-16.6-0.6v4.3h1.9c6.5,0,13.1,4.9,13.1,13v60.8c0,11.5-3,18.3-13,18.3h-2v4.4
				c6.5,0,13.1-0.6,19.6-0.6c6.2,0,12.4,0.6,18.6,0.6v-4.4h-2.4c-11.1,0-13.5-4.3-13.5-16.9v-59.4l74.2,82.8h5.5
				c-0.7-4.5-0.9-9.5-0.9-14.5v-65.6c0-17.2,6.8-18.3,12.9-18.3h2.2v-4.3c-5.9,0-11.8,0.6-17.8,0.6c-6.8,0-13.4-0.6-20.2-0.6v4.3
				h3.2c4.3,0,12.5,1.7,12.5,13.6v54.1l-0.3,0.3h0l-64.2-72.2C766.8,321.8,762.7,322.4,758.3,322.4z M743.6,326.8h-2.5v-0.6v-4.9
				h0.6c5.5,0,11.2,0.5,16.6,0.5c4.3,0,8.5-0.5,13.3-0.3l63.4,71.4v-53c-0.1-11.5-7.7-12.9-11.9-13h-3.8v-0.6v-4.9h0.6
				c6.8,0,13.5,0.5,20.2,0.5c5.9,0,11.8-0.5,17.7-0.5h0.6v0.6v4.9h-0.6h-2.1c-6,0.2-12.1,0.7-12.2,17.7v65.6c0,5,0.2,10.1,0.9,14.5
				l0.1,0.7h-0.8l-5.9-0.2l-73.2-81.6v57.8c0.2,12.5,2.1,16.1,12.9,16.2h3.1v0.6v5H780c-6.2,0-12.5-0.6-18.6-0.6
				c-6.5,0-13.1,0.6-19.6,0.6h-0.6v-0.6v-5h0.6h2c9.5,0,12.2-6.2,12.4-17.7v-60.7C756.1,331.4,749.8,326.8,743.6,326.8z"/>
			<path class="st0" d="M758.3,323c4.4,0,8.6-0.6,12.8-0.6l64.1,72.5l0.5-0.4l0.3-0.3l0.2-54.5c0-12.2-8.8-14.2-13.2-14.2h-2.5
				l0-3.1c6.5,0,13,0.6,19.5,0.6c5.7,0,11.4-0.5,17.1-0.6v3.1h-1.5c-6.2,0-13.5,1.6-13.5,18.9v65.6c0,4.8,0.1,9.6,0.8,13.9h-4.8
				l-74.9-83.8v61.1c0,12.5,2.8,17.5,14.2,17.5h1.8v3.1c-6-0.1-11.9-0.6-18-0.6c-6.3,0-12.7,0.5-19,0.6v-3.1l1.4,0
				c10.4,0,13.6-7.4,13.6-18.9v-60.7c0-8.4-7-13.6-13.7-13.6h-1.3l0-3.1C747.6,322.5,753,323,758.3,323z"/>
			<path class="st0" d="M713.7,323c7,0,15.4-0.6,22-0.6v3.1h-1.4c-5.1,0-11.3,0.9-11.3,8.9v75.6c0,8,6.2,8.9,11.3,8.9h1.4v3.1
				c-6.8,0-15.2-0.6-22.2-0.6c-6.8,0-15,0.5-20.6,0.6v-3.1h1.4c5.1,0,11.3-0.9,11.3-8.9v-75.6c0-8-6.2-8.9-11.3-8.9h-1.4v-3.1
				C698.5,322.5,706.8,323,713.7,323z"/>
			<path class="st0" d="M1630.8,326.8h-2.5v-0.6v-4.9h0.6c5.5,0,11.2,0.5,16.6,0.5c4.3,0,8.4-0.5,13.3-0.3l63.4,71.4v-53
				c0-11.5-7.7-12.9-11.9-13h-3.8v-0.6v-4.9h0.7c6.8,0,13.4,0.5,20.1,0.5c5.9,0,11.8-0.5,17.8-0.5h0.6v0.6v4.9h-0.6h-2.2
				c-5.9,0.2-12.1,0.7-12.2,17.7v65.6c0,5,0.1,10.1,0.8,14.5l0.1,0.7h-0.7l-6-0.2l-73.2-81.6v57.8c0.2,12.5,2.1,16.1,12.9,16.2h3.1
				v0.6v5h-0.6c-6.2,0-12.4-0.6-18.6-0.6c-6.5,0-13.1,0.6-19.6,0.6h-0.6v-0.6v-5h0.6h2c9.5,0,12.2-6.1,12.4-17.6v-60.8
				C1643.3,331.4,1637,326.8,1630.8,326.8z M1628.9,422.5c6.5,0,13.1-0.6,19.6-0.6c6.2,0,12.4,0.6,18.6,0.6v-4.4h-2.5
				c-11.1,0-13.5-4.3-13.5-16.9v-59.4l74.3,82.8h5.5c-0.7-4.5-0.9-9.5-0.9-14.5v-65.6c0-17.2,6.8-18.3,12.8-18.3h2.2v-4.3
				c-5.9,0-11.8,0.6-17.8,0.6c-6.8,0-13.4-0.6-20.2-0.6v4.3h3.1c4.3,0,12.6,1.7,12.6,13.6v54.1l-0.2,0.1l-0.1,0.1l-64.2-72.2
				c-4.3,0-8.5,0.6-12.8,0.6c-5.5,0-11.1-0.6-16.6-0.6v4.3h1.9c6.5,0,13.1,4.9,13.1,13v60.8c0,11.5-3,18.3-13,18.3h-2V422.5z"/>
			<path class="st0" d="M1880.7,408.4c0,6.2,4.5,8.2,9.2,8.7c2.6,0.2,5.3,0.3,8.1,0.3c3.5,0,7.3-0.2,11.1-0.6
				c6.2-0.8,11.6-4.3,14.3-8c2.3-3.1,3.6-7,4.4-10.2h3c-1.6,7.8-3.4,15.4-5.1,23.3c-12.5,0-25-0.5-37.5-0.5s-25,0.5-37.5,0.5v-3h1.4
				c5.2,0,11.4-1,11.4-10.3v-74.1c0-7.9-6.3-8.8-11.4-8.8h-1.4v-3.1c7.4,0,14.7,0.6,22.2,0.6c7.2,0,14.2-0.5,21.3-0.6v3.1h-3
				c-5.4,0-10.5,0.4-10.5,8.4V408.4z"/>
			<path class="st0" d="M1801.6,378.2l-12.5-38.6l-12.7,38.6H1801.6z M1789.3,338l13.3,40.8h-27L1789,338l0-0.1H1789.3z"/>
			<path class="st0" d="M1160,326.1c6.5,0,13.1,4.9,13.1,13v60.8c0,11.5-3,18.3-13,18.3h-2v4.4c6.5,0,13.1-0.6,19.6-0.6
				c6.2,0,12.4,0.6,18.6,0.6v-4.4h-2.4c-11.1,0-13.6-4.3-13.6-16.9v-59.4l74.3,82.8h5.5c-0.7-4.5-0.8-9.5-0.8-14.5v-65.6
				c0-17.2,6.8-18.3,12.8-18.3h2.2v-4.3c-5.9,0-11.8,0.6-17.8,0.6c-6.8,0-13.4-0.6-20.2-0.6v4.3h3.2c4.3,0,12.5,1.7,12.5,13.6v54.1
				l-0.2,0.2l-0.1,0.1l-64.2-72.2c-4.3,0-8.5,0.6-12.8,0.6c-5.5,0-11.1-0.6-16.6-0.6v4.3H1160z M1157.5,423.1v-0.6v-5h0.7h2
				c9.5,0,12.2-6.2,12.3-17.7v-60.7c0-7.7-6.3-12.3-12.5-12.4h-2.5v-0.6v-5h0.7c5.5,0,11.1,0.6,16.6,0.6c4.2,0,8.4-0.6,13.3-0.4
				l63.4,71.4v-53.1c0-11.5-7.7-12.9-11.9-12.9h-3.8v-0.6v-5h0.6c6.8,0,13.5,0.6,20.2,0.6c5.9,0,11.8-0.6,17.7-0.6h0.6v0.7v4.9h-0.6
				h-2.1c-6,0.2-12.1,0.7-12.2,17.7v65.6c0,5,0.1,10,0.9,14.5l0.1,0.7h-0.7l-5.9-0.2l-73.2-81.6v57.8c0.2,12.6,2.1,16.1,13,16.2h3
				v0.6v5h-0.6c-6.2,0-12.4-0.6-18.6-0.6c-6.4,0-13.1,0.6-19.6,0.6H1157.5z"/>
			<path class="st0" d="M835,393.8L835,393.8l-0.1-0.1L835,393.8z M757.4,399.9c0,11.5-3.2,18.9-13.6,18.9l-1.4,0v3.1
				c6.2-0.1,12.7-0.6,19-0.6c6,0,12,0.5,18,0.6v-3.1h-1.8c-11.3,0-14.2-5-14.2-17.5v-61.1l74.9,83.8h4.8c-0.7-4.3-0.8-9.1-0.8-13.9
				v-65.6c0-17.3,7.2-18.9,13.5-18.9h1.5v-3.1c-5.7,0-11.4,0.6-17.1,0.6c-6.6,0-13-0.5-19.5-0.6l0,3.1h2.5c4.4,0,13.2,2,13.2,14.2
				l-0.2,54.5l-0.3,0.3l-0.5,0.4l-64.1-72.5c-4.3,0-8.5,0.6-12.8,0.6c-5.3,0-10.7-0.5-15.9-0.6l0,3.1h1.3c6.8,0,13.7,5.2,13.7,13.6
				V399.9z M741.8,321.8c5.5,0,11.1,0.6,16.6,0.6c4.3,0,8.5-0.6,12.8-0.6l64.2,72.2v0l0,0l0.3-0.3v-54.1c0-11.8-8.2-13.6-12.5-13.6
				h-3.2v-4.3c6.8,0,13.4,0.6,20.2,0.6c5.9,0,11.8-0.6,17.8-0.6v4.3h-2.2c-6.1,0-12.9,1.2-12.9,18.3v65.6c0,5,0.2,10.1,0.9,14.5
				h-5.5L764,341.9v59.4c0,12.5,2.4,16.9,13.5,16.9h2.4v4.4c-6.2,0-12.4-0.6-18.6-0.6c-6.5,0-13.1,0.6-19.6,0.6v-4.4h2
				c10,0,13-6.8,13-18.3v-60.8c0-8.1-6.7-13-13.1-13h-1.9V321.8z"/>
			<path class="st0" d="M713.5,422.5c-7,0-15.5,0.6-21.2,0.6h-0.6v-0.6v-4.3v-0.6h0.6h2c5.2-0.1,10-0.5,10-7.6v-75.6
				c0-7-4.8-7.5-10-7.6h-2.6v-0.6v-5h0.6c5.7,0,14.3,0.6,21.4,0.6c7.2,0,15.8-0.6,22.6-0.6h0.6v0.7v4.9h-0.6h-2
				c-5.2,0.1-10,0.6-10,7.6v75.6c0,7,4.8,7.5,10,7.6h2.7v0.6v5h-0.6C729.3,423.1,720.7,422.5,713.5,422.5z M692.3,418.1v4.4
				c5.6,0,14.1-0.6,21.2-0.6c7.2,0,15.9,0.6,22.8,0.6v-4.4h-2c-5.2,0-10.7-0.7-10.7-8.2v-75.6c0-7.5,5.5-8.2,10.7-8.2h2v-4.3
				c-6.8,0-15.4,0.6-22.6,0.6c-7.1,0-15.7-0.6-21.4-0.6v4.3h2c5.2,0,10.7,0.7,10.7,8.2v75.6c0,7.5-5.5,8.2-10.7,8.2H692.3z"/>
			<path class="st0" d="M864.3,317.6c0,4.2-0.3,8.2-0.9,12.2c-0.4,4.2-1.2,8.2-1.7,12.3h4.3c2.2-10.5,2.6-13.1,13.4-13.1h23.7v77
				c0,11.4-4,12.1-12,12.1h-2.8v4.4c5.6,0,15.7-0.6,24.4-0.6c7.8,0,17.9,0.6,23.5,0.6v-4.4h-2.8c-6.9,0-12-1.3-12-12.4V329h23.7
				c9.7,0,10.4,8.5,10.7,13.9l4.3-1.6c0-3.9,0-7.8,0.3-11.7c0.4-3.9,1-7.8,1.6-11.7l-3.4-0.6c-0.3,4.3-3.9,4.5-7.8,4.5h-74.4
				c-3.9,0-7.5,0.1-8.7-4.2H864.3z M861.1,342c0.6-4,1.3-8.1,1.7-12.3c0.6-4,0.9-8,0.9-12.1V317h0.6h4l0.1,0.4
				c1,3.6,3.7,3.7,7.3,3.7h0.8h74.4c4-0.1,6.9-0.1,7.2-3.9l0.1-0.7l0.6,0.1l4.1,0.6l-0.1,0.6c-0.6,3.9-1.2,7.8-1.6,11.6
				c-0.3,3.8-0.3,7.7-0.3,11.6v0.5l-0.4,0.2l-5.1,1.9l0-0.8c-0.4-5.4-1-13.3-10.1-13.3h-23v76.1c0.1,10.9,4.5,11.6,11.3,11.8h3.4
				v0.6v5h-0.6c-5.7,0-15.8-0.6-23.5-0.6c-8.6,0-18.7,0.6-24.4,0.6h-0.6v-0.6v-5h0.6h2.8c7.9-0.2,11.1-0.3,11.3-11.5v-76.4h-23
				c-10.7,0.2-10.4,2-12.8,12.7l-0.1,0.5H866h-5L861.1,342z"/>
			<path class="st0" d="M1289.2,421.9c-5.2,0-10.3,0.3-15.6,0.6v-4.4h0.9c5.6,0,10.4-3.3,12.5-9.4l23.1-66.2
				c1.9-5.3,4.5-12.5,5.3-17.9c4.6-1.6,10.4-4.5,13.1-6.2c0.4-0.1,0.7-0.3,1.1-0.3c0.4,0,0.7,0,1,0.4c0.4,1.1,0.8,2.5,1.3,3.6
				l26.5,75.4c1.7,5,3.4,10.4,5.3,14.7c1.7,4,4.8,5.8,9.6,5.8h0.8v4.4c-6.5-0.3-13-0.6-19.9-0.6c-7.1,0-14.3,0.3-21.7,0.6v-4.4h1.6
				c3.3,0,9-0.6,9-4.2c0-1.9-1.3-5.8-2.9-10.4l-5.6-16.7h-32.7l-4.6,15v0l-0.6-0.2l4.8-15.4h33.6l5.8,17.1c1.6,4.6,2.9,8.5,2.9,10.6
				c-0.2,4.4-6.3,4.7-9.6,4.8h-1v3c7.1-0.2,14.1-0.5,21-0.5c6.7,0,13,0.3,19.2,0.5v-3h-0.2c-4.9,0-8.4-1.9-10.1-6.2
				c-1.9-4.4-3.6-9.7-5.3-14.8l-26.5-75.4c-0.4-1.1-0.9-2.5-1.2-3.5c-0.1-0.1-0.1-0.1-0.2-0.1h-0.3c-0.3,0-0.5,0.1-0.8,0.2
				c-2.8,1.8-8.6,4.6-12.8,5.8c-0.9,5.5-3.5,12.7-5.4,18l-23.1,66.2c-2.2,6.3-7.2,9.8-13.1,9.8h-0.2v3c4.9-0.2,9.9-0.5,15-0.5
				c5.6,0,11.3,0.3,16.8,0.5v-3h-0.9c-4.7-0.1-11.2-0.6-11.4-5.7c0-2.9,1.8-6.6,3.2-11.4l0.6,0.2c-1.5,4.9-3.2,8.7-3.2,11.2
				c0,4.3,6.1,5,10.8,5h1.6v4.4C1300.9,422.2,1295,421.9,1289.2,421.9z"/>
			<path class="st0" d="M1289.2,422.5c-5.2,0-10.4,0.3-15.5,0.6l-0.7,0v-0.6v-5h0.6h0.9c5.4,0,9.8-3.1,11.9-8.9l23.1-66.2
				c1.9-5.4,4.5-12.5,5.7-18.3c4.5-1.5,10.3-4.4,13.1-6.2c0.4-0.1,0.8-0.3,1.4-0.3c0.4,0,1.1,0.1,1.6,0.8c0.4,1.2,0.9,2.5,1.3,3.6
				l26.6,75.4c1.7,5.1,3.4,10.4,5.3,14.6c1.7,3.9,4.3,5.4,9,5.4h1.5v0.6v5l-0.7,0c-6.5-0.3-13-0.6-19.8-0.6
				c-7.1,0-14.2,0.3-21.6,0.6l-0.7,0v-0.6v-5h0.6h1.6c3.3,0,8.3-0.8,8.3-3.5c0-1.6-1.3-5.6-2.8-10.2l-5.5-16.3h-31.8L1298,402
				c-1.5,4.9-3.2,8.7-3.2,11.1c0,3.5,5.4,4.4,10.2,4.4h2.2v0.6v5l-0.7,0C1300.9,422.8,1295,422.5,1289.2,422.5z M1274.5,418.1h-0.9
				v4.4c5.2-0.3,10.4-0.6,15.6-0.6c5.8,0,11.7,0.3,17.5,0.6v-4.4h-1.6c-4.7,0-10.8-0.7-10.8-5c0-2.6,1.7-6.3,3.2-11.2v0l4.6-15h32.7
				l5.6,16.7c1.6,4.6,2.9,8.5,2.9,10.4c0,3.6-5.6,4.2-9,4.2h-1.6v4.4c7.3-0.3,14.6-0.6,21.7-0.6c6.9,0,13.4,0.3,19.9,0.6v-4.4h-0.8
				c-4.8,0-7.8-1.7-9.6-5.8c-1.9-4.3-3.6-9.7-5.3-14.7l-26.5-75.4c-0.5-1.1-0.9-2.5-1.3-3.6c-0.3-0.4-0.6-0.4-1-0.4
				c-0.4,0-0.7,0.1-1.1,0.3c-2.7,1.7-8.5,4.6-13.1,6.2c-0.9,5.4-3.5,12.6-5.3,17.9l-23.1,66.2
				C1284.9,414.8,1280.1,418.1,1274.5,418.1z"/>
			<path class="st0" d="M1570.1,319.7c-30,0-53.2,23.2-53.2,53.2c0,31,23.3,51.8,53.9,51.8c30.7,0,54.5-22,54.5-55.2
				C1625.3,338.7,1600.8,319.7,1570.1,319.7L1570.1,319.7z M1570.8,425.3c-30.8-0.1-54.5-21-54.6-52.4c0.1-30.3,23.5-53.8,53.8-53.9
				c31,0,55.8,19.3,55.9,50.4C1625.9,402.9,1601.8,425.2,1570.8,425.3z"/>
			<path class="st0" d="M705.6,409.9c0,8-6.2,8.9-11.3,8.9h-1.4v3.1c5.6-0.1,13.7-0.6,20.6-0.6c7,0,15.4,0.5,22.2,0.6v-3.1h-1.4
				c-5.1,0-11.3-0.9-11.3-8.9v-75.6c0-8,6.2-8.9,11.3-8.9h1.4v-3.1c-6.7,0-15,0.6-22,0.6c-6.8,0-15.1-0.5-20.7-0.6v3.1h1.4
				c5.1,0,11.3,0.9,11.3,8.9V409.9z M713.5,421.9c-7.1,0-15.6,0.6-21.2,0.6v-4.4h2c5.2,0,10.7-0.7,10.7-8.2v-75.6
				c0-7.5-5.5-8.2-10.7-8.2h-2v-4.3c5.6,0,14.3,0.6,21.4,0.6c7.2,0,15.8-0.6,22.6-0.6v4.3h-2c-5.2,0-10.7,0.7-10.7,8.2v75.6
				c0,7.5,5.5,8.2,10.7,8.2h2v4.4C729.4,422.5,720.7,421.9,713.5,421.9z"/>
			<path class="st0" d="M988.1,145.5v17.2c15.1-10.9,28.1-19.9,45.9-19.9c22.5,0,30.4,16.4,30.4,37.1v68.4c0,8.8,5.8,8.8,13.3,8.8
				h4.8v6.9c-9.3,0-18.6-0.5-28.1-0.5c-9.5,0-19.1,0.3-28.6,0.5v-6.9h4.8c7.4,0,12.7,0,12.7-8.8v-68.6c0-15.1-9.2-22.5-24.4-22.5
				c-8.5,0-22,6.9-30.8,12.7v78.4c0,8.8,5.9,8.8,13.3,8.8h4.8v6.9c-9.3,0-18.6-0.5-28.1-0.5c-9.5,0-19.1,0.3-28.6,0.5v-6.9h4.8
				c7.4,0,12.7,0,12.7-8.8v-70.2c0-9.8-2.9-12.4-15.4-17.5v-5c11.4-3.7,22.2-7.2,35-12.7C987.3,142.9,988.1,143.4,988.1,145.5z"/>
			<path class="st0" d="M1086,371.2h0.6h7.1c14.5,0,22.8-5.9,22.8-23.1c0-13.1-8.6-21.7-21.7-21.7c-4.4,0-6.3,0.4-8.3,0.6l-0.6,0.1
				V371.2z M1057.9,418.8c5.4,0,10.9-2.6,10.9-8.4v-73.3c0-10.8-6.4-11.6-10.9-11.6h-2v-3.1c4.7,0,13.3,0.6,21.7,0.6
				c8.7,0,15.6-0.6,23.2-0.6c18.1,0.1,33.7,4.7,33.7,24.7c0,12.7-8.4,20.4-19.6,24.8l-0.7,0.3l25.1,37.5c3.9,6,7.1,8,13.9,8.9v3.2
				c-4.5-0.1-8.9-0.6-13.5-0.6c-4.5,0-9.1,0.6-13.5,0.6c-10.6-14.3-20.1-29.9-29.5-46.4l-0.2-0.3h-9.9h-0.6v31.5
				c0,11.4,5.9,12.2,12.4,12.2h2v3c-8,0-16.1-0.6-24.2-0.6c-6.8,0-13.3,0.5-20.3,0.6v-3H1057.9z"/>
			<path class="st0" d="M1924.5,327.6c0-1.6-0.2-2.1-2.1-2v-0.8h6.7v1h-1.7v7.1h1.7v1h-1.7v5.1c0,1,0.4,0.9,2.2,1.2v0.8h-7.3v-0.8
				c1.9-0.3,2.2-0.2,2.2-1.4V327.6z"/>
			<path class="st0" d="M1799.7,319c0.3-0.1,0.5-0.2,0.8-0.2h0.3c0.1,0,0.1,0,0.2,0.2c0.4,1,0.8,2.3,1.2,3.4l26.5,75.4
				c1.7,5,3.4,10.4,5.3,14.8c1.8,4.2,5.2,6.2,10.1,6.2h0.2l0,3c-6.3-0.2-12.6-0.5-19.3-0.5c-6.9,0-13.9,0.3-21,0.5v-3h1
				c3.3-0.1,9.3-0.4,9.6-4.8c0-2.1-1.3-6-2.9-10.6l-5.8-17.1h-33.6l-4.8,15.4l0.4,0.1l-0.4-0.1c-1.4,4.9-3.2,8.6-3.2,11.4
				c0.2,5.1,6.8,5.6,11.4,5.7h1v3c-5.6-0.2-11.2-0.5-16.8-0.5c-5,0-10,0.3-14.9,0.5v-3h0.2c5.9,0,10.9-3.6,13.1-9.8l23.1-66.2
				c1.9-5.4,4.5-12.5,5.4-18C1791.1,323.7,1796.9,320.8,1799.7,319z M1803.3,379.4l-13.6-42.1h-0.5h-0.3h-0.4l-13.8,42.1H1803.3z"/>
			<polygon class="st0" points="835.4,394.1 835.4,394.1 835.4,394.1 			"/>
			<path class="st0" d="M1102.6,206.3c1.6,25.2,17.8,45.8,38.9,45.8c14.6,0,26-7.9,35.8-17.8l3.7,3.7c-12.2,16.2-27.3,29.9-49,29.9
				c-42.2,0-50.6-40.8-50.6-57.8c0-52,35-67.3,53.5-67.3c21.5,0,44.6,13.5,44.8,41.6c0,1.6,0,3.2-0.2,4.8l-2.4,1.6h-74.5
				C1102.1,193.3,1102.1,197.2,1102.6,206.3z M1156.9,175.8c0-13.5-8.2-24.4-23.1-24.4c-16.1,0-27.3,11.9-30.5,31h46.1
				C1156.1,182.4,1156.9,178.9,1156.9,175.8z"/>
			<path class="st0" d="M863.4,329.9c0.6-4,0.9-8.1,0.9-12.2h3.5c1.2,4.3,4.8,4.2,8.7,4.2h74.4c3.9,0,7.5-0.1,7.8-4.5l3.4,0.6
				c-0.6,3.9-1.1,7.8-1.6,11.7c-0.3,3.9-0.3,7.8-0.3,11.7l-4.3,1.6c-0.3-5.3-1-13.9-10.7-13.9h-23.7v76.7c0,11.1,5.1,12.4,12,12.4
				h2.8v4.4c-5.6,0-15.7-0.6-23.5-0.6c-8.6,0-18.8,0.6-24.4,0.6v-4.4h2.8c7.9,0,12-0.7,12-12.1v-77h-23.7
				c-10.8,0-11.2,2.6-13.4,13.1h-4.3C862.3,338.1,863,334.1,863.4,329.9z M864.9,318.3c0,4-0.3,7.9-0.9,11.7
				c-0.4,4-1.1,7.8-1.6,11.6h3.1c1.9-10.1,3.1-13.3,13.9-13.2h24.3v77.7c0,11.6-4.7,12.7-12.6,12.8H889v3c5.7,0,15.4-0.5,23.8-0.5
				c7.5,0,17.2,0.5,22.9,0.5v-3h-2.1c-7,0-12.6-1.7-12.6-13v-77.4h24.3c9.7,0,10.9,8.3,11.3,13.6l3.1-1.1c0-3.8,0-7.5,0.3-11.3
				c0.4-3.7,0.9-7.4,1.5-11.1l-2.2-0.4c-0.7,4.2-4.7,4.4-8.3,4.4h-74.4h-0.8c-3.4,0-7.1-0.2-8.4-4.2H864.9z"/>
			<path class="st0" d="M1929.8,345.3c3.4,0,6.4-1.5,8.5-3.7c2.2-2.3,3.5-5.3,3.5-8.6c0-6.5-5.1-12.4-12-12.4c-3.6,0-6.8,1.6-9,4.2
				c-1.9,2.2-3.1,5.2-3.1,8.2c0,3.1,1.2,6,3.1,8.2C1923,343.6,1926.2,345.3,1929.8,345.3z M1929.8,317.7c8.7,0,15.2,6.7,15.2,15.2
				c0,8.5-6.5,15.1-15.2,15.1c-8.7,0-15.2-6.6-15.2-15.1C1914.6,324.4,1921.1,317.7,1929.8,317.7z"/>
			<path class="st0" d="M1572.3,418.3c-23.4,0-35.2-24.7-35.2-50.5c0-19.3,7.5-41.8,32.7-41.8c23.9,0,35.3,25.5,35.3,46.6
				C1605.1,393.6,1600.2,418.3,1572.3,418.3z M1537.7,367.8c0,25.7,11.7,49.8,34.6,49.9c27.4,0,32.2-24.1,32.2-45.1
				c0-20.9-11.3-45.9-34.7-46C1545.1,326.7,1537.7,348.6,1537.7,367.8z"/>
			<path class="st0" d="M913.4,102.1c-6.9,0-13-6.4-13-13.2c0-6.6,6.4-12.8,13-12.8c6.9,0,13,5.6,13,12.8
				C926.4,96,920.5,102.1,913.4,102.1z"/>
			<path class="st0" d="M1289.2,421.3c-5,0-10,0.3-15,0.5v-3h0.2c5.9,0,10.9-3.6,13.1-9.8l23.1-66.2c1.9-5.3,4.5-12.5,5.4-18
				c4.3-1.1,10.1-4,12.8-5.8c0.4-0.1,0.5-0.2,0.8-0.2h0.3c0.1,0,0.1,0,0.2,0.1c0.4,1,0.8,2.3,1.2,3.5l26.5,75.4
				c1.7,5.1,3.5,10.4,5.3,14.8c1.8,4.2,5.2,6.2,10.1,6.2h0.2v3c-6.3-0.2-12.5-0.5-19.2-0.5c-6.9,0-13.9,0.3-21,0.5v-3h1
				c3.3-0.1,9.4-0.4,9.6-4.8c0-2.1-1.3-6-2.9-10.6l-5.8-17.1h-33.6l-4.8,15.4l0.6,0.2l-0.6-0.2c-1.4,4.9-3.2,8.6-3.2,11.4
				c0.2,5.1,6.7,5.6,11.4,5.7h0.9v3C1300.5,421.6,1294.8,421.3,1289.2,421.3z M1332.6,379.4l-13.7-42.1h-0.4h-0.3h-0.5l-13.8,42.1
				H1332.6z"/>
			<path class="st0" d="M1850.1,321.2c7.7,0,15.2,0.5,22.8,0.5c7.3,0,14.5-0.5,21.9-0.5h0.6v0.6v4.9h-0.6h-3.6
				c-5.6,0.2-9.1-0.1-9.2,7.2v74.4c0,5.4,3.6,6.8,8.1,7.4c2.5,0.2,5.2,0.3,8,0.3c3.5,0,7.2-0.2,10.9-0.6c5.9-0.7,10.9-4.1,13.4-7.5
				c2.2-3.1,3.5-7,4.4-10.2l0.1-0.5h0.5h5l-0.1,0.8c-1.6,8.2-3.6,16.3-5.4,24.5l-0.1,0.5h-0.5c-12.7,0-25.4-0.6-38.1-0.6
				c-12.7,0-25.4,0.6-38.1,0.6h-0.6v-0.6v-5h0.6h2c5.2-0.1,10.2-0.5,10.2-9v-74.1c-0.1-7-5-7.5-10.2-7.6h-2.6v-0.6v-4.9H1850.1z
				 M1850.1,326.1h2c5.2,0,10.9,0.7,10.9,8.2v74.1c0,9-5.6,9.6-10.9,9.6h-2v4.4c12.7,0,25.4-0.6,38.1-0.6c12.7,0,25.4,0.6,38.1,0.6
				c1.7-8.2,3.8-16.3,5.3-24.5h-4.2c-0.9,3.2-2.2,7.2-4.5,10.4c-2.6,3.6-7.8,7.1-13.8,7.8c-6.7,0.7-13.2,0.7-19.1,0.3
				c-4.6-0.6-8.6-2.3-8.6-8.1v-74.4c0-7.6,4.3-7.8,9.8-7.8h3.6v-4.3c-7.4,0-14.6,0.6-21.9,0.6c-7.6,0-15.1-0.6-22.8-0.6V326.1z"/>
			<path class="st0" d="M1465.1,167.5c0,53.6,38.2,92,79,92c26.2,0,48-18,53.3-45.9l6.1,1.6l-6.1,38.7
				c-11.1,6.9-41.1,14.1-58.6,14.1c-62,0-101.2-40-101.2-99.7c0-54.3,48.5-93.3,100.4-93.3c21.5,0,42.1,6.9,62.5,14.1l2.6,37.9h-6.6
				c-5-31-27-43.5-56.7-43.5C1509.4,83.5,1465.1,103.9,1465.1,167.5z"/>
			<path class="st0" d="M1287.9,227.2c3.5,17.5,14,32.3,33.4,32.3c15.6,0,21.4-9.5,21.4-18.8c0-31.3-57.8-21.2-57.8-63.9
				c0-14.8,11.9-33.9,41.1-33.9c8.5,0,19.9,2.4,30.2,7.7l1.9,27h-6.1c-2.6-16.7-11.9-26.2-28.9-26.2c-10.6,0-20.7,6.1-20.7,17.5
				c0,31,61.5,21.5,61.5,63.1c0,17.5-14.1,36.1-45.6,36.1c-10.6,0-23.1-3.7-32.3-9l-2.9-30.5L1287.9,227.2z"/>
			<path class="st0" d="M1649.6,61.5c1.6,0,2.1,1.6,2.1,3.7v183.1c0,8.8,5.8,8.8,13.2,8.8h4.5v6.9c-9,0-18.2-0.5-27.8-0.5
				c-9.5,0-19.1,0.3-28.9,0.5v-6.9h5c7.4,0,12.8,0,12.8-8.8V100.8c0-17.2-4-17.8-14.1-20.7v-4.2c10.6-3.4,21.7-8.2,27.3-11.4
				C1646.7,62.8,1648.8,61.5,1649.6,61.5z"/>
			<path class="st0" d="M978.7,334.4c-0.1-7-4.8-7.5-10-7.6h-2.6v-0.6v-4.9h0.6c8.8,0,23.8,0.5,35.9,0.5c12.1,0,27.1-0.5,36.9-0.5
				h0.7l0,0.6c-0.1,2.2-0.1,4.7-0.1,7.5c0,5,0.1,10.4,0.4,14.5l0,0.5l-0.5,0.1l-5.1,1.3l0-0.7c-0.9-9.4-2.1-16.2-17-16.3h-19.4
				l0,36.5h16.6c8.3-0.1,9.8-4.3,10.8-12.1l0.1-0.6h0.6h5l0,0.6c-0.3,5.6-0.5,11.2-0.5,16.9c0,5.5,0.2,10.9,0.5,16.4l0,0.5l-0.5,0.1
				l-5,1l-0.1-0.7c-1-8.8-1.1-13.6-10.6-13.7l-16.7,0v33c0,8.8,7.6,8.7,17,8.8c17.4-0.1,24.3-0.9,28.7-17.1l0.1-0.6l0.6,0.1l4.6,1.2
				l-0.1,0.6c-1.9,7.6-3.6,15.3-4.9,22.9l-0.1,0.5h-0.5c-9.3,0-25.8-0.6-38.8-0.6c-13,0-30.1,0.6-38.4,0.6h-0.6v-0.6v-4.4v-0.6h0.6
				h2c5.2-0.1,10-0.5,10-7.6V334.4z M968.7,326.1c5.2,0,10.7,0.7,10.7,8.2v75.6c0,7.5-5.5,8.2-10.7,8.2h-2v4.4
				c8.2,0,25.4-0.6,38.4-0.6c13,0,29.5,0.6,38.8,0.6c1.3-7.7,3-15.3,4.9-22.9l-4-1c-4.3,16.4-12,17.6-29.3,17.6
				c-9.2,0-17.6,0-17.6-9.4v-33.6h17.3c10,0,10.4,5.6,11.2,14.3l4.3-0.9c-0.3-5.5-0.4-11-0.4-16.4c0-5.6,0.2-11.2,0.4-16.9h-4.3
				c-0.8,7.8-2.7,12.7-11.4,12.7h-17.1v-37.8h20c15.1,0,16.9,7.5,17.6,16.9l4.3-1.2c-0.4-6.3-0.6-15.9-0.3-22.1
				c-9.8,0-24.8,0.6-36.9,0.6c-12.1,0-27.1-0.6-35.9-0.6v4.3H968.7z"/>
			<path class="st0" d="M1251.4,393.8L1251.4,393.8l-0.1-0.2L1251.4,393.8z M1158.2,321.8c5.5,0,11.1,0.6,16.6,0.6
				c4.3,0,8.5-0.6,12.8-0.6l64.2,72.2l0.1-0.1l0.2-0.2v-54.1c0-11.8-8.2-13.6-12.5-13.6h-3.2v-4.3c6.8,0,13.4,0.6,20.2,0.6
				c5.9,0,11.8-0.6,17.8-0.6v4.3h-2.2c-6.1,0-12.8,1.2-12.8,18.3v65.6c0,5,0.1,10.1,0.8,14.5h-5.5l-74.3-82.8v59.4
				c0,12.5,2.5,16.9,13.6,16.9h2.4v4.4c-6.2,0-12.4-0.6-18.6-0.6c-6.5,0-13.1,0.6-19.6,0.6v-4.4h2c10,0,13-6.8,13-18.3v-60.8
				c0-8.1-6.6-13-13.1-13h-1.9V321.8z M1160,325.5c6.8,0.1,13.7,5.2,13.7,13.6v60.7c0,11.6-3.3,19-13.6,19l-1.4,0v3
				c6.2,0,12.7-0.5,19-0.5c6.1,0,12,0.5,18,0.5v-3h-1.8c-11.4,0-14.2-5-14.2-17.5v-61l74.9,83.8h4.7c-0.6-4.3-0.8-9.1-0.8-13.9
				v-65.6c0-17.3,7.3-18.9,13.5-19h1.5v-3c-5.7,0-11.4,0.6-17.1,0.6c-6.6,0-13-0.5-19.6-0.6v3h2.6c4.4,0.1,13.2,2,13.2,14.2
				l-0.2,54.5l-0.3,0.3l-0.4,0.5l-64.2-72.5c-4.3,0-8.5,0.6-12.8,0.6c-5.3,0-10.7-0.5-16-0.6v3H1160z"/>
			<path class="st0" d="M1516.9,372.9c0-30,23.2-53.2,53.2-53.2h0c30.7,0,55.2,19.1,55.2,49.8c0,33.2-23.8,55.2-54.5,55.2
				C1540.2,424.7,1516.9,403.9,1516.9,372.9z M1517.5,372.9c0.1,30.7,23.1,51.1,53.4,51.1c30.4,0,53.8-21.8,53.9-54.6
				c0-30.3-24.2-49.1-54.7-49.1C1540.4,320.3,1517.5,343.2,1517.5,372.9z"/>
			<path class="st0" d="M1226.6,170.2h0.6c6.6-10.3,17.8-27.3,33.9-27.3c6.6,0,15.1,4.5,15.1,14.1c0,7.2-5,13.5-12.4,13.5
				c-8.2,0-8.2-6.4-17.5-6.4c-4.5,0-19.3,6.1-19.3,22v62.3c0,8.8,5.3,8.8,12.7,8.8h14.8v6.9c-14.6-0.3-25.7-0.5-37.1-0.5
				c-10.9,0-22,0.3-31.5,0.5v-6.9h7.2c7.4,0,12.7,0,12.7-8.8v-74.5c0-8.2-9.8-9.8-13.8-11.9v-4c19.3-8.2,30-15.1,32.4-15.1
				c1.6,0,2.3,0.8,2.3,3.5V170.2z"/>
			<path class="st0" d="M1331.7,378.8h-26.9l13.4-40.7l0-0.1h0.3L1331.7,378.8z M1318.3,339.5l-12.7,38.6h25.2L1318.3,339.5z"/>
			<path class="st0" d="M1789.3,338h-0.3l0,0.1l-13.4,40.8h27L1789.3,338z M1789.7,337.3l13.6,42.1h-28.7l13.8-42.1h0.4h0.3H1789.7z
				"/>
			<polygon class="st0" points="1722.6,393.9 1722.5,394.1 1722.5,394.1 			"/>
			<path class="st0" d="M1932,329.1c0-2.4-1.4-3.3-3-3.3v-1h1c2.7,0,5.1,1.3,5.1,4c0,2.3-1.5,3.9-3.6,4.6l2.5,3.5
				c1.2,1.6,2.5,3.1,3.4,3.6v0.5h-3c-1.4,0-2.7-3-5.5-7v-1h0.1C1931.1,333,1932,331.5,1932,329.1z"/>
			<path class="st0" d="M1786,324.1c4.5-1.6,10.3-4.5,13.1-6.2c0.4-0.1,0.8-0.3,1.4-0.3c0.4,0,1.1,0,1.6,0.8
				c0.4,1.1,0.8,2.4,1.3,3.6l26.5,75.4c1.7,5.1,3.4,10.4,5.3,14.7c1.7,3.8,4.3,5.3,8.9,5.4h1.5v0.6v5l-0.7,0
				c-6.5-0.3-13-0.6-19.9-0.6c-7,0-14.2,0.3-21.6,0.6l-0.6,0v-0.7v-5h0.6h1.6c3.4,0,8.3-0.8,8.3-3.5c0-1.6-1.3-5.6-2.9-10.2
				l-5.5-16.3h-31.8l-4.5,14.6c-1.4,4.9-3.2,8.7-3.1,11.1c0,3.5,5.4,4.4,10.2,4.4h2.2v0.6v5l-0.6,0c-5.8-0.3-11.7-0.6-17.4-0.6
				c-5.2,0-10.4,0.3-15.6,0.6l-0.6,0v-0.7v-5h0.6h0.8c5.4,0,9.9-3.1,12-9l23.1-66.2C1782.1,337,1784.7,329.8,1786,324.1z
				 M1799.4,318.5c-2.8,1.7-8.5,4.6-13.1,6.2c-0.8,5.4-3.5,12.6-5.3,17.9l-23.1,66.2c-2.1,6.1-6.9,9.4-12.6,9.4h-0.8v4.4
				c5.2-0.3,10.3-0.6,15.6-0.6c5.8,0,11.7,0.3,17.5,0.6v-4.4h-1.6c-4.7,0-10.8-0.7-10.8-5c0-2.6,1.8-6.3,3.2-11.2v0l4.6-15h32.7
				l5.6,16.7c1.6,4.6,2.9,8.5,2.9,10.4c0,3.6-5.7,4.2-9,4.2h-1.6v4.4c7.4-0.3,14.6-0.6,21.6-0.6c6.9,0,13.4,0.3,19.9,0.6v-4.4h-0.9
				c-4.7,0-7.8-1.7-9.5-5.8c-1.9-4.3-3.6-9.7-5.3-14.7l-26.5-75.4c-0.4-1.1-0.9-2.5-1.3-3.6c-0.3-0.4-0.6-0.4-1-0.4
				C1800.1,318.2,1799.8,318.3,1799.4,318.5z"/>
			<path class="st1" d="M24.1,251.5c0,127.4,103.2,230.7,230.6,230.7c127.4,0,230.6-103.3,230.7-230.7
				c0-127.4-103.3-230.7-230.7-230.7C127.3,20.9,24.1,124.1,24.1,251.5z M372.7,0c137.8-0.1,263.5,103.9,263.5,254.2
				c0,137.5-125.7,250.5-263.5,249.8H254.1C114.7,504.7,0,391.7,0,254.2C0,103.9,114.7-0.1,254.1,0H372.7z"/>
			<path class="st0" d="M867.3,318.3c1.3,4,5,4.2,8.4,4.2h0.8h74.4c3.6,0,7.7-0.2,8.3-4.4l2.2,0.4c-0.5,3.7-1.1,7.4-1.5,11.1
				c-0.3,3.8-0.3,7.6-0.3,11.3l-3.1,1.1c-0.3-5.4-1.6-13.6-11.3-13.6h-24.3v77.4c0,11.3,5.6,13,12.6,13h2.1v3
				c-5.7,0-15.3-0.5-22.9-0.5c-8.4,0-18.1,0.5-23.8,0.5v-3h2.1c7.9,0,12.6-1.2,12.6-12.8v-77.7h-24.3c-10.8-0.1-12,3.1-13.9,13.2
				h-3.1c0.5-3.8,1.2-7.6,1.6-11.6c0.6-3.8,0.8-7.7,0.9-11.7H867.3z"/>
			<path class="st0" d="M1786.2,324.7c4.6-1.6,10.4-4.5,13.1-6.2c0.4-0.1,0.7-0.3,1.1-0.3c0.4,0,0.7,0,1,0.4
				c0.4,1.1,0.9,2.5,1.3,3.6l26.5,75.4c1.7,5,3.4,10.4,5.3,14.7c1.7,4,4.8,5.8,9.5,5.8h0.9v4.4c-6.5-0.3-13-0.6-19.9-0.6
				c-7.1,0-14.3,0.3-21.6,0.6v-4.4h1.6c3.3,0,9-0.6,9-4.2c0-1.9-1.3-5.8-2.9-10.4l-5.6-16.7h-32.7l-4.6,15v0
				c-1.4,4.9-3.2,8.7-3.2,11.2c0,4.3,6.1,5,10.8,5h1.6v4.4c-5.8-0.3-11.7-0.6-17.5-0.6c-5.2,0-10.4,0.3-15.6,0.6v-4.4h0.8
				c5.7,0,10.4-3.3,12.6-9.4l23.1-66.2C1782.8,337.2,1785.4,330,1786.2,324.7z M1799.7,319c-2.8,1.8-8.6,4.6-12.9,5.8
				c-0.9,5.5-3.5,12.6-5.4,18l-23.1,66.2c-2.2,6.3-7.2,9.8-13.1,9.8h-0.2v3c5-0.2,9.9-0.5,14.9-0.5c5.6,0,11.3,0.3,16.8,0.5v-3h-1
				c-4.7-0.1-11.3-0.6-11.4-5.7c0-2.9,1.8-6.5,3.2-11.4l0.4,0.1l-0.4-0.1l4.8-15.4h33.6l5.8,17.1c1.6,4.6,2.9,8.5,2.9,10.6
				c-0.2,4.4-6.3,4.7-9.6,4.8h-1v3c7.1-0.3,14.2-0.5,21-0.5c6.7,0,13,0.3,19.3,0.5l0-3h-0.2c-4.9,0-8.3-1.9-10.1-6.2
				c-1.9-4.4-3.6-9.7-5.3-14.8l-26.5-75.4c-0.4-1.1-0.9-2.5-1.2-3.4c-0.1-0.2-0.1-0.2-0.2-0.2h-0.3
				C1800.2,318.8,1800,318.9,1799.7,319z"/>
			<path class="st0" d="M1835.7,234.1c0,10.1,9.5,27.1,27.3,27.1c28.4,0,40.3-27.9,40.3-51.4c0-28.6-21.7-52.5-42.4-52.5
				c-9.8,0-18,6.4-25.2,12.5V234.1z M1833.6,61.5c1.6,0,2.1,1.6,2.1,3.7V162c10.6-9,24.9-19.1,39.5-19.1c30.8,0,49.3,26.8,49.3,55.7
				c0,34.7-25.4,69.5-63.3,69.5c-19.6,0-29.9-6.4-36.8-9.3l-7.9,6.1l-5.6-2.9c2.3-15.6,3.7-31,3.7-47.2v-114
				c0-17.2-4-17.8-14.1-20.7v-4.2c10.6-3.4,21.7-8.2,27.3-11.4C1830.6,62.8,1832.7,61.5,1833.6,61.5z"/>
			<path class="st1" d="M307,115.1c54.9,21.1,93.8,74.2,93.9,136.5C400.8,313.9,361.9,367,307,388V115.1z"/>
			<path class="st0" d="M1481.9,409.9c0,8-6.2,8.9-11.3,8.9h-1.4v3c5.6-0.1,13.7-0.5,20.6-0.5c7,0,15.3,0.5,22.1,0.5v-3h-1.4
				c-5.2,0-11.3-0.9-11.3-8.9v-75.6c0-8,6.1-8.9,11.3-8.9h1.4v-3.1c-6.7,0-15,0.6-22,0.6c-6.8,0-15.1-0.5-20.7-0.6v3.1h1.4
				c5.1,0,11.3,0.9,11.3,8.9V409.9z M1470.6,418.1c5.2,0,10.7-0.7,10.7-8.2v-75.6c0-7.5-5.4-8.2-10.7-8.2h-2v-4.3
				c5.6,0,14.3,0.6,21.3,0.6c7.2,0,15.9-0.6,22.7-0.6v4.3h-2c-5.2,0-10.7,0.7-10.7,8.2v75.6c0,7.5,5.5,8.2,10.7,8.2h2v4.4
				c-6.9,0-15.6-0.6-22.8-0.6c-7.1,0-15.6,0.6-21.2,0.6v-4.4H1470.6z"/>
			<path class="st1" d="M202.4,115.1V388c-54.8-21.1-93.7-74.2-93.8-136.4C108.6,189.3,147.5,136.2,202.4,115.1z"/>
			<path class="st0" d="M1790.3,254.5c3.2,0,7.1-0.3,10.6-0.3v5.6c-11.4,1.1-33.1,6.6-38.2,8.2l-1.3-0.8v-21.4
				c-15.9,13-28.1,22.2-46.9,22.2c-14.3,0-29.2-9.3-29.2-31.5v-67.9c0-6.9-1-13.5-15.9-14.8v-5c9.6-0.3,30.7-1.9,34.2-1.9
				c2.9,0,2.9,1.9,2.9,7.7v68.4c0,8,0,30.8,23,30.8c9,0,20.9-6.9,32.1-16.1v-71.3c0-5.3-12.7-8.2-22.2-10.9v-4.8
				c23.8-1.6,38.7-3.7,41.3-3.7c2.2,0,2.2,1.9,2.2,4.8v97.8C1782.9,254.2,1785.8,254.5,1790.3,254.5z"/>
			<polygon class="st0" points="1251.4,393.7 1251.4,393.8 1251.3,393.6 			"/>
			<path class="st0" d="M1722.2,393.8L1722.2,393.8l-0.1-0.2L1722.2,393.8z M1630.8,325.5c6.8,0.1,13.7,5.2,13.7,13.6v60.8
				c0,11.5-3.2,18.9-13.6,18.9l-1.4,0v3c6.3,0,12.7-0.5,19-0.5c6,0,12,0.5,18,0.5v-3h-1.9c-11.3,0-14.2-5-14.2-17.5v-61.1l74.9,83.8
				h4.7c-0.6-4.3-0.7-9.1-0.7-13.9v-65.6c0-17.3,7.3-18.9,13.5-19h1.6v-3c-5.7,0-11.4,0.6-17.2,0.6c-6.6,0-13-0.5-19.5-0.6v3h2.5
				c4.5,0.1,13.2,2,13.2,14.2l-0.2,54.5l-0.3,0.3l-0.5,0.5l-64.2-72.5c-4.2,0-8.5,0.6-12.8,0.6c-5.3,0-10.7-0.5-16-0.6v3H1630.8z
				 M1628.9,418.1h2c10,0,13-6.8,13-18.3v-60.8c0-8.1-6.6-13-13.1-13h-1.9v-4.3c5.5,0,11.1,0.6,16.6,0.6c4.3,0,8.5-0.6,12.8-0.6
				l64.2,72.2v0l0.1-0.1l0.2-0.1v-54.1c0-11.8-8.2-13.6-12.6-13.6h-3.1v-4.3c6.8,0,13.4,0.6,20.2,0.6c5.9,0,11.8-0.6,17.8-0.6v4.3
				h-2.2c-6,0-12.8,1.2-12.8,18.3v65.6c0,5,0.1,10.1,0.9,14.5h-5.5l-74.3-82.8v59.4c0,12.5,2.4,16.9,13.5,16.9h2.5v4.4
				c-6.2,0-12.4-0.6-18.6-0.6c-6.5,0-13.1,0.6-19.6,0.6V418.1z"/>
			<polygon class="st0" points="835,393.7 835,393.8 834.9,393.6 			"/>
			<path class="st0" d="M1489.9,323c7,0,15.4-0.5,22-0.6v3.1h-1.4c-5.2,0-11.3,0.9-11.3,8.9v75.6c0,8,6.1,8.9,11.3,8.9h1.4v3
				c-6.8,0-15.2-0.5-22.1-0.5c-6.8,0-15,0.5-20.6,0.5v-3h1.4c5.1,0,11.3-0.9,11.3-8.9v-75.6c0-8-6.2-8.9-11.3-8.9h-1.4v-3.1
				C1474.8,322.5,1483.1,323,1489.9,323z"/>
			<path class="st0" d="M1368.5,318.2c1.3,4.1,5,4.2,8.4,4.2h0.7h74.4c3.6,0.1,7.7-0.2,8.3-4.4l2.2,0.4c-0.5,3.7-1.1,7.4-1.5,11.1
				c-0.3,3.8-0.3,7.5-0.3,11.3l-3.2,1.1c-0.3-5.4-1.5-13.6-11.2-13.6h-24.3v77.4c0,11.3,5.6,13,12.6,13h2.1v3.1
				c-5.7-0.1-15.3-0.6-22.9-0.6c-8.4,0-18.1,0.5-23.8,0.6v-3.1h2.1c7.9,0,12.6-1.2,12.6-12.7v-77.7h-24.3
				c-10.8-0.1-12,3.1-13.9,13.2h-3.1c0.5-3.8,1.2-7.6,1.6-11.6c0.6-3.8,0.8-7.7,0.9-11.7H1368.5z"/>
			<path class="st0" d="M1569.8,326c-25.2,0-32.7,22.5-32.7,41.8c0,25.8,11.8,50.5,35.2,50.5c28,0,32.8-24.7,32.8-45.7
				C1605.1,351.5,1593.8,326,1569.8,326z M1572.3,418.9c-23.9,0-35.8-25.1-35.8-51.1c0-19.4,7.6-42.5,33.4-42.5
				c24.5,0.1,35.9,26.1,35.9,47.2C1605.7,393.6,1600.8,418.9,1572.3,418.9z"/>
			<path class="st0" d="M1850.7,418.8v3c12.5,0,24.9-0.5,37.5-0.5s25.1,0.5,37.5,0.5c1.7-7.8,3.6-15.5,5.1-23.3h-3
				c-0.9,3.1-2.2,7-4.4,10.2c-2.7,3.7-8,7.3-14.3,8c-3.8,0.4-7.5,0.6-11.1,0.6c-2.8,0-5.5-0.1-8.1-0.3c-4.7-0.5-9.2-2.5-9.2-8.7
				v-74.4c0-8,5.1-8.4,10.5-8.4h3v-3.1c-7.1,0-14.1,0.6-21.3,0.6c-7.5,0-14.8-0.5-22.2-0.6v3.1h1.4c5.1,0,11.4,0.9,11.4,8.8v74.1
				c0,9.3-6.3,10.3-11.4,10.3H1850.7z M1852.1,326.1h-2v-4.3c7.6,0,15.1,0.6,22.8,0.6c7.4,0,14.6-0.6,21.9-0.6v4.3h-3.6
				c-5.5,0-9.8,0.2-9.8,7.8v74.4c0,5.8,4,7.5,8.6,8.1c5.9,0.4,12.4,0.4,19.1-0.3c6-0.7,11.2-4.2,13.8-7.8c2.3-3.2,3.6-7.2,4.5-10.4
				h4.2c-1.6,8.2-3.6,16.3-5.3,24.5c-12.7,0-25.4-0.6-38.1-0.6c-12.7,0-25.4,0.6-38.1,0.6v-4.4h2c5.2,0,10.9-0.7,10.9-9.6v-74.1
				C1862.9,326.9,1857.3,326.1,1852.1,326.1z"/>
			<path class="st0" d="M769.7,79c68.6,0,106,45.8,106,92.8c0,26.2-15.4,92.2-109.2,92.2c-13.5,0-26-0.5-38.4-0.5
				c-11.9,0-23.6,0.3-35.5,0.5v-6.9c15.9-1.6,23.6-2.1,24.4-20.2V108.4c0-23.8-12.4-22.3-24.4-22.5V79c10.3,0.5,20.9,0.5,31.3,0.5
				C735,79.5,750.1,79,769.7,79z M742.9,232.8c0,20.4,14.6,22.8,27.6,22.8c57.3,0,76.1-43.2,76.1-82.7c0-49.6-31.8-85.3-83-85.3
				c-10.9,0-15.9,0.8-20.7,1.1V232.8z"/>
			<path class="st0" d="M967.3,322.4c8.8,0,23.4,0.6,35.3,0.6c11.9,0,26.5-0.5,36.3-0.6c-0.1,2-0.1,4.4-0.1,6.8
				c0,4.8,0.2,10,0.4,14.1l-3.1,0.8c-0.6-9.1-3.1-16.8-18.1-16.7h-20.7v39h17.8c8.8,0.1,11.1-5.2,11.9-12.7h3.1
				c-0.3,5.4-0.4,10.8-0.4,16.3c0,5.3,0.1,10.6,0.4,15.9l-3.1,0.6c-0.7-8.2-1.7-14.3-11.8-14.2h-17.9v34.2c0,10,9.1,10,18.2,10
				c17,0.1,25.4-1.3,29.7-17.5l2.9,0.7c-1.8,7.3-3.4,14.6-4.7,21.8c-9.3,0-25.5-0.5-38.3-0.5c-12.7,0-29.3,0.5-37.7,0.5v-3h1.4
				c5.1,0,11.3-0.9,11.3-8.9v-75.6c0-8-6.2-8.9-11.3-8.9h-1.4V322.4z"/>
			<path class="st0" d="M1093.7,370.6h-7v-43c2-0.1,3.8-0.6,8.2-0.6c12.8,0,21.1,8.2,21.1,21
				C1115.9,365.1,1108.1,370.6,1093.7,370.6z M1094.8,327.6c-3.9,0-5.7,0.4-7.6,0.5v41.8h6.4c14.3-0.1,21.5-5.1,21.6-21.8
				C1115.2,335.5,1107.4,327.7,1094.8,327.6z"/>
			<path class="st0" d="M1304.8,378.8h26.9l-13.2-40.8h-0.3l0,0.1L1304.8,378.8z M1303.9,379.4l13.8-42.1h0.5h0.3h0.4l13.7,42.1
				H1303.9z"/>
			<polygon class="st0" points="1722.2,393.7 1722.2,393.8 1722,393.6 			"/>
			<path class="st0" d="M1570.1,320.3c30.5,0,54.6,18.8,54.7,49.1c-0.1,32.9-23.5,54.6-53.9,54.6c-30.3,0-53.3-20.5-53.4-51.1
				C1517.5,343.2,1540.4,320.3,1570.1,320.3z M1536.4,367.8c0,26,11.9,51.1,35.8,51.1c28.5,0,33.5-25.3,33.5-46.3
				c0-21.2-11.5-47.2-35.9-47.2C1544.1,325.3,1536.5,348.4,1536.4,367.8z"/>
			<path class="st0" d="M1365.2,330c-0.4,4-1.1,7.8-1.6,11.6h3.1c1.9-10.1,3.2-13.3,13.9-13.2h24.3v77.7c0,11.6-4.7,12.7-12.6,12.7
				h-2.1v3.1c5.7-0.1,15.4-0.6,23.8-0.6c7.5,0,17.2,0.5,22.9,0.6v-3.1h-2.1c-6.9,0-12.6-1.7-12.6-13v-77.4h24.3
				c9.7,0,10.9,8.3,11.2,13.6l3.2-1.1c0-3.8,0-7.5,0.3-11.3c0.4-3.7,0.9-7.4,1.5-11.1l-2.2-0.4c-0.7,4.2-4.7,4.4-8.3,4.4h-74.4h-0.7
				c-3.4,0-7.1-0.2-8.4-4.2h-2.4C1366.1,322.2,1365.8,326.1,1365.2,330z M1362.9,342.1c0.6-4,1.3-8.1,1.8-12.3
				c0.6-4,0.8-8.1,0.8-12.2h3.5c1.1,4.3,4.8,4.2,8.6,4.2h74.4c3.9,0,7.5-0.1,7.8-4.5l3.4,0.6c-0.5,3.9-1.1,7.8-1.6,11.7
				c-0.3,3.9-0.3,7.8-0.3,11.7l-4.3,1.6c-0.3-5.3-1-13.9-10.7-13.9h-23.7v76.7c0,11.1,5.1,12.4,12,12.4h2.7v4.4
				c-5.6,0-15.7-0.6-23.5-0.6c-8.6,0-18.8,0.6-24.4,0.6v-4.4h2.7c7.9,0,12-0.7,12-12.1v-77h-23.7c-10.8,0-11.2,2.6-13.4,13.1H1362.9
				z"/>
			<path class="st0" d="M917.3,144.2c1.9-1.1,3.5-1.3,4.8-1.3c1.3,0,1.9,1.6,1.9,3.7v101.8c0,8.8,5.8,8.8,13.2,8.8h4.5v6.9
				c-9,0-18.3-0.5-27.8-0.5c-9.5,0-19.1,0.3-28.9,0.5v-6.9h5c7.4,0,12.7,0,12.7-8.8v-71.8c0-11.6-4-13.3-13.8-18.5v-4.2
				C901.4,150,916.3,145,917.3,144.2z"/>
			<path class="st0" d="M1174.7,323c4.4,0,8.5-0.6,12.8-0.6l64.2,72.5l0.4-0.5l0.3-0.3l0.2-54.5c0-12.2-8.7-14.1-13.2-14.2h-2.6v-3
				c6.5,0,13,0.6,19.6,0.6c5.7,0,11.4-0.5,17.1-0.6v3h-1.5c-6.2,0.1-13.5,1.6-13.5,19v65.6c0,4.8,0.1,9.6,0.8,13.9h-4.7l-74.9-83.8
				v61c0,12.6,2.9,17.5,14.2,17.5h1.8v3c-6,0-11.9-0.5-18-0.5c-6.3,0-12.8,0.5-19,0.5v-3l1.4,0c10.3,0,13.6-7.4,13.6-19v-60.7
				c0-8.5-6.9-13.6-13.7-13.6h-1.3v-3C1164,322.5,1169.4,323,1174.7,323z"/>
			<path class="st0" d="M1086.7,370.6h7c14.4,0,22.2-5.5,22.2-22.5c0-12.8-8.2-21-21.1-21c-4.3,0-6.2,0.4-8.2,0.6V370.6z
				 M1086,371.2V327l0.6-0.1c2-0.1,3.9-0.6,8.3-0.6c13.1,0,21.7,8.5,21.7,21.7c0,17.2-8.3,23.1-22.8,23.1h-7.1H1086z"/>
			<path class="st0" d="M1068.2,410.4c0,5.4-4.9,7.8-10.2,7.8h-2.6v4.4c7.2,0,14-0.6,20.9-0.6c8.2,0,16.6,0.6,24.8,0.6v-4.4h-2.6
				c-6.6,0-11.8-0.4-11.8-11.5v-30.9h9.5c9.4,16.6,18.9,32.2,30,46.8c4.4,0,9.1-0.6,13.6-0.6c4.8,0,9.4,0.6,14.1,0.6v-4.4
				c-7.1-0.8-10-2.5-14-8.6l-24.6-36.9c11.4-4.5,20-12.4,20-25.4c0-20.5-16.2-25.4-34.3-25.4c-7.6,0-14.6,0.6-23.2,0.6
				c-8.8,0-17.7-0.6-22.4-0.6v4.3h2.6c4.5,0,10.2,0.4,10.2,11V410.4z M1054.7,423.1v-0.6v-5h0.6h2.6c5.2,0,9.6-2.3,9.6-7.1v-73.3
				c-0.1-10.2-5.1-10.2-9.6-10.3h-3.2v-0.6v-5h0.6c4.7,0,13.6,0.6,22.4,0.6c8.6,0,15.5-0.6,23.2-0.6c18.2,0,34.9,5.1,35,26
				c0,13-8.6,21.2-19.7,25.7l24.2,36.3c4,6,6.5,7.5,13.6,8.4l0.5,0.1v0.5v5h-0.6c-4.8,0-9.4-0.6-14.2-0.6c-4.4,0-9,0.6-14,0.3
				c-11.1-14.5-20.5-30-29.9-46.5h-8.5v30.2c0.2,10.8,4.5,10.8,11.2,10.9h3.2v0.6v5h-0.6c-8.2,0-16.6-0.6-24.8-0.6
				c-6.9,0-13.6,0.6-20.9,0.6H1054.7z"/>
			<path class="st0" d="M968.7,325.5c5.1,0,11.3,0.9,11.3,8.9v75.6c0,8-6.2,8.8-11.3,8.9h-1.4v3c8.4,0,25.1-0.5,37.7-0.5
				c12.7,0,29,0.5,38.3,0.5c1.2-7.3,2.9-14.6,4.7-21.8l-2.9-0.7c-4.3,16.1-12.7,17.6-29.7,17.5c-9.1,0-18.2,0-18.2-10v-34.2h17.9
				c10.1-0.1,11.1,6,11.8,14.2l3.1-0.6c-0.3-5.3-0.4-10.6-0.4-15.9c0-5.4,0.1-10.8,0.4-16.3h-3.1c-0.8,7.5-3.2,12.8-11.9,12.7h-17.8
				v-39h20.7c15-0.1,17.5,7.6,18.1,16.7l3.1-0.8c-0.2-4.1-0.4-9.3-0.4-14.1c0-2.5,0.1-4.8,0.1-6.8c-9.8,0-24.4,0.6-36.3,0.6
				c-11.8,0-26.4-0.5-35.3-0.6v3.1H968.7z M979.4,334.4c0-7.5-5.5-8.2-10.7-8.2h-2v-4.3c8.8,0,23.8,0.6,35.9,0.6
				c12.1,0,27.1-0.6,36.9-0.6c-0.2,6.2-0.1,15.7,0.3,22.1l-4.3,1.2c-0.7-9.4-2.4-16.9-17.6-16.9h-20v37.8h17.1
				c8.6,0,10.5-4.9,11.4-12.7h4.3c-0.3,5.6-0.4,11.3-0.4,16.9c0,5.5,0.2,11,0.4,16.4l-4.3,0.9c-0.8-8.6-1.3-14.3-11.2-14.3h-17.3
				v33.6c0,9.4,8.3,9.4,17.6,9.4c17.3,0,24.9-1.2,29.3-17.6l4,1c-1.9,7.7-3.6,15.3-4.9,22.9c-9.2,0-25.8-0.6-38.8-0.6
				c-13,0-30.2,0.6-38.4,0.6v-4.4h2c5.2,0,10.7-0.7,10.7-8.2V334.4z"/>
			<path class="st0" d="M1068.8,410.4c0,5.8-5.4,8.4-10.9,8.4h-2v3c6.9,0,13.5-0.6,20.3-0.6c8.1,0,16.2,0.5,24.2,0.6v-3h-2
				c-6.6,0-12.4-0.8-12.4-12.2v-31.5h0.6h9.9l0.2,0.3c9.4,16.6,18.9,32.1,29.5,46.4c4.4,0,9-0.6,13.5-0.6c4.6,0,9,0.5,13.5,0.6v-3.2
				c-6.8-0.8-9.9-2.9-13.9-8.9l-25.1-37.5l0.7-0.3c11.3-4.4,19.6-12.1,19.6-24.8c0-20-15.5-24.6-33.7-24.7c-7.6,0-14.5,0.6-23.2,0.6
				c-8.5,0-17-0.5-21.7-0.6v3.1h2c4.5,0,10.9,0.8,10.9,11.6V410.4z M1057.9,418.1c5.4,0,10.2-2.4,10.2-7.8v-73.3
				c0-10.5-5.8-11-10.2-11h-2.6v-4.3c4.6,0,13.6,0.6,22.4,0.6c8.6,0,15.6-0.6,23.2-0.6c18.2,0,34.3,4.9,34.3,25.4
				c0,13-8.6,20.9-20,25.4l24.6,36.9c4,6.1,6.9,7.8,14,8.6v4.4c-4.8,0-9.4-0.6-14.1-0.6c-4.5,0-9.1,0.6-13.6,0.6
				c-11.1-14.6-20.6-30.1-30-46.8h-9.5v30.9c0,11.1,5.2,11.5,11.8,11.5h2.6v4.4c-8.2,0-16.6-0.6-24.8-0.6c-6.9,0-13.7,0.6-20.9,0.6
				v-4.4H1057.9z"/>
			<path class="st0" d="M1367.2,342.8h-5.1l0.1-0.7c0.6-4.1,1.3-8.1,1.7-12.3c0.6-4,0.9-8,0.9-12.2V317h0.6h3.9l0.1,0.4
				c1,3.6,3.6,3.7,7.3,3.7l0.7,0h74.4c4-0.1,6.9-0.1,7.1-3.9l0-0.7l0.7,0.1l4.1,0.6l-0.1,0.6c-0.6,3.9-1.1,7.8-1.6,11.6
				c-0.3,3.8-0.3,7.8-0.3,11.6v0.5l-0.4,0.2l-5.1,1.9l0-0.8c-0.4-5.4-0.9-13.3-10.1-13.3h-23v76.1c0.2,10.9,4.5,11.6,11.3,11.8h3.4
				v0.6v5h-0.6c-5.7,0-15.8-0.6-23.5-0.6c-8.6,0-18.7,0.6-24.4,0.6h-0.6v-0.6v-5h0.6h2.7c7.9-0.2,11.1-0.3,11.3-11.5l0-76.4h-23
				c-10.7,0.2-10.4,2-12.8,12.7l-0.1,0.5H1367.2z M1364.6,329.9c-0.4,4.2-1.2,8.2-1.8,12.3h4.3c2.2-10.5,2.6-13.1,13.4-13.1h23.7v77
				c0,11.4-4,12.1-12,12.1h-2.7v4.4c5.6,0,15.7-0.6,24.4-0.6c7.8,0,17.9,0.6,23.5,0.6v-4.4h-2.7c-6.9,0-12-1.3-12-12.4V329h23.7
				c9.7,0,10.4,8.5,10.7,13.9l4.3-1.6c0-3.9,0-7.8,0.3-11.7c0.4-3.9,1-7.8,1.6-11.7l-3.4-0.6c-0.3,4.3-3.9,4.5-7.8,4.5h-74.4
				c-3.9,0-7.5,0.1-8.6-4.2h-3.5C1365.5,321.8,1365.2,325.8,1364.6,329.9z"/>
		</g>
		<g>
		</g>
	</g>
</g>
</svg>
