<?xml version="1.0" encoding="utf-8"?>
<!-- Generator: Adobe Illustrator 25.4.7, SVG Export Plug-In . SVG Version: 6.00 Build 0)  -->
<svg version="1.1"
	 id="Layer_1" inkscape:version="0.48.1 " sodipodi:docname="AJAX.svg" xmlns:cc="http://creativecommons.org/ns#" xmlns:dc="http://purl.org/dc/elements/1.1/" xmlns:inkscape="http://www.inkscape.org/namespaces/inkscape" xmlns:rdf="http://www.w3.org/1999/02/22-rdf-syntax-ns#" xmlns:sodipodi="http://sodipodi.sourceforge.net/DTD/sodipodi-0.dtd" xmlns:svg="http://www.w3.org/2000/svg"
	 xmlns="http://www.w3.org/2000/svg" xmlns:xlink="http://www.w3.org/1999/xlink" x="0px" y="0px" viewBox="0 0 295.3 90.5"
	 style="enable-background:new 0 0 295.3 90.5;" xml:space="preserve">
<style type="text/css">
	.st0{fill:#FF6600;}
	.st1{fill:#652C8F;}
</style>
<g id="g15">
	<g id="g17">
		<polygon id="polygon19" class="st0" points="219.9,87.3 244.5,59.6 219.9,31.9 245.9,31.9 258.1,45.3 269.9,31.9 295,31.9 
			270.4,59.5 295.3,87.3 269.2,87.3 257.1,73.7 245.1,87.3 		"/>
		<polygon id="polygon21" class="st0" points="219.9,19.5 192,19.5 192,31.9 219.9,31.9 219.9,50.6 192,50.6 192,67.8 219.9,67.8 
			219.9,87.3 171.4,87.3 171.4,0 219.9,0 		"/>
	</g>
	<path id="path23" inkscape:connector-curvature="0" class="st1" d="M151,0v35.7h-0.2c-4.5-5.2-10.2-7-16.7-7
		c-13.4,0-23.6,9.1-27.1,21.2c-4.1-13.3-14.5-21.5-30-21.5c-12.6,0-22.5,5.6-27.7,14.9V31.9h-26V19.5h28.4V0H0v87.3h23.2V50.6h23.1
		c-0.7,2.7-1.1,5.6-1.1,8.6c0,18.2,13.9,31,31.7,31c14.9,0,24.8-7,30-19.8H87c-2.7,3.8-4.7,5-10.1,5c-6.2,0-11.6-5.4-11.6-11.9h40.5
		c1.8,14.5,13,26.9,28.5,26.9c6.7,0,12.8-3.3,16.5-8.8h0.2v5.7h20.4V0H151z M66,50.9c1.3-5.5,5.6-9.2,11-9.2c5.9,0,10,3.5,11.1,9.2
		C88.4,50.9,66,50.9,66,50.9z M138.6,74c-7.5,0-12.2-7-12.2-14.4c0-7.8,4.1-15.4,12.2-15.4c8.4,0,11.8,7.5,11.8,15.4
		C150.4,67.1,146.8,74,138.6,74z"/>
</g>
</svg>
