<svg width="95px" height="102px" viewBox="0 0 95 102" version="1.1" xmlns="http://www.w3.org/2000/svg" xmlns:xlink="http://www.w3.org/1999/xlink">
    <title>Group 26</title>
    <g id="Page-1" stroke="none" stroke-width="1" fill="none" fill-rule="evenodd">
        <g id="Group-26" transform="translate(0.831437, 0.225336)">
            <polygon id="Path" fill="#002F9B" fill-rule="nonzero" transform="translate(47.153007, 50.627301) rotate(-345.000000) translate(-47.153007, -50.627301) " points="10.156297 29.3773009 10.156297 71.8773009 47.1528461 93.1273009 84.149718 71.8773009 84.149718 29.3773009 47.1528461 8.12730089"></polygon>
            <g id="Group-25" transform="translate(46.940124, 50.716605) rotate(-35.000000) translate(-46.940124, -50.716605) translate(13.156297, 17.127301)">
                <polygon id="Path" points="23.5061318 42.9220078 28.5061318 42.9220078 28.5061318 47.9220078 23.5061318 47.9220078"></polygon>
                <polygon id="Path" fill="#FFCE00" fill-rule="nonzero" points="26.0061318 47.0126656 24.4611831 47.9220078 24.8061844 46.0959529 23.5061318 44.8319028 25.2644337 44.6126288 26.0061318 42.9220078 26.7478299 44.6126288 28.5061318 44.8319028 27.2060792 46.0959529 27.5510805 47.9220078"></polygon>
                <g id="Group-24">
                    <g id="Group-23" transform="translate(0.000000, -0.000000)">
                        <polygon id="Path" fill="#FFCE00" fill-rule="nonzero" points="43.7870013 21.6189523 42.2420526 22.5282945 42.5870539 20.7022395 41.2870013 19.4381894 43.0453033 19.2189154 43.7870013 17.5282945 44.5286994 19.2189154 46.2870013 19.4381894 44.9869487 20.7022395 45.3319501 22.5282945"></polygon>
                        <polygon id="Path" fill="#FFCE00" fill-rule="nonzero" points="50.6665184 36.2022387 49.1215697 37.1115809 49.466571 35.285526 48.1665184 34.0214759 49.9248204 33.8022019 50.6665184 32.1115809 51.4082165 33.8022019 53.1665184 34.0214759 51.8664659 35.285526 52.2114672 37.1115809"></polygon>
                        <g id="Group-22" transform="translate(33.783827, 33.589304) rotate(35.000000) translate(-33.783827, -33.589304) translate(9.200310, 9.797899)">
                            <g id="Group-20">
                                <g id="Group" transform="translate(23.790987, 23.791404) rotate(-35.000000) translate(-23.790987, -23.791404) translate(6.709401, 6.708118)">
                                    <polygon id="Path" points="9.17722298 3.63797881e-12 14.177223 3.63797881e-12 14.177223 5 9.17722298 5"></polygon>
                                    <polygon id="Path" fill="#FFCE00" fill-rule="nonzero" points="11.677223 4.09065782 10.1322742 5 10.4772756 3.17394509 9.17722298 1.90989497 10.9355249 1.69062097 11.677223 3.63797881e-12 12.418921 1.69062097 14.177223 1.90989497 12.8771704 3.17394509 13.2221717 5"></polygon>
                                    <polygon id="Path" fill="#FFCE00" fill-rule="nonzero" points="2.5 17.1970905 0.955051257 18.1064327 1.30005257 16.2803778 -3.63797881e-12 15.0163277 1.75830194 14.7970537 2.5 13.1064327 3.24169806 14.7970537 5 15.0163277 3.69994743 16.2803778 4.04494874 18.1064327"></polygon>
                                    <polygon id="Path" fill="#FFCE00" fill-rule="nonzero" points="25.4362572 33.2572307 23.8913085 34.1665729 24.2363098 32.340518 22.9362572 31.0764679 24.6945592 30.8571939 25.4362572 29.1665729 26.1779553 30.8571939 27.9362572 31.0764679 26.6362047 32.340518 26.981206 34.1665729"></polygon>
                                    <polygon id="Path" fill="#FFCE00" fill-rule="nonzero" points="31.6631728 27.8511673 30.1182241 28.7605094 30.4632254 26.9344545 29.1631728 25.6704044 30.9214748 25.4511304 31.6631728 23.7605094 32.4048709 25.4511304 34.1631728 25.6704044 32.8631202 26.9344545 33.2081216 28.7605094"></polygon>
                                    <polygon id="Path" fill="#FFCE00" fill-rule="nonzero" points="5.4503074 9.4967213 3.90535866 10.4060635 4.25035997 8.58000857 2.9503074 7.31595845 4.70860934 7.09668445 5.4503074 5.40606348 6.19200547 7.09668445 7.9503074 7.31595845 6.65025483 8.58000857 6.99525615 10.4060635"></polygon>
                                </g>
                                <g id="Group" transform="translate(32.999362, 22.445291) rotate(-35.000000) translate(-32.999362, -22.445291) translate(22.756080, 8.886738)">
                                    <polygon id="Path" points="15.4865638 0 20.4865638 0 20.4865638 5 15.4865638 5"></polygon>
                                    <polygon id="Path" fill="#FFCE00" fill-rule="nonzero" points="2.5 26.207763 0.955051257 27.1171052 1.30005257 25.2910503 0 24.0270002 1.75830194 23.8077262 2.5 22.1171052 3.24169806 23.8077262 5 24.0270002 3.69994743 25.2910503 4.04494874 27.1171052"></polygon>
                                </g>
                                <g id="Group" transform="translate(16.999362, 22.445291) rotate(-35.000000) translate(-16.999362, -22.445291) translate(6.756080, 8.886738)">
                                    <polygon id="Path" points="15.4865638 3.63797881e-12 20.4865638 3.63797881e-12 20.4865638 5 15.4865638 5"></polygon>
                                    <polygon id="Path" fill="#FFCE00" fill-rule="nonzero" points="2.5 26.207763 0.955051257 27.1171052 1.30005257 25.2910503 0 24.0270002 1.75830194 23.8077262 2.5 22.1171052 3.24169806 23.8077262 5 24.0270002 3.69994743 25.2910503 4.04494874 27.1171052"></polygon>
                                </g>
                            </g>
                            <g id="Group" transform="translate(32.999362, 8.945291) rotate(-35.000000) translate(-32.999362, -8.945291) translate(30.499362, 6.445291)">
                                <polygon id="Path" points="0 0 5 0 5 5 0 5"></polygon>
                                <polygon id="Path" fill="#FFCE00" fill-rule="nonzero" points="2.5 4.09065782 0.955051257 5 1.30005257 3.17394509 0 1.90989497 1.75830194 1.69062097 2.5 0 3.24169806 1.69062097 5 1.90989497 3.69994743 3.17394509 4.04494874 5"></polygon>
                            </g>
                            <g id="Group" transform="translate(16.999362, 8.945291) rotate(-35.000000) translate(-16.999362, -8.945291) translate(14.499362, 6.445291)">
                                <polygon id="Path" points="0 0 5 0 5 5 0 5"></polygon>
                                <polygon id="Path" fill="#FFCE00" fill-rule="nonzero" points="2.5 4.09065782 0.955051257 5 1.30005257 3.17394509 0 1.90989497 1.75830194 1.69062097 2.5 0 3.24169806 1.69062097 5 1.90989497 3.69994743 3.17394509 4.04494874 5"></polygon>
                            </g>
                        </g>
                    </g>
                    <g id="Group" transform="translate(48.166518, 32.111581)">
                        <polygon id="Path" points="0 0 5 0 5 5 0 5"></polygon>
                    </g>
                </g>
            </g>
        </g>
    </g>
</svg>