<svg width="95px" height="102px" viewBox="0 0 95 102" version="1.1" xmlns="http://www.w3.org/2000/svg" xmlns:xlink="http://www.w3.org/1999/xlink">
    <title>Group 28</title>
    <g id="Page-1" stroke="none" stroke-width="1" fill="none" fill-rule="evenodd">
        <g id="Group-28" transform="translate(0.818634, 0.734540)" fill-rule="nonzero">
            <polygon id="Path" fill="#FFCE00" transform="translate(46.735888, 50.627301) rotate(-345.000000) translate(-46.735888, -50.627301) " points="9.73917708 29.3773009 9.73917708 71.8773009 46.7357262 93.1273009 83.732598 71.8773009 83.732598 29.3773009 46.7357262 8.12730089"></polygon>
            <path d="M52.1851949,51.954004 C54.3516816,50.2602429 55.615669,47.6701332 55.6134109,44.9290482 L58.181366,44.9290482 C58.1840135,48.5826425 56.4380761,52.0192716 53.4794428,54.1841082 L56.7253342,59.775973 C57.4344211,60.9977541 57.0136334,62.5600258 55.7854637,63.2654601 L51.2568802,55.4639274 C49.7965599,56.0994487 48.2195279,56.4265153 46.6255787,56.4244304 C45.0316295,56.4265153 43.4545974,56.0994487 41.9942771,55.4639274 L37.4656936,63.2654601 C36.2375239,62.5600258 35.8167362,60.9977541 36.5258231,59.775973 L43.0265938,48.5743617 C41.7064324,47.2831312 41.1866046,45.3852652 41.6658403,43.6063165 C42.145076,41.8273679 43.549271,40.4424152 45.3416026,39.9809248 L45.3416026,37.2654601 L47.9095547,37.2654601 L47.9095547,39.9809248 C49.7018863,40.4424152 51.1060813,41.8273679 51.585317,43.6063165 C52.0645527,45.3852652 51.5447249,47.2831312 50.2245635,48.5743617 L52.1851949,51.954004 Z M50.181366,52.6320738 L48.1236515,49.2654601 C47.1799706,49.5128706 46.1827615,49.5128706 45.2390805,49.2654601 L43.181366,52.6320738 C44.2640902,53.0403409 45.4437746,53.2654601 46.681366,53.2654601 C47.9176107,53.2654601 49.0986419,53.0403409 50.181366,52.6320738 L50.181366,52.6320738 Z M46.681366,47.2654601 C48.0620779,47.2654601 49.181366,46.146172 49.181366,44.7654601 C49.181366,43.3847482 48.0620779,42.2654601 46.681366,42.2654601 C45.3006542,42.2654601 44.181366,43.3847482 44.181366,44.7654601 C44.181366,46.146172 45.3006542,47.2654601 46.681366,47.2654601 Z" id="Shape" fill="#000000"></path>
        </g>
    </g>
</svg>