<svg width="94px" height="102px" viewBox="0 0 94 102" version="1.1" xmlns="http://www.w3.org/2000/svg" xmlns:xlink="http://www.w3.org/1999/xlink">
    <title>Group 27</title>
    <g id="Page-1" stroke="none" stroke-width="1" fill="none" fill-rule="evenodd">
        <g id="Group-27" transform="translate(0.304115, 0.363496)">
            <polygon id="Path" fill="#4AB208" fill-rule="nonzero" transform="translate(46.735888, 50.627301) rotate(-345.000000) translate(-46.735888, -50.627301) " points="9.73917708 29.3773009 9.73917708 71.8773009 46.7357262 93.1273009 83.732598 71.8773009 83.732598 29.3773009 46.7357262 8.12730089"></polygon>
            <g id="Group" transform="translate(30.739177, 35.127301)">
                <polygon id="Path" points="0 0 32 0 32 32 0 32"></polygon>
                <path d="M22.8746127,20.1096392 L22.8746127,29.329062 C22.8746647,29.570687 22.7415361,29.7936682 22.5260984,29.9127993 C22.3106608,30.0319305 22.046209,30.0288004 21.8337964,29.9046052 L16,26.488911 L10.1662036,29.9046052 C9.95357994,30.0289246 9.68883213,30.0319294 9.47330237,29.9124695 C9.25777261,29.7930096 9.12483916,29.5695852 9.12538728,29.3277204 L9.12538728,20.1109808 C5.47946358,17.2626683 4.07454914,12.4782527 5.62138445,8.17815009 C7.16821975,3.87804753 11.3294798,1 16,1 C20.6705202,1 24.8317802,3.87804753 26.3786156,8.17815009 C27.9254509,12.4782527 26.5205364,17.2626683 22.8746127,20.1109808 L22.8746127,20.1096392 Z M11.8752324,21.683327 L11.8752324,25.7751838 L16,23.3603175 L20.1247676,25.7751838 L20.1247676,21.683327 C18.8142531,22.20051 17.4136405,22.465642 16,22.4641338 C14.5863595,22.465642 13.1857469,22.20051 11.8752324,21.683327 L11.8752324,21.683327 Z M16,19.7809491 C20.5560925,19.7809491 24.2495353,16.1770408 24.2495353,11.7313948 C24.2495353,7.28574869 20.5560925,3.68184048 16,3.68184048 C11.4439075,3.68184048 7.75046473,7.28574869 7.75046473,11.7313948 C7.75046473,16.1770408 11.4439075,19.7809491 16,19.7809491 L16,19.7809491 Z" id="Shape" fill="#000000" fill-rule="nonzero"></path>
            </g>
        </g>
    </g>
</svg>