<svg width="75px" height="82px" viewBox="0 0 75 82" version="1.1" xmlns="http://www.w3.org/2000/svg" xmlns:xlink="http://www.w3.org/1999/xlink">
    <g stroke="none" stroke-width="1" fill="none" fill-rule="evenodd">
        <g transform="translate(-737.000000, -1086.000000)" fill-rule="nonzero">
            <g transform="translate(269.234557, 1084.000000)">
                <g transform="translate(467.791342, 2.498159)">
                    <polygon fill="#4AB208" transform="translate(37.388710, 40.501841) rotate(-345.000000) translate(-37.388710, -40.501841) " points="7.79134166 23.5018407 7.79134166 57.5018407 37.388581 74.5018407 66.9860784 57.5018407 66.9860784 23.5018407 37.388581 6.50184072"></polygon>
                    <path d="M36.7913417,29.5018407 L45.0083417,31.3278407 C45.4653417,31.4298407 45.7913417,31.8348407 45.7913417,32.3038407 L45.7913417,42.2908407 C45.7913417,44.2968407 44.7883417,46.1708407 43.1193417,47.2828407 L36.7913417,51.5018407 L30.4633417,47.2828407 C28.7933417,46.1698407 27.7913417,44.2968407 27.7913417,42.2918407 L27.7913417,32.3038407 C27.7913417,31.8348407 28.1173417,31.4298407 28.5743417,31.3278407 L36.7913417,29.5018407 Z M36.7913417,31.5508407 L29.7913417,33.1058407 L29.7913417,42.2908407 C29.7913417,43.6278407 30.4593417,44.8768407 31.5723417,45.6188407 L36.7913417,49.0988407 L42.0103417,45.6188407 C43.1233417,44.8768407 43.7913417,43.6288407 43.7913417,42.2918407 L43.7913417,33.1058407 L36.7913417,31.5518407 L36.7913417,31.5508407 Z M41.2433417,36.7238407 L42.6583417,38.1378407 L36.2943417,44.5018407 L32.0513417,40.2588407 L33.4653417,38.8448407 L36.2933417,41.6728407 L41.2433417,36.7228407 L41.2433417,36.7238407 Z" id="Shape" fill="#FFFFFF"></path>
                </g>
            </g>
        </g>
    </g>
</svg>