<svg width="75px" height="82px" viewBox="0 0 75 82" version="1.1" xmlns="http://www.w3.org/2000/svg" xmlns:xlink="http://www.w3.org/1999/xlink">
    <g stroke="none" stroke-width="1" fill="none" fill-rule="evenodd">
        <g transform="translate(-514.000000, -1086.000000)" fill-rule="nonzero">
            <g transform="translate(269.234557, 1084.000000)">
                <g transform="translate(244.791342, 2.498159)">
                    <polygon fill="#002F9B" transform="translate(37.388710, 40.501841) rotate(-345.000000) translate(-37.388710, -40.501841) " points="7.79134166 23.5018407 7.79134166 57.5018407 37.388581 74.5018407 66.9860784 57.5018407 66.9860784 23.5018407 37.388581 6.50184072"></polygon>
                    <path d="M42.2913417,49.5018407 C40.3583451,49.5018407 38.7913417,47.9348373 38.7913417,46.0018407 C38.7913417,44.0688441 40.3583451,42.5018407 42.2913417,42.5018407 C44.2243384,42.5018407 45.7913417,44.0688441 45.7913417,46.0018407 C45.7913417,47.9348373 44.2243384,49.5018407 42.2913417,49.5018407 Z M42.2913417,47.5018407 C43.1197689,47.5018407 43.7913417,46.8302678 43.7913417,46.0018407 C43.7913417,45.1734136 43.1197689,44.5018407 42.2913417,44.5018407 C41.4629146,44.5018407 40.7913417,45.1734136 40.7913417,46.0018407 C40.7913417,46.8302678 41.4629146,47.5018407 42.2913417,47.5018407 Z M31.2913417,38.5018407 C30.0409122,38.5018407 28.8854676,37.8347445 28.2602528,36.7518407 C27.635038,35.668937 27.635038,34.3347445 28.2602528,33.2518407 C28.8854676,32.1689369 30.0409122,31.5018407 31.2913417,31.5018407 C33.2243383,31.5018407 34.7913417,33.0688441 34.7913417,35.0018407 C34.7913417,36.9348373 33.2243383,38.5018407 31.2913417,38.5018407 L31.2913417,38.5018407 Z M31.2913417,36.5018407 C32.1197689,36.5018407 32.7913417,35.8302678 32.7913417,35.0018407 C32.7913417,34.1734136 32.1197689,33.5018407 31.2913417,33.5018407 C30.4629146,33.5018407 29.7913417,34.1734136 29.7913417,35.0018407 C29.7913417,35.8302678 30.4629146,36.5018407 31.2913417,36.5018407 Z M43.8623417,32.0168407 L45.2763417,33.4308407 L29.7213417,48.9868407 L28.3073417,47.5728407 L43.8613417,32.0168407 L43.8623417,32.0168407 Z" id="Shape" fill="#FFFFFF"></path>
                </g>
            </g>
        </g>
    </g>
</svg>