<?xml version="1.0" encoding="UTF-8"?>
<svg width="820px" height="90px" viewBox="0 0 820 90" version="1.1" xmlns="http://www.w3.org/2000/svg" xmlns:xlink="http://www.w3.org/1999/xlink">
    <title>Group 44</title>
    <g id="Page-1" stroke="none" stroke-width="1" fill="none" fill-rule="evenodd">
        <g id="Homepage-1.0-2023" transform="translate(-584.000000, -7259.000000)">
            <g id="Group-49" transform="translate(584.000000, 7259.000000)">
                <g id="Group-43">
                    <rect id="Rectangle" x="0" y="0" width="820" height="88"></rect>
                    <g id="Group-39-Copy" transform="translate(64.000000, 2.000000)">
                        <g id="Group-46" transform="translate(2.000000, 42.000000)" fill="#000000" fill-rule="nonzero">
                            <g id="Direct-sale">
                                <path d="M6.97114804,13.6584886 C7.68887072,13.6584886 8.27868243,13.5848863 8.74058317,13.4376817 C9.56489833,13.1643016 10.239984,12.6385707 10.7658402,11.860489 C11.185104,11.2366216 11.487116,10.4375107 11.6718763,9.4631561 C11.7784688,8.88134724 11.831765,8.34159685 11.831765,7.84390494 C11.831765,5.93024449 11.4462556,4.44417849 10.6752366,3.38570696 C9.90421772,2.32723542 8.66241535,1.79799966 6.94982954,1.79799966 L3.18711508,1.79799966 L3.18711508,13.6584886 L6.97114804,13.6584886 Z M1.05526553,0 L7.39751795,0 C9.550686,0 11.2206348,0.753547615 12.4073644,2.26064284 C13.466183,3.62053342 13.9955923,5.36245512 13.9955923,7.48640793 C13.9955923,9.12668832 13.6829211,10.6092494 13.0575785,11.9340913 C11.9561229,14.2753462 10.0623299,15.4459737 7.37619946,15.4459737 L1.05526553,15.4459737 L1.05526553,0 Z" id="Shape"></path>
                                <path d="M15.5104372,4.23739101 L17.4610796,4.23739101 L17.4610796,15.4459737 L15.5104372,15.4459737 L15.5104372,4.23739101 Z M15.5104372,0 L17.4610796,0 L17.4610796,2.14498205 L15.5104372,2.14498205 L15.5104372,0 Z" id="Shape"></path>
                                <path d="M19.4555906,4.18481792 L21.278322,4.18481792 L21.278322,6.13002223 C21.4275515,5.75149598 21.793519,5.29060523 22.3762245,4.74734997 C22.9589301,4.20409472 23.6304627,3.93246709 24.3908224,3.93246709 C24.4263532,3.93246709 24.4867556,3.93597196 24.5720296,3.94298171 C24.6573036,3.94999145 24.8029799,3.96401094 25.0090587,3.98504018 L25.0090587,5.98281758 C24.8953601,5.96178834 24.7905442,5.94776885 24.6946109,5.9407591 C24.5986777,5.93374936 24.4938618,5.93024449 24.3801631,5.93024449 C23.4137247,5.93024449 22.6711304,6.23692084 22.1523803,6.85027355 C21.6336303,7.46362626 21.3742552,8.1698581 21.3742552,8.96896905 L21.3742552,15.4459737 L19.4555906,15.4459737 L19.4555906,4.18481792 Z" id="Path"></path>
                                <path d="M30.4678253,3.93246709 C31.2779282,3.93246709 32.0631594,4.11997777 32.8235191,4.49499915 C33.5838788,4.87002052 34.1630312,5.35544538 34.5609765,5.95127372 C34.9447094,6.51906309 35.2005313,7.18148401 35.3284423,7.9385365 C35.442141,8.45725765 35.4989903,9.28440759 35.4989903,10.4199863 L27.1314808,10.4199863 C27.1670116,11.5625748 27.440599,12.479099 27.9522429,13.1695589 C28.4638867,13.8600188 29.2562242,14.2052488 30.3292551,14.2052488 C31.3312244,14.2052488 32.130668,13.8792956 32.7275859,13.2273893 C33.0686818,12.8488631 33.3102914,12.410754 33.4524147,11.9130621 L35.3391016,11.9130621 C35.2893584,12.326637 35.1241401,12.7875278 34.8434465,13.2957343 C34.562753,13.8039408 34.2483052,14.2192683 33.9001031,14.5417165 C33.3173976,15.1024962 32.5961218,15.4810224 31.7362758,15.6772953 C31.2743751,15.7894512 30.7520719,15.8455292 30.1693664,15.8455292 C28.7481334,15.8455292 27.5436384,15.3355702 26.5558814,14.3156522 C25.5681244,13.2957343 25.074246,11.8674987 25.074246,10.0309455 C25.074246,8.22243118 25.5716775,6.75388955 26.5665406,5.62532057 C27.5614038,4.49675158 28.861832,3.93246709 30.4678253,3.93246709 Z M33.5270294,8.91639597 C33.4488616,8.09625577 33.2676544,7.44084459 32.9834078,6.95016242 C32.4575516,6.03889554 31.5799402,5.5832621 30.3505736,5.5832621 C29.4694091,5.5832621 28.7303679,5.8969482 28.1334501,6.5243204 C27.5365322,7.1516926 27.2203078,7.94905112 27.184777,8.91639597 L33.5270294,8.91639597 Z" id="Shape"></path>
                                <path d="M41.2988528,3.85886476 C42.5850687,3.85886476 43.6314515,4.16729355 44.4380013,4.78415114 C45.244551,5.40100872 45.7295468,6.46298513 45.8929886,7.97008036 L44.0276202,7.97008036 C43.9139216,7.27611558 43.6545466,6.69956403 43.2494951,6.24042571 C42.8444437,5.7812874 42.1942296,5.55171824 41.2988528,5.55171824 C40.0765924,5.55171824 39.2025341,6.14053684 38.6766778,7.31817405 C38.3355819,8.08223628 38.165034,9.02504702 38.165034,10.1466063 C38.165034,11.2751752 38.4066436,12.2249957 38.8898628,12.9960677 C39.373082,13.7671397 40.1334417,14.1526757 41.1709418,14.1526757 C41.9668323,14.1526757 42.5975045,13.9125919 43.0629583,13.4324243 C43.5284121,12.9522568 43.8499661,12.2950932 44.0276202,11.4609335 L45.8929886,11.4609335 C45.6798036,12.9540092 45.1468412,14.0457771 44.2941014,14.736237 C43.4413616,15.4266969 42.3505652,15.7719268 41.0217124,15.7719268 C39.5294177,15.7719268 38.339135,15.2339289 37.4508644,14.157933 C36.5625937,13.0819371 36.1184584,11.7378184 36.1184584,10.125577 C36.1184584,8.14882886 36.6052307,6.61018978 37.5787753,5.50965977 C38.55232,4.40912977 39.7923458,3.85886476 41.2988528,3.85886476 Z" id="Path"></path>
                                <path d="M47.2372855,1.04094717 L49.1772686,1.04094717 L49.1772686,4.18481792 L51,4.18481792 L51,5.73046675 L49.1772686,5.73046675 L49.1772686,13.0801846 C49.1772686,13.4727304 49.3122858,13.7355958 49.58232,13.868781 C49.7315495,13.9458882 49.9802653,13.9844418 50.3284674,13.9844418 C50.4208475,13.9844418 50.5203339,13.9826893 50.6269263,13.9791845 C50.7335188,13.9756796 50.8578767,13.9669174 51,13.9528979 L51,15.4459737 C50.7797089,15.5090614 50.5505351,15.5546247 50.3124785,15.5826637 C50.074422,15.6107027 49.8168235,15.6247222 49.5396831,15.6247222 C48.6443062,15.6247222 48.0367291,15.3986579 47.7169517,14.9465293 C47.3971743,14.4944008 47.2372855,13.9073346 47.2372855,13.1853308 L47.2372855,5.73046675 L45.6916946,5.73046675 L45.6916946,4.18481792 L47.2372855,4.18481792 L47.2372855,1.04094717 Z" id="Path"></path>
                                <path d="M1.84404986,37.0359891 C1.90089919,37.6668661 2.0607879,38.1505386 2.32371601,38.4870063 C2.80693525,39.0968542 3.64546274,39.4017781 4.83929849,39.4017781 C5.549915,39.4017781 6.17525754,39.2493161 6.71532609,38.9443922 C7.25539465,38.6394683 7.52542892,38.1680629 7.52542892,37.5301761 C7.52542892,37.0465037 7.30869089,36.678492 6.87521481,36.4261412 C6.59807437,36.2719268 6.05089965,36.0931783 5.23369065,35.8898957 L3.70941822,35.5113695 C2.73587359,35.2730381 2.01815091,35.0066678 1.55625017,34.7122585 C0.731935013,34.2005471 0.319777433,33.4925628 0.319777433,32.5883057 C0.319777433,31.5228244 0.708839977,30.6606257 1.48696506,30.0017097 C2.26509015,29.3427936 3.31147297,29.0133356 4.62611353,29.0133356 C6.3458055,29.0133356 7.58583133,29.5110275 8.346191,30.5064114 C8.82230407,31.1372884 9.05325444,31.8172337 9.03904211,32.5462472 L7.22696999,32.5462472 C7.19143916,32.1186528 7.03865661,31.7296119 6.76862233,31.3791246 C6.32804009,30.8814327 5.56412734,30.6325868 4.47688406,30.6325868 C3.75205521,30.6325868 3.20310395,30.7692768 2.83003028,31.0426569 C2.45695661,31.3160369 2.27041977,31.6770388 2.27041977,32.1256625 C2.27041977,32.6163447 2.51558247,33.0088904 3.00590787,33.3032997 C3.29015448,33.4785433 3.70941822,33.6327577 4.26369911,33.7659429 L5.53214959,34.0708668 C6.91074564,34.4003248 7.83454711,34.7192683 8.30355401,35.027697 C9.04970136,35.5113695 9.42277503,36.2719268 9.42277503,37.3093691 C9.42277503,38.3117627 9.03726557,39.1774662 8.26624664,39.9064797 C7.49522772,40.6354932 6.32093393,41 4.74336526,41 C3.04499178,41 1.84227332,40.6197213 1.13520989,39.859164 C0.428146452,39.0986066 0.0497431563,38.1575483 0,37.0359891 L1.84404986,37.0359891 Z" id="Path"></path>
                                <path d="M12.1314557,37.5722346 C12.1314557,38.1189947 12.3339814,38.550094 12.7390328,38.8655326 C13.1440842,39.1809711 13.6237504,39.3386904 14.1780313,39.3386904 C14.853117,39.3386904 15.5068842,39.184476 16.1393329,38.8760472 C17.2052576,38.3643358 17.73822,37.5266712 17.73822,36.3630535 L17.73822,34.8384339 C17.5037166,34.9856386 17.2017046,35.1083091 16.832184,35.2064455 C16.4626634,35.304582 16.1002489,35.3746794 15.7449407,35.4167379 L14.5830827,35.5639426 C13.8866785,35.6550692 13.3643754,35.798769 13.0161733,35.9950419 C12.4263616,36.3244999 12.1314557,36.8502308 12.1314557,37.5722346 Z M16.7788877,33.7449137 C17.21947,33.6888357 17.5143758,33.5065823 17.6636053,33.1981535 C17.7488793,33.0299196 17.7915163,32.7880834 17.7915163,32.4726449 C17.7915163,31.8277483 17.5587894,31.3598478 17.0933355,31.0689434 C16.6278817,30.778039 15.9616787,30.6325868 15.0947266,30.6325868 C14.0927573,30.6325868 13.3821408,30.8989571 12.962877,31.4316977 C12.7283736,31.726107 12.575591,32.1642161 12.5045294,32.746025 L10.7137757,32.746025 C10.7493066,31.3580954 11.2058777,30.392503 12.0834891,29.8492477 C12.9611005,29.3059925 13.9790586,29.0343648 15.1373636,29.0343648 C16.4804288,29.0343648 17.5712251,29.2867157 18.4097526,29.7914173 C19.241174,30.296119 19.6568846,31.0812105 19.6568846,32.1466917 L19.6568846,38.634211 C19.6568846,38.8304838 19.6977451,38.9882031 19.779466,39.1073688 C19.8611869,39.2265345 20.0335114,39.2861173 20.2964395,39.2861173 C20.3817135,39.2861173 20.4776467,39.28086 20.5842392,39.2703454 C20.6908317,39.2598307 20.8045303,39.2440588 20.9253351,39.2230296 L20.9253351,40.6214738 C20.6268762,40.7055907 20.3994789,40.7581638 20.2431432,40.779193 C20.0868076,40.8002223 19.8736227,40.8107369 19.6035884,40.8107369 C18.942715,40.8107369 18.4630489,40.5794153 18.1645899,40.1167721 C18.0082543,39.871431 17.8981087,39.5244486 17.8341533,39.0758249 C17.4433142,39.5805266 16.8819271,40.0186357 16.1499921,40.3901522 C15.4180571,40.7616687 14.6115073,40.9474269 13.7303429,40.9474269 C12.6715242,40.9474269 11.8063486,40.6302359 11.134816,39.995854 C10.4632834,39.361472 10.1275171,38.5676184 10.1275171,37.614293 C10.1275171,36.569841 10.4579538,35.7602154 11.1188272,35.1854163 C11.7797005,34.6106172 12.6466527,34.2566251 13.7196836,34.1234399 L16.7788877,33.7449137 Z" id="Shape"></path>
                                <polygon id="Path" points="21.8965584 25.122927 23.815223 25.122927 23.815223 40.5689007 21.8965584 40.5689007"></polygon>
                                <path d="M30.4891438,29.0553941 C31.2992467,29.0553941 32.0844779,29.2429048 32.8448376,29.6179261 C33.6051973,29.9929475 34.1843497,30.4783724 34.582295,31.0742007 C34.9660279,31.6419901 35.2218498,32.304411 35.3497608,33.0614635 C35.4634594,33.5801846 35.5203088,34.4073346 35.5203088,35.5429133 L27.1527993,35.5429133 C27.1883301,36.6855018 27.4619175,37.602026 27.9735613,38.2924859 C28.4852052,38.9829458 29.2775427,39.3281758 30.3505736,39.3281758 C31.3525429,39.3281758 32.1519865,39.0022226 32.7489044,38.3503163 C33.0900003,37.97179 33.3316099,37.533681 33.4737332,37.0359891 L35.3604201,37.0359891 C35.3106769,37.449564 35.1454586,37.9104548 34.864765,38.4186613 C34.5840715,38.9268678 34.2696237,39.3421952 33.9214216,39.6646435 C33.3387161,40.2254231 32.6174403,40.6039494 31.7575943,40.8002223 C31.2956936,40.9123782 30.7733904,40.9684561 30.1906849,40.9684561 C28.7694518,40.9684561 27.5649569,40.4584972 26.5771999,39.4385792 C25.5894429,38.4186613 25.0955645,36.9904257 25.0955645,35.1538725 C25.0955645,33.3453582 25.592996,31.8768165 26.5878591,30.7482476 C27.5827223,29.6196786 28.8831505,29.0553941 30.4891438,29.0553941 Z M33.5483479,34.039323 C33.4701801,33.2191828 33.2889729,32.5637716 33.0047263,32.0730894 C32.4788701,31.1618225 31.6012587,30.7061891 30.3718921,30.7061891 C29.4907276,30.7061891 28.7516864,31.0198752 28.1547686,31.6472474 C27.5578507,32.2746196 27.2416263,33.0719781 27.2060955,34.039323 L33.5483479,34.039323 Z" id="Shape"></path>
                            </g>
                        </g>
                        <g id="Free-shipping-worldw" transform="translate(164.000000, 42.000000)" fill="#000000" fill-rule="nonzero">
                            <polygon id="Path" points="1.65804698 0.0525326728 12.4195111 0.0525326728 12.4195111 1.94370889 3.75964793 1.94370889 3.75964793 6.6296233 11.3739911 6.6296233 11.3739911 8.46826685 3.75964793 8.46826685 3.75964793 15.4866319 1.65804698 15.4866319"></polygon>
                            <path d="M13.5190556,4.23413342 L15.3249539,4.23413342 L15.3249539,6.17784232 C15.4728052,5.79960707 15.835393,5.33907064 16.4127172,4.79623302 C16.9900414,4.2533954 17.6553724,3.9819766 18.4087101,3.9819766 C18.4439128,3.9819766 18.5037573,3.98547877 18.5882438,3.99248313 C18.6727303,3.99948749 18.8170613,4.0134962 19.021237,4.03450927 L19.021237,6.03075083 C18.9085883,6.00973776 18.8047404,5.99572905 18.7096931,5.98872469 C18.6146458,5.98172034 18.5107979,5.97821816 18.3981493,5.97821816 C17.4406359,5.97821816 16.7048996,6.28465875 16.1909402,6.89753993 C15.6769809,7.51042112 15.4200012,8.21611002 15.4200012,9.01460665 L15.4200012,15.4866319 L13.5190556,15.4866319 L13.5190556,4.23413342 Z" id="Path"></path>
                            <path d="M24.4295914,3.9819766 C25.2322129,3.9819766 26.0101925,4.16934313 26.7635302,4.54407619 C27.5168679,4.91880926 28.0906718,5.40386094 28.484942,5.99923123 C28.8651311,6.56658409 29.1185905,7.22849577 29.2453202,7.98496626 C29.3579689,8.50328863 29.4142932,9.32980268 29.4142932,10.4645084 L21.1240583,10.4645084 C21.159261,11.6062185 21.4303217,12.5220381 21.9372406,13.2119672 C22.4441594,13.9018963 23.2291795,14.2468609 24.2923009,14.2468609 C25.2850169,14.2468609 26.0770776,13.9211583 26.6684829,13.2697531 C27.0064288,12.8915179 27.2458071,12.4537456 27.3866179,11.9564363 L29.255881,11.9564363 C29.2065973,12.3696933 29.0429047,12.8302298 28.7648034,13.3380456 C28.4867021,13.8458615 28.1751583,14.2608696 27.8301719,14.58307 C27.2528476,15.1434185 26.5382329,15.5216537 25.6863277,15.7177757 C25.2286926,15.8298454 24.711213,15.8858802 24.1338888,15.8858802 C22.7257809,15.8858802 21.5324096,15.3763133 20.5537746,14.3571795 C19.5751397,13.3380456 19.0858222,11.910908 19.0858222,10.0757666 C19.0858222,8.26864269 19.5786599,6.80123003 20.5643354,5.67352866 C21.5500109,4.54582728 22.8384296,3.9819766 24.4295914,3.9819766 Z M27.4605435,8.96207397 C27.3830976,8.14256428 27.2035639,7.48765696 26.9219423,6.99735201 C26.4009424,6.08678568 25.5314358,5.63150252 24.3134225,5.63150252 C23.4403957,5.63150252 22.7081796,5.94494747 22.1167743,6.57183736 C21.525369,7.19872726 21.212065,7.99547279 21.1768623,8.96207397 L27.4605435,8.96207397 Z" id="Shape"></path>
                            <path d="M35.5091002,3.9819766 C36.3117217,3.9819766 37.0897012,4.16934313 37.8430389,4.54407619 C38.5963766,4.91880926 39.1701806,5.40386094 39.5644508,5.99923123 C39.9446399,6.56658409 40.1980993,7.22849577 40.324829,7.98496626 C40.4374776,8.50328863 40.4938019,9.32980268 40.4938019,10.4645084 L32.203567,10.4645084 C32.2387697,11.6062185 32.5098305,12.5220381 33.0167493,13.2119672 C33.5236681,13.9018963 34.3086883,14.2468609 35.3718097,14.2468609 C36.3645257,14.2468609 37.1565864,13.9211583 37.7479917,13.2697531 C38.0859375,12.8915179 38.3253159,12.4537456 38.4661267,11.9564363 L40.3353898,11.9564363 C40.286106,12.3696933 40.1224135,12.8302298 39.8443122,13.3380456 C39.5662109,13.8458615 39.254667,14.2608696 38.9096806,14.58307 C38.3323564,15.1434185 37.6177417,15.5216537 36.7658364,15.7177757 C36.3082014,15.8298454 35.7907218,15.8858802 35.2133975,15.8858802 C33.8052897,15.8858802 32.6119183,15.3763133 31.6332834,14.3571795 C30.6546484,13.3380456 30.165331,11.910908 30.165331,10.0757666 C30.165331,8.26864269 30.6581687,6.80123003 31.6438442,5.67352866 C32.6295197,4.54582728 33.9179383,3.9819766 35.5091002,3.9819766 Z M38.5400523,8.96207397 C38.4626064,8.14256428 38.2830726,7.48765696 38.0014511,6.99735201 C37.4804512,6.08678568 36.6109446,5.63150252 35.3929313,5.63150252 C34.5199044,5.63150252 33.7876884,5.94494747 33.1962831,6.57183736 C32.6048778,7.19872726 32.2915738,7.99547279 32.2563711,8.96207397 L38.5400523,8.96207397 Z" id="Shape"></path>
                            <path d="M48.0683426,11.9564363 C48.1246669,12.5868284 48.283079,13.070129 48.5435789,13.4063381 C49.0223356,14.0157171 49.8531192,14.3204066 51.0359298,14.3204066 C51.7399837,14.3204066 52.3595512,14.1680618 52.8946322,13.8633723 C53.4297131,13.5586828 53.6972536,13.0876399 53.6972536,12.4502434 C53.6972536,11.9669429 53.4825172,11.5992141 53.0530443,11.3470573 C52.7784633,11.1929615 52.2363418,11.0143504 51.4266797,10.8112241 L49.9164841,10.4329888 C48.9519302,10.1948407 48.2408358,9.92867515 47.7832007,9.63449218 C46.9664982,9.12317417 46.5581469,8.41573418 46.5581469,7.5121722 C46.5581469,6.44751004 46.9436164,5.5859742 47.7145555,4.9275647 C48.4854945,4.26915521 49.5222139,3.93995046 50.8247136,3.93995046 C52.5285241,3.93995046 53.7570982,4.43725976 54.5104359,5.43187836 C54.982152,6.06227044 55.2109696,6.741693 55.1968885,7.47014607 L53.401551,7.47014607 C53.3663483,7.04288033 53.2149767,6.65413855 52.9474362,6.30392073 C52.5109228,5.80661143 51.7540648,5.55795678 50.6768623,5.55795678 C49.9587273,5.55795678 49.4148457,5.69454173 49.0452174,5.96771163 C48.6755891,6.24088152 48.4907749,6.60160588 48.4907749,7.04988468 C48.4907749,7.54018963 48.7336735,7.93243359 49.2194707,8.22661655 C49.5010923,8.40172546 49.9164841,8.5558213 50.4656461,8.68890407 L51.7223824,8.99359358 C53.088247,9.32279833 54.0035171,9.64149654 54.4681927,9.94968822 C55.2074493,10.4329888 55.5770776,11.1929615 55.5770776,12.2296062 C55.5770776,13.2312292 55.1951283,14.0962672 54.4312298,14.8247203 C53.6673313,15.5531733 52.5038822,15.9173998 50.9408825,15.9173998 C49.2581937,15.9173998 48.0665824,15.5374135 47.3660488,14.7774408 C46.6655151,14.0174682 46.2906064,13.0771333 46.2413226,11.9564363 L48.0683426,11.9564363 Z" id="Path"></path>
                            <path d="M56.8033518,0 L58.7042974,0 L58.7042974,5.75758093 C59.1548919,5.19022807 59.5597229,4.79097976 59.9187904,4.559836 C60.5313173,4.16058768 61.2952158,3.96096353 62.2104859,3.96096353 C63.8509315,3.96096353 64.9633367,4.53181857 65.5477014,5.67352866 C65.8645257,6.29691637 66.0229378,7.16195439 66.0229378,8.26864269 L66.0229378,15.4866319 L64.0691882,15.4866319 L64.0691882,8.39472111 C64.0691882,7.56820706 63.9635801,6.96233023 63.752364,6.57709063 C63.4073775,5.96070727 62.7596479,5.65251559 61.8091751,5.65251559 C61.0206347,5.65251559 60.30602,5.92218331 59.665331,6.46151875 C59.0246419,7.00085419 58.7042974,8.01998804 58.7042974,9.5189203 L58.7042974,15.4866319 L56.8033518,15.4866319 L56.8033518,0 Z" id="Path"></path>
                            <path d="M67.8828605,4.2866661 L69.8154885,4.2866661 L69.8154885,15.4866319 L67.8828605,15.4866319 L67.8828605,4.2866661 Z M67.8828605,0.0525326728 L69.8154885,0.0525326728 L69.8154885,2.19586572 L67.8828605,2.19586572 L67.8828605,0.0525326728 Z" id="Shape"></path>
                            <path d="M76.5122617,14.2153412 C77.3993696,14.2153412 78.1368661,13.8458615 78.7247511,13.1069019 C79.3126361,12.3679423 79.6065786,11.263005 79.6065786,9.7920902 C79.6065786,8.89553259 79.4763287,8.12505339 79.2158287,7.4806526 C78.722991,6.24088152 77.821802,5.62099599 76.5122617,5.62099599 C75.1956808,5.62099599 74.2944918,6.27590331 73.8086946,7.58571795 C73.5481947,8.28615358 73.4179447,9.17570684 73.4179447,10.2543777 C73.4179447,11.1229179 73.5481947,11.8618775 73.8086946,12.4712565 C74.3015324,13.6339797 75.2027214,14.2153412 76.5122617,14.2153412 Z M71.5909248,4.2866661 L73.4390663,4.2866661 L73.4390663,5.778594 C73.8192554,5.26727599 74.2346472,4.87152985 74.6852418,4.5913556 C75.3259308,4.17109422 76.0792685,3.96096353 76.9452548,3.96096353 C78.226633,3.96096353 79.3143963,4.44951738 80.2085447,5.4266251 C81.1026932,6.40373281 81.5497675,7.79935082 81.5497675,9.61347912 C81.5497675,12.0650038 80.9055581,13.8160929 79.6171395,14.8667464 C78.8004369,15.5321602 77.8499641,15.8648672 76.7657211,15.8648672 C75.9138158,15.8648672 75.1992011,15.6792517 74.6218769,15.3080208 C74.283931,15.0978902 73.9072622,14.7371658 73.4918704,14.2258478 L73.4918704,19.9729222 L71.5909248,19.9729222 L71.5909248,4.2866661 Z" id="Shape"></path>
                            <path d="M87.5917704,14.2153412 C88.4788784,14.2153412 89.2163749,13.8458615 89.8042599,13.1069019 C90.3921449,12.3679423 90.6860874,11.263005 90.6860874,9.7920902 C90.6860874,8.89553259 90.5558374,8.12505339 90.2953375,7.4806526 C89.8024997,6.24088152 88.9013107,5.62099599 87.5917704,5.62099599 C86.2751896,5.62099599 85.3740006,6.27590331 84.8882034,7.58571795 C84.6277034,8.28615358 84.4974535,9.17570684 84.4974535,10.2543777 C84.4974535,11.1229179 84.6277034,11.8618775 84.8882034,12.4712565 C85.3810411,13.6339797 86.2822302,14.2153412 87.5917704,14.2153412 Z M82.6704336,4.2866661 L84.5185751,4.2866661 L84.5185751,5.778594 C84.8987642,5.26727599 85.314156,4.87152985 85.7647505,4.5913556 C86.4054396,4.17109422 87.1587773,3.96096353 88.0247636,3.96096353 C89.3061417,3.96096353 90.393905,4.44951738 91.2880535,5.4266251 C92.182202,6.40373281 92.6292762,7.79935082 92.6292762,9.61347912 C92.6292762,12.0650038 91.9850669,13.8160929 90.6966482,14.8667464 C89.8799457,15.5321602 88.9294729,15.8648672 87.8452299,15.8648672 C86.9933246,15.8648672 86.2787099,15.6792517 85.7013857,15.3080208 C85.3634398,15.0978902 84.9867709,14.7371658 84.5713791,14.2258478 L84.5713791,19.9729222 L82.6704336,19.9729222 L82.6704336,4.2866661 Z" id="Shape"></path>
                            <path d="M93.8977936,4.2866661 L95.8304217,4.2866661 L95.8304217,15.4866319 L93.8977936,15.4866319 L93.8977936,4.2866661 Z M93.8977936,0.0525326728 L95.8304217,0.0525326728 L95.8304217,2.19586572 L93.8977936,2.19586572 L93.8977936,0.0525326728 Z" id="Shape"></path>
                            <path d="M97.7537092,4.23413342 L99.5596075,4.23413342 L99.5596075,5.83112668 C100.094688,5.17271718 100.661452,4.69992312 101.259898,4.41274451 C101.858344,4.1255659 102.523675,3.9819766 103.255891,3.9819766 C104.861134,3.9819766 105.945377,4.53882293 106.50862,5.65251559 C106.818403,6.26189459 106.973295,7.13393696 106.973295,8.26864269 L106.973295,15.4866319 L105.040667,15.4866319 L105.040667,8.39472111 C105.040667,7.70829418 104.938579,7.15495003 104.734404,6.73468865 C104.396458,6.03425301 103.783931,5.68403519 102.896823,5.68403519 C102.446229,5.68403519 102.0766,5.72956351 101.787938,5.82062014 C101.266938,5.97471598 100.809303,6.28290766 100.415033,6.74519518 C100.098209,7.11642607 99.892273,7.49991458 99.7972257,7.89566072 C99.7021784,8.29140685 99.6546548,8.85700863 99.6546548,9.59246605 L99.6546548,15.4866319 L97.7537092,15.4866319 L97.7537092,4.23413342 Z" id="Path"></path>
                            <path d="M112.825204,4.03450927 C113.712312,4.03450927 114.486771,4.25164432 115.148582,4.68591441 C115.507649,4.93106688 115.873757,5.28828906 116.246906,5.75758093 L116.246906,4.33919877 L118,4.33919877 L118,14.5725634 C118,16.0014521 117.788784,17.1291535 117.366351,17.9556675 C116.577811,19.4826172 115.088737,20.2460921 112.899129,20.2460921 C111.681116,20.2460921 110.656718,19.9746733 109.825934,19.4318357 C108.99515,18.888998 108.530475,18.0397198 108.431907,16.884001 L110.364535,16.884001 C110.456062,17.3883147 110.639116,17.7770565 110.913697,18.0502264 C111.34317,18.4704877 112.019062,18.6806184 112.941373,18.6806184 C114.398764,18.6806184 115.352757,18.1693004 115.803352,17.1466644 C116.070892,16.5442897 116.194102,15.469121 116.17298,13.9211583 C115.792791,14.4955155 115.335156,14.9227812 114.800075,15.2029555 C114.264994,15.4831298 113.55742,15.6232169 112.677352,15.6232169 C111.452299,15.6232169 110.380376,15.1906979 109.461586,14.3256599 C108.542796,13.4606219 108.083401,12.0299821 108.083401,10.0337405 C108.083401,8.14956863 108.546316,6.6786538 109.472147,5.62099599 C110.397978,4.56333817 111.515663,4.03450927 112.825204,4.03450927 Z M116.246906,9.81310327 C116.246906,8.41923635 115.958244,7.38609379 115.380919,6.71367558 C114.803595,6.04125737 114.067859,5.70504826 113.17371,5.70504826 C111.836008,5.70504826 110.920738,6.32843598 110.4279,7.57521141 C110.1674,8.24062527 110.03715,9.11266763 110.03715,10.1913385 C110.03715,11.459127 110.29589,12.4239771 110.81337,13.0858888 C111.330849,13.7478005 112.026103,14.0787563 112.899129,14.0787563 C114.264994,14.0787563 115.226028,13.4658751 115.78223,12.2401128 C116.092014,11.5466815 116.246906,10.7376783 116.246906,9.81310327 Z" id="Shape"></path>
                            <polygon id="Path" points="2.08047933 29.3377466 4.25600594 38.2052618 6.46321497 29.3377466 8.59649835 29.3377466 10.8142682 38.1527291 13.1270853 29.3377466 15.0280309 29.3377466 11.7436194 40.5902452 9.76874812 40.5902452 7.46649181 31.880328 5.23816115 40.5902452 3.26328991 40.5902452 0 29.3377466"></polygon>
                            <path d="M20.3624597,39.3714871 C21.6227162,39.3714871 22.4869424,38.896942 22.9551382,37.9478517 C23.4233341,36.9987614 23.657432,35.9428547 23.657432,34.7801315 C23.657432,33.7294781 23.4884591,32.8749466 23.1505132,32.2165371 C22.6154322,31.1798924 21.6931216,30.66157 20.3835813,30.66157 C19.2218923,30.66157 18.3770276,31.1028445 17.8489872,31.9853934 C17.3209468,32.8679423 17.0569265,33.9326044 17.0569265,35.1793799 C17.0569265,36.3771248 17.3209468,37.3752456 17.8489872,38.1737422 C18.3770276,38.9722388 19.2148518,39.3714871 20.3624597,39.3714871 Z M20.4363853,29.0120441 C21.893777,29.0120441 23.1258713,29.4953447 24.1326684,30.4619458 C25.1394655,31.428547 25.6428641,32.8504314 25.6428641,34.7275989 C25.6428641,36.5417272 25.1993101,38.0406594 24.3122022,39.2243957 C23.4250942,40.4081319 22.0486688,41 20.1829259,41 C18.6269668,41 17.3913521,40.4764244 16.4760821,39.4292731 C15.560812,38.3821218 15.1031769,36.9759973 15.1031769,35.2108995 C15.1031769,33.3197232 15.5854538,31.8137866 16.5500077,30.6930896 C17.5145616,29.5723926 18.8100208,29.0120441 20.4363853,29.0120441 Z" id="Shape"></path>
                            <path d="M27.0064288,29.3377466 L28.8123271,29.3377466 L28.8123271,31.2814555 C28.9601784,30.9032203 29.3227662,30.4426839 29.9000904,29.8998462 C30.4774146,29.3570086 31.1427455,29.0855898 31.8960832,29.0855898 C31.9312859,29.0855898 31.9911305,29.089092 32.075617,29.0960964 C32.1601035,29.1031007 32.3044345,29.1171094 32.5086101,29.1381225 L32.5086101,31.1343641 C32.3959615,31.113351 32.2921136,31.0993423 32.1970663,31.0923379 C32.102019,31.0853336 31.9981711,31.0818314 31.8855224,31.0818314 C30.9280091,31.0818314 30.1922727,31.388272 29.6783134,32.0011532 C29.164354,32.6140343 28.9073743,33.3197232 28.9073743,34.1182199 L28.9073743,40.5902452 L27.0064288,40.5902452 L27.0064288,29.3377466 Z" id="Path"></path>
                            <polygon id="Path" points="33.2596479 25.1561459 35.1605935 25.1561459 35.1605935 40.5902452 33.2596479 40.5902452"></polygon>
                            <path d="M38.2666916,35.0953276 C38.2666916,36.3000769 38.5236713,37.3087042 39.0376307,38.1212095 C39.55159,38.9337149 40.3753331,39.3399675 41.5088599,39.3399675 C42.3889273,39.3399675 43.1123427,38.9634834 43.6791061,38.2105151 C44.2458696,37.4575468 44.5292513,36.3771248 44.5292513,34.9692492 C44.5292513,33.5473648 44.2370689,32.4949603 43.6527041,31.8120355 C43.0683394,31.1291108 42.3466841,30.7876484 41.4877383,30.7876484 C40.530225,30.7876484 39.7540055,31.1518749 39.15908,31.880328 C38.5641544,32.6087811 38.2666916,33.6804476 38.2666916,35.0953276 Z M41.1286708,29.1381225 C41.9946571,29.1381225 42.7198327,29.3202358 43.3041974,29.6844623 C43.6421433,29.894593 44.0258527,30.2623217 44.4553256,30.7876484 L44.4553256,25.1036132 L46.2823455,25.1036132 L46.2823455,40.5902452 L44.5714945,40.5902452 L44.5714945,39.0247715 C44.1279405,39.7182028 43.6034203,40.2190143 42.997934,40.5272059 C42.3924476,40.8353976 41.6989545,40.9894935 40.9174547,40.9894935 C39.6571981,40.9894935 38.5659146,40.4624156 37.6436039,39.40826 C36.7212933,38.3541044 36.260138,36.951482 36.260138,35.2003929 C36.260138,33.5613735 36.6808102,32.1412403 37.5221546,30.9399932 C38.3634991,29.738746 39.5656711,29.1381225 41.1286708,29.1381225 Z" id="Shape"></path>
                            <polygon id="Path" points="49.0188153 29.3377466 51.194342 38.2052618 53.401551 29.3377466 55.5348344 29.3377466 57.7526042 38.1527291 60.0654213 29.3377466 61.9663669 29.3377466 58.6819554 40.5902452 56.7070841 40.5902452 54.4048278 31.880328 52.1764972 40.5902452 50.2016259 40.5902452 46.938336 29.3377466"></polygon>
                            <path d="M62.812452,29.3902793 L64.74508,29.3902793 L64.74508,40.5902452 L62.812452,40.5902452 L62.812452,29.3902793 Z M62.812452,25.1561459 L64.74508,25.1561459 L64.74508,27.2994789 L62.812452,27.2994789 L62.812452,25.1561459 Z" id="Shape"></path>
                            <path d="M67.8722997,35.0953276 C67.8722997,36.3000769 68.1292794,37.3087042 68.6432388,38.1212095 C69.1571981,38.9337149 69.9809412,39.3399675 71.114468,39.3399675 C71.9945354,39.3399675 72.7179508,38.9634834 73.2847142,38.2105151 C73.8514776,37.4575468 74.1348593,36.3771248 74.1348593,34.9692492 C74.1348593,33.5473648 73.842677,32.4949603 73.2583122,31.8120355 C72.6739475,31.1291108 71.9522922,30.7876484 71.0933464,30.7876484 C70.1358331,30.7876484 69.3596136,31.1518749 68.7646881,31.880328 C68.1697625,32.6087811 67.8722997,33.6804476 67.8722997,35.0953276 Z M70.7342789,29.1381225 C71.6002652,29.1381225 72.3254408,29.3202358 72.9098055,29.6844623 C73.2477514,29.894593 73.6314608,30.2623217 74.0609337,30.7876484 L74.0609337,25.1036132 L75.8879536,25.1036132 L75.8879536,40.5902452 L74.1771026,40.5902452 L74.1771026,39.0247715 C73.7335486,39.7182028 73.2090284,40.2190143 72.6035421,40.5272059 C71.9980557,40.8353976 71.3045626,40.9894935 70.5230627,40.9894935 C69.2628062,40.9894935 68.1715226,40.4624156 67.249212,39.40826 C66.3269014,38.3541044 65.8657461,36.951482 65.8657461,35.2003929 C65.8657461,33.5613735 66.2864183,32.1412403 67.1277627,30.9399932 C67.9691071,29.738746 69.1712792,29.1381225 70.7342789,29.1381225 Z" id="Shape"></path>
                            <path d="M82.457997,29.0855898 C83.2606185,29.0855898 84.0385981,29.2729564 84.7919358,29.6476894 C85.5452735,30.0224225 86.1190774,30.5074742 86.5133476,31.1028445 C86.8935367,31.6701973 87.1469961,32.332109 87.2737258,33.0885795 C87.3863744,33.6069019 87.4426988,34.4334159 87.4426988,35.5681216 L79.1524639,35.5681216 C79.1876666,36.7098317 79.4587273,37.6256513 79.9656461,38.3155804 C80.472565,39.0055095 81.2575851,39.3504741 82.3207065,39.3504741 C83.3134225,39.3504741 84.1054832,39.0247715 84.6968885,38.3733664 C85.0348344,37.9951311 85.2742127,37.5573588 85.4150235,37.0600495 L87.2842866,37.0600495 C87.2350029,37.4733066 87.0713103,37.933843 86.793209,38.4416588 C86.5151077,38.9494747 86.2035639,39.3644828 85.8585774,39.6866832 C85.2812532,40.2470317 84.5666385,40.6252669 83.7147333,40.8213889 C83.2570982,40.9334586 82.7396186,40.9894935 82.1622944,40.9894935 C80.7541865,40.9894935 79.5608151,40.4799265 78.5821802,39.4607927 C77.6035452,38.4416588 77.1142278,37.0145212 77.1142278,35.1793799 C77.1142278,33.3722559 77.6070655,31.9048433 78.592741,30.7771419 C79.5784165,29.6494405 80.8668352,29.0855898 82.457997,29.0855898 Z M85.4889491,34.0656872 C85.4115032,33.2461775 85.2319695,32.5912702 84.9503479,32.1009652 C84.429348,31.1903989 83.5598414,30.7351157 82.3418281,30.7351157 C81.4688013,30.7351157 80.7365852,31.0485607 80.1451799,31.6754506 C79.5537746,32.3023405 79.2404706,33.099086 79.2052679,34.0656872 L85.4889491,34.0656872 Z" id="Shape"></path>
                        </g>
                        <g id="Group-42" transform="translate(557.591134, 42.555552)" fill="#000000" fill-rule="nonzero">
                            <g id="Non-EU-delivery-=-No">
                                <polygon id="Path" points="0.678075249 0.0531021366 3.1678828 0.0531021366 11.0293177 12.6914106 11.0293177 0.0531021366 13.0317587 0.0531021366 13.0317587 15.6545099 10.6690902 15.6545099 2.69111114 3.02682179 2.69111114 15.6545099 0.678075249 15.6545099"></polygon>
                                <path d="M19.6442167,14.4225403 C20.9085445,14.4225403 21.7755626,13.942851 22.2452709,12.9834724 C22.7149793,12.0240938 22.9498335,10.9567408 22.9498335,9.78141356 C22.9498335,8.71937083 22.7803147,7.85557607 22.4412771,7.19002929 C21.9044675,6.14214713 20.9791773,5.61820605 19.6654065,5.61820605 C18.4999647,5.61820605 17.6523706,6.064264 17.1226243,6.95637989 C16.592878,7.84849579 16.3280049,8.92469909 16.3280049,10.1849898 C16.3280049,11.3957185 16.592878,12.4046591 17.1226243,13.2118116 C17.6523706,14.0189641 18.4929014,14.4225403 19.6442167,14.4225403 Z M19.7183811,3.95079896 C21.1804809,3.95079896 22.4165556,4.43933862 23.4266052,5.41641793 C24.4366548,6.39349724 24.9416795,7.83079507 24.9416795,9.72831142 C24.9416795,11.5621052 24.4966927,13.0772862 23.6067189,14.2738543 C22.7167451,15.4704225 21.3358731,16.0687065 19.4641029,16.0687065 C17.9031172,16.0687065 16.6635109,15.5394552 15.745284,14.4809526 C14.8270571,13.4224501 14.3679436,12.0010829 14.3679436,10.2168511 C14.3679436,8.30517416 14.8517786,6.78291291 15.8194485,5.65006733 C16.7871184,4.51722175 18.0867626,3.95079896 19.7183811,3.95079896 Z" id="Shape"></path>
                                <path d="M26.2566746,4.28003221 L28.0684069,4.28003221 L28.0684069,5.89433716 C28.6052165,5.22879038 29.1738109,4.75087115 29.77419,4.46057947 C30.3745691,4.17028779 31.0420494,4.02514195 31.776631,4.02514195 C33.3870597,4.02514195 34.4748054,4.5880246 35.0398681,5.7137899 C35.3506526,6.32977468 35.5060448,7.21127015 35.5060448,8.3582763 L35.5060448,15.6545099 L33.5671734,15.6545099 L33.5671734,8.48572143 C33.5671734,7.79185351 33.4647558,7.232511 33.2599206,6.80769391 C32.9208829,6.09966542 32.3063773,5.74565118 31.4164035,5.74565118 C30.9643533,5.74565118 30.5935309,5.79167303 30.3039363,5.88371673 C29.7812533,6.039483 29.3221398,6.35101553 28.9265959,6.81831434 C28.6087482,7.19356944 28.4021471,7.58121503 28.3067928,7.98125113 C28.2114384,8.38128722 28.1637613,8.95302023 28.1637613,9.69645014 L28.1637613,15.6545099 L26.2566746,15.6545099 L26.2566746,4.28003221 Z" id="Path"></path>
                                <polygon id="Path" points="36.8740146 8.61316655 42.1926673 8.61316655 42.1926673 10.5779456 36.8740146 10.5779456"></polygon>
                                <polygon id="Path" points="44.1009782 0.0531021366 55.4481437 0.0531021366 55.4481437 1.96477905 46.1563938 1.96477905 46.1563938 6.70148964 54.7488786 6.70148964 54.7488786 8.50696228 46.1563938 8.50696228 46.1563938 13.7959351 55.6070676 13.7959351 55.6070676 15.6545099 44.1009782 15.6545099"></polygon>
                                <path d="M59.7085282,0.0531021366 L59.7085282,9.69645014 C59.7085282,10.8292957 59.9204267,11.7709736 60.3442237,12.5214838 C60.972856,13.6543294 62.0323486,14.2207522 63.5227015,14.2207522 C65.3097123,14.2207522 66.5245971,13.6083075 67.1673559,12.3834183 C67.5134568,11.7178715 67.6865073,10.8222154 67.6865073,9.69645014 L67.6865073,0.0531021366 L69.8266823,0.0531021366 L69.8266823,8.81495467 C69.8266823,10.7337119 69.5688724,12.2099513 69.0532527,13.2436729 C68.1067727,15.1270286 66.3197619,16.0687065 63.6922203,16.0687065 C61.0646787,16.0687065 59.2811995,15.1270286 58.3417828,13.2436729 C57.826163,12.2099513 57.5683532,10.7337119 57.5683532,8.81495467 L57.5683532,0.0531021366 L59.7085282,0.0531021366 Z" id="Path"></path>
                                <path d="M78.1673375,10.1000264 C78.1673375,11.3178354 78.4251473,12.3373964 78.940767,13.1587094 C79.4563868,13.9800225 80.282791,14.390679 81.4199797,14.390679 C82.3028902,14.390679 83.0286426,14.0101137 83.5972369,13.2489831 C84.1658313,12.4878525 84.4501284,11.3957185 84.4501284,9.97258125 C84.4501284,8.53528342 84.1570022,7.47147062 83.5707496,6.78114284 C82.984497,6.09081507 82.2605105,5.74565118 81.3987898,5.74565118 C80.4381832,5.74565118 79.6594562,6.11382599 79.0626087,6.85017562 C78.4657612,7.58652525 78.1673375,8.66980883 78.1673375,10.1000264 Z M81.0385623,4.07824409 C81.9073463,4.07824409 82.6348645,4.2623315 83.2211171,4.63050631 C83.5601547,4.84291486 83.9451036,5.21462981 84.375964,5.74565118 L84.375964,0 L86.2088861,0 L86.2088861,15.6545099 L84.4925081,15.6545099 L84.4925081,14.0720662 C84.0475213,14.7730144 83.5213066,15.2792548 82.9138642,15.5907873 C82.3064218,15.9023198 81.6106883,16.0580861 80.8266638,16.0580861 C79.562336,16.0580861 78.467527,15.5252947 77.5422368,14.4597118 C76.6169467,13.3941289 76.1543016,11.9763019 76.1543016,10.2062307 C76.1543016,8.54944399 76.5763328,7.11391623 77.4203952,5.89964737 C78.2644576,4.68537852 79.4705133,4.07824409 81.0385623,4.07824409 Z" id="Shape"></path>
                                <path d="M92.8001542,4.02514195 C93.6053686,4.02514195 94.3858615,4.21453957 95.1416328,4.59333481 C95.8974042,4.97213006 96.4730618,5.46243978 96.8686057,6.064264 C97.2500231,6.63776707 97.5043013,7.30685399 97.6314404,8.07152476 C97.7444529,8.59546584 97.8009592,9.43093946 97.8009592,10.5779456 L89.4839425,10.5779456 C89.5192589,11.732032 89.7911953,12.6577793 90.2997518,13.3551873 C90.8083082,14.0525954 91.5958644,14.4012994 92.6624202,14.4012994 C93.6583432,14.4012994 94.4529627,14.0720662 95.0462785,13.4135997 C95.3853161,13.0312643 95.6254678,12.5887465 95.7667335,12.0860463 L97.6420353,12.0860463 C97.5925923,12.5037831 97.428371,12.9693118 97.1493713,13.4826325 C96.8703716,13.9959531 96.5578213,14.41546 96.2117203,14.7411531 C95.6325311,15.3075759 94.9156078,15.6899113 94.0609504,15.8881593 C93.601837,16.0014438 93.0826856,16.0580861 92.5034963,16.0580861 C91.0908396,16.0580861 89.8936129,15.5429954 88.9118165,14.5128139 C87.93002,13.4826325 87.4391218,12.0400244 87.4391218,10.1849898 C87.4391218,8.3582763 87.9335517,6.87495662 88.9224114,5.73503075 C89.9112712,4.59510489 91.2038521,4.02514195 92.8001542,4.02514195 Z M95.8408979,9.0592245 C95.7632018,8.23083117 95.5830881,7.56882453 95.3005567,7.07320459 C94.7778737,6.15276756 93.9055582,5.69254904 92.6836101,5.69254904 C91.8077629,5.69254904 91.0731813,6.00939179 90.4798655,6.64307729 C89.8865497,7.27676278 89.5722335,8.08214519 89.5369171,9.0592245 L95.8408979,9.0592245 Z" id="Shape"></path>
                                <polygon id="Path" points="99.2430934 0.0531021366 101.15018 0.0531021366 101.15018 15.6545099 99.2430934 15.6545099"></polygon>
                                <path d="M103.058491,4.33313434 L104.997362,4.33313434 L104.997362,15.6545099 L103.058491,15.6545099 L103.058491,4.33313434 Z M103.058491,0.0531021366 L104.997362,0.0531021366 L104.997362,2.21966931 L103.058491,2.21966931 L103.058491,0.0531021366 Z" id="Shape"></path>
                                <polygon id="Path" points="107.859217 4.28003221 110.889365 13.5410448 114.057248 4.28003221 116.144449 4.28003221 111.864099 15.6545099 109.829873 15.6545099 105.644877 4.28003221"></polygon>
                                <path d="M121.549085,4.02514195 C122.354299,4.02514195 123.134792,4.21453957 123.890564,4.59333481 C124.646335,4.97213006 125.221993,5.46243978 125.617537,6.064264 C125.998954,6.63776707 126.253232,7.30685399 126.380371,8.07152476 C126.493384,8.59546584 126.54989,9.43093946 126.54989,10.5779456 L118.232873,10.5779456 C118.26819,11.732032 118.540126,12.6577793 119.048683,13.3551873 C119.557239,14.0525954 120.344795,14.4012994 121.411351,14.4012994 C122.407274,14.4012994 123.201893,14.0720662 123.795209,13.4135997 C124.134247,13.0312643 124.374399,12.5887465 124.515664,12.0860463 L126.390966,12.0860463 C126.341523,12.5037831 126.177302,12.9693118 125.898302,13.4826325 C125.619302,13.9959531 125.306752,14.41546 124.960651,14.7411531 C124.381462,15.3075759 123.664539,15.6899113 122.809881,15.8881593 C122.350768,16.0014438 121.831616,16.0580861 121.252427,16.0580861 C119.83977,16.0580861 118.642544,15.5429954 117.660747,14.5128139 C116.678951,13.4826325 116.188053,12.0400244 116.188053,10.1849898 C116.188053,8.3582763 116.682482,6.87495662 117.671342,5.73503075 C118.660202,4.59510489 119.952783,4.02514195 121.549085,4.02514195 Z M124.589829,9.0592245 C124.512133,8.23083117 124.332019,7.56882453 124.049488,7.07320459 C123.526805,6.15276756 122.654489,5.69254904 121.432541,5.69254904 C120.556694,5.69254904 119.822112,6.00939179 119.228796,6.64307729 C118.63548,7.27676278 118.321164,8.08214519 118.285848,9.0592245 L124.589829,9.0592245 Z" id="Shape"></path>
                                <path d="M127.992024,4.28003221 L129.803757,4.28003221 L129.803757,6.24481126 C129.952085,5.86247588 130.315845,5.39694715 130.895034,4.84822507 C131.474223,4.29950299 132.141703,4.02514195 132.897475,4.02514195 C132.932791,4.02514195 132.992829,4.0286821 133.077589,4.03576238 C133.162348,4.04284266 133.307145,4.05700323 133.511981,4.07824409 L133.511981,6.09612528 C133.398968,6.07488442 133.294785,6.06072386 133.19943,6.05364357 C133.104076,6.04656329 132.999892,6.04302314 132.88688,6.04302314 C131.926273,6.04302314 131.18816,6.35278561 130.67254,6.97231053 C130.156921,7.59183546 129.899111,8.30517416 129.899111,9.11232664 L129.899111,15.6545099 L127.992024,15.6545099 L127.992024,4.28003221 Z" id="Path"></path>
                                <path d="M141.300475,4.28003221 L143.408866,4.28003221 C143.140461,5.00930155 142.543613,6.6731685 141.618323,9.27163305 C140.926121,11.2257917 140.346932,12.8188558 139.880755,14.0508253 C138.778883,16.9537421 138.001922,18.7238134 137.549872,19.361039 C137.097821,19.9982646 136.32086,20.3168775 135.218988,20.3168775 C134.950583,20.3168775 134.743982,20.306257 134.599185,20.2850162 C134.454387,20.2637753 134.276039,20.2248338 134.064141,20.1681915 L134.064141,18.4264414 C134.396115,18.5184851 134.636267,18.5751274 134.784596,18.5963682 C134.932925,18.6176091 135.063596,18.6282295 135.176608,18.6282295 C135.529772,18.6282295 135.789348,18.5698172 135.955335,18.4529925 C136.121322,18.3361678 136.260822,18.192792 136.373835,18.0228652 C136.409151,17.9662229 136.53629,17.6759312 136.755252,17.1519901 C136.974214,16.628049 137.133138,16.2386334 137.232024,15.9837431 L133.036433,4.28003221 L135.197798,4.28003221 L138.238542,13.5410448 L141.300475,4.28003221 Z" id="Path"></path>
                                <path d="M11.0505076,32.3002596 L11.0505076,34.0844914 L0,34.0844914 L0,32.3002596 L11.0505076,32.3002596 Z M11.0505076,36.8564229 L11.0505076,38.672516 L0,38.672516 L0,36.8564229 L11.0505076,36.8564229 Z" id="Shape"></path>
                                <polygon id="Path" points="17.4734812 25.4288431 19.9632887 25.4288431 27.8247237 38.0671516 27.8247237 25.4288431 29.8271646 25.4288431 29.8271646 41.0302509 27.4644962 41.0302509 19.4865171 28.4025628 19.4865171 41.0302509 17.4734812 41.0302509"></polygon>
                                <path d="M36.4396226,39.7982813 C37.7039504,39.7982813 38.5709685,39.318592 39.0406769,38.3592134 C39.5103853,37.3998348 39.7452394,36.3324818 39.7452394,35.1571546 C39.7452394,34.0951118 39.5757206,33.2313171 39.236683,32.5657703 C38.6998734,31.5178881 37.7745833,30.9939471 36.4608125,30.9939471 C35.2953706,30.9939471 34.4477766,31.440005 33.9180303,32.3321209 C33.388284,33.2242368 33.1234108,34.3004401 33.1234108,35.5607308 C33.1234108,36.7714595 33.388284,37.7804001 33.9180303,38.5875526 C34.4477766,39.3947051 35.2883073,39.7982813 36.4396226,39.7982813 Z M36.5137871,29.32654 C37.9758868,29.32654 39.2119615,29.8150796 40.2220111,30.7921589 C41.2320607,31.7692382 41.7370855,33.2065361 41.7370855,35.1040524 C41.7370855,36.9378462 41.2920986,38.4530272 40.4021248,39.6495953 C39.5121511,40.8461635 38.1312791,41.4444475 36.2595089,41.4444475 C34.6985231,41.4444475 33.4589168,40.9151962 32.5406899,39.8566936 C31.622463,38.7981911 31.1633496,37.3768239 31.1633496,35.5925921 C31.1633496,33.6809152 31.6471845,32.1586539 32.6148544,31.0258083 C33.5825243,29.8929628 34.8821685,29.32654 36.5137871,29.32654 Z" id="Shape"></path>
                                <polygon id="Path" points="49.6115639 25.4288431 54.0826226 38.7149977 58.5007066 25.4288431 60.8633751 25.4288431 55.1844949 41.0302509 52.9489655 41.0302509 47.2806803 25.4288431"></polygon>
                                <path d="M68.2916424,34.6367536 L65.9289739,27.7440963 L63.4179765,34.6367536 L68.2916424,34.6367536 Z M64.8271016,25.4288431 L67.2109599,25.4288431 L72.8580554,41.0302509 L70.5483615,41.0302509 L68.9697176,36.3572628 L62.8140657,36.3572628 L61.1294725,41.0302509 L58.9681077,41.0302509 L64.8271016,25.4288431 Z" id="Shape"></path>
                                <polygon id="Path" points="83.5495598 25.4288431 83.5495598 27.2874179 78.3050715 27.2874179 78.3050715 41.0302509 76.1648965 41.0302509 76.1648965 27.2874179 70.9204082 27.2874179 70.9204082 25.4288431"></polygon>
                            </g>
                        </g>
                        <g id="2-Year-warranty" transform="translate(380.000000, 42.000000)" fill="#000000" fill-rule="nonzero">
                            <path d="M0.48678544,15.7246354 C0.557334054,14.4044369 0.827182505,13.2555073 1.29633079,12.2778467 C1.76547908,11.3001862 2.68084735,10.4117282 4.04243561,9.61247285 L6.07423571,8.42429414 C6.98431283,7.8890785 7.6227778,7.43236115 7.98963059,7.0541421 C8.56812923,6.4618368 8.85737855,5.78389699 8.85737855,5.02032268 C8.85737855,4.12829662 8.59282125,3.42002792 8.06370664,2.8955166 C7.53459203,2.37100527 6.82910588,2.10874961 5.9472482,2.10874961 C4.64209883,2.10874961 3.73907657,2.60828421 3.23818141,3.6073534 C2.97009667,4.14256904 2.82194458,4.88473472 2.79372513,5.83385045 L0.857165666,5.83385045 C0.87833025,4.49937946 1.12172297,3.41110766 1.58734383,2.56903506 C2.41276262,1.08470369 3.8695915,0.342538008 5.95783049,0.342538008 C7.69332641,0.342538008 8.96143776,0.817095873 9.76216453,1.7662116 C10.5628913,2.71532733 10.9632547,3.77148619 10.9632547,4.93468818 C10.9632547,6.16211604 10.5364356,7.21113869 9.68279734,8.08175613 C9.18895704,8.58842693 8.30357193,9.20214086 7.026642,9.92289792 L5.57686798,10.7364257 C4.88549155,11.1217809 4.34226722,11.4892957 3.94719498,11.8389699 C3.24170884,12.45982 2.79725256,13.1484642 2.61382617,13.9049023 L10.8891786,13.9049023 L10.8891786,15.7246354 L0.48678544,15.7246354 Z" id="Path"></path>
                            <polygon id="Path" points="16.0452006 0 18.5002924 0 22.9660197 7.5572448 27.431747 0 29.8974211 0 24.0242489 9.38768228 24.0242489 15.7246354 21.9183728 15.7246354 21.9183728 9.38768228"></polygon>
                            <path d="M33.232066,4.00341297 C34.0363202,4.00341297 34.8158823,4.19430655 35.5707525,4.5760937 C36.3256227,4.95788086 36.9005939,5.4520633 37.2956661,6.05864102 C37.6766287,6.63667391 37.9306037,7.31104561 38.0575912,8.08175613 C38.170469,8.60983556 38.2269079,9.45190816 38.2269079,10.6079739 L29.9198085,10.6079739 C29.9550828,11.7711759 30.226695,12.7042352 30.734645,13.4071517 C31.242595,14.1100683 32.0292121,14.4615265 33.0944962,14.4615265 C34.0892316,14.4615265 34.8829035,14.1296928 35.4755119,13.4660254 C35.8141452,13.0806702 36.0540105,12.6346572 36.1951078,12.1279863 L38.0681735,12.1279863 C38.0187894,12.5490226 37.8547639,13.0182284 37.5760969,13.5356035 C37.2974299,14.0529786 36.9852522,14.4757989 36.639564,14.8040645 C36.0610654,15.3749612 35.344997,15.7603165 34.4913587,15.9601303 C34.0327927,16.0743096 33.5142604,16.1313993 32.9357618,16.1313993 C31.5247895,16.1313993 30.3289905,15.6122401 29.3483647,14.5739218 C28.367739,13.5356035 27.8774261,12.081601 27.8774261,10.2119144 C27.8774261,8.37077257 28.3712664,6.87573689 29.358947,5.72680732 C30.3466276,4.57787775 31.6376673,4.00341297 33.232066,4.00341297 Z M36.2691838,9.07725721 C36.1915803,8.24232082 36.0116814,7.57508532 35.7294869,7.07555073 C35.2074272,6.14784362 34.3361518,5.68399007 33.1156607,5.68399007 C32.2408579,5.68399007 31.5071523,6.0033354 30.914544,6.64202606 C30.3219356,7.28071672 30.0079943,8.09246044 29.97272,9.07725721 L36.2691838,9.07725721 Z" id="Shape"></path>
                            <path d="M41.0747673,12.6739063 C41.0747673,13.2305306 41.2758308,13.6694074 41.677958,13.9905368 C42.0800851,14.3116661 42.5562882,14.4722308 43.1065674,14.4722308 C43.7767792,14.4722308 44.4258265,14.3152343 45.0537092,14.0012411 C46.1119384,13.4802979 46.641053,12.6275209 46.641053,11.4429103 L46.641053,9.89078498 C46.4082426,10.0406454 46.1084109,10.165529 45.7415581,10.2654359 C45.3747054,10.3653428 45.0149074,10.4367049 44.6621643,10.4795222 L43.5086945,10.6293826 C42.8173181,10.7221533 42.2987858,10.8684455 41.9530975,11.0682594 C41.367544,11.4036612 41.0747673,11.9388768 41.0747673,12.6739063 Z M45.6886467,8.77753646 C46.1260481,8.72044679 46.4188248,8.53490537 46.5669769,8.22091219 C46.6516353,8.04964319 46.6939644,7.803444 46.6939644,7.48231461 C46.6939644,6.82578343 46.4629177,6.34944151 46.0008243,6.05328886 C45.5387309,5.75713621 44.8773376,5.60905988 44.0166445,5.60905988 C43.0219091,5.60905988 42.3164229,5.88023581 41.9001861,6.42258765 C41.6673757,6.72230841 41.5156961,7.16832144 41.4451475,7.76062675 L39.6673224,7.76062675 C39.7025967,6.34765746 40.1558716,5.36464474 41.027147,4.81158858 C41.8984224,4.25853242 42.9090313,3.98200434 44.0589737,3.98200434 C45.3923425,3.98200434 46.4752637,4.23890785 47.3077374,4.75271486 C48.1331562,5.26652187 48.5458656,6.06577723 48.5458656,7.15048092 L48.5458656,13.7550419 C48.5458656,13.9548557 48.586431,14.1154204 48.6675619,14.236736 C48.7486928,14.3580515 48.9197732,14.4187093 49.1808031,14.4187093 C49.2654614,14.4187093 49.3607021,14.4133571 49.466525,14.4026528 C49.5723479,14.3919485 49.6852257,14.375892 49.8051583,14.3544834 L49.8051583,15.778157 C49.5088542,15.8637915 49.2830986,15.9173131 49.1278916,15.9387217 C48.9726847,15.9601303 48.7610388,15.9708346 48.4929541,15.9708346 C47.836852,15.9708346 47.3606488,15.7353397 47.0643447,15.26435 C46.9091377,15.0145827 46.7997874,14.6613404 46.7362936,14.204623 C46.3482762,14.71843 45.7909422,15.1644431 45.0642914,15.5426621 C44.3376407,15.9208812 43.5369139,16.1099907 42.6621111,16.1099907 C41.6109368,16.1099907 40.7520074,15.7870773 40.085323,15.1412504 C39.4186386,14.4954235 39.0852964,13.6872479 39.0852964,12.7167235 C39.0852964,11.6534285 39.4133474,10.8291964 40.0694495,10.2440273 C40.7255517,9.65885821 41.5862448,9.29847968 42.6515288,9.16289172 L45.6886467,8.77753646 Z" id="Shape"></path>
                            <path d="M50.7693698,4.26031648 L52.5789417,4.26031648 L52.5789417,6.24061433 C52.7270938,5.85525908 53.0904192,5.38605337 53.6689178,4.83299721 C54.2474165,4.27994105 54.9141009,4.00341297 55.668971,4.00341297 C55.7042454,4.00341297 55.7642117,4.00698107 55.84887,4.01411728 C55.9335284,4.02125349 56.078153,4.03552591 56.282744,4.05693453 L56.282744,6.09075396 C56.1698662,6.06934533 56.065807,6.05507291 55.9705664,6.0479367 C55.8753257,6.0408005 55.7712665,6.03723239 55.6583888,6.03723239 C54.6989276,6.03723239 53.9616946,6.34944151 53.4466897,6.97385976 C52.9316848,7.598278 52.6741824,8.31725101 52.6741824,9.13077878 L52.6741824,15.7246354 L50.7693698,15.7246354 L50.7693698,4.26031648 Z" id="Path"></path>
                            <polygon id="Path" points="2.08471156 29.8364877 4.26466375 38.8709277 6.47636281 29.8364877 8.61398583 29.8364877 10.8362672 38.8174061 13.1537892 29.8364877 15.0586018 29.8364877 11.7675089 41.3008067 9.78862026 41.3008067 7.48168057 32.4269314 5.24881692 41.3008067 3.26992828 41.3008067 0 29.8364877"></polygon>
                            <path d="M17.3667643,38.2500776 C17.3667643,38.8067018 17.5678279,39.2455787 17.969955,39.566708 C18.3720821,39.8878374 18.8482852,40.0484021 19.3985644,40.0484021 C20.0687762,40.0484021 20.7178235,39.8914055 21.3457062,39.5774123 C22.4039354,39.0564691 22.93305,38.2036922 22.93305,37.0190816 L22.93305,35.4669563 C22.7002396,35.6168166 22.4004079,35.7417003 22.0335551,35.8416072 C21.6667024,35.9415141 21.3069044,36.0128762 20.9541613,36.0556935 L19.8006915,36.2055538 C19.1093151,36.2983245 18.5907828,36.4446168 18.2450946,36.6444307 C17.6595411,36.9798325 17.3667643,37.5150481 17.3667643,38.2500776 Z M21.9806437,34.3537077 C22.4180451,34.2966181 22.7108218,34.1110766 22.8589739,33.7970835 C22.9436323,33.6258145 22.9859614,33.3796153 22.9859614,33.0584859 C22.9859614,32.4019547 22.7549147,31.9256128 22.2928213,31.6294601 C21.8307279,31.3333075 21.1693346,31.1852312 20.3086415,31.1852312 C19.3139061,31.1852312 18.6084199,31.4564071 18.1921831,31.9987589 C17.9593727,32.2984797 17.8076931,32.7444927 17.7371445,33.336798 L15.9593194,33.336798 C15.9945937,31.9238287 16.4478686,30.940816 17.319144,30.3877599 C18.1904194,29.8347037 19.2010283,29.5581756 20.3509707,29.5581756 C21.6843395,29.5581756 22.7672607,29.8150791 23.5997344,30.3288861 C24.4251532,30.8426931 24.8378626,31.6419485 24.8378626,32.7266522 L24.8378626,39.3312132 C24.8378626,39.531027 24.878428,39.6915917 24.9595589,39.8129072 C25.0406898,39.9342228 25.2117702,39.9948805 25.4728001,39.9948805 C25.5574584,39.9948805 25.6526991,39.9895284 25.758522,39.9788241 C25.8643449,39.9681198 25.9772227,39.9520633 26.0971553,39.9306547 L26.0971553,41.3543283 C25.8008512,41.4399628 25.5750956,41.4934843 25.4198886,41.514893 C25.2646817,41.5363016 25.0530358,41.5470059 24.7849511,41.5470059 C24.128849,41.5470059 23.6526459,41.311511 23.3563417,40.8405213 C23.2011347,40.590754 23.0917844,40.2375116 23.0282906,39.7807943 C22.6402732,40.2946013 22.0829392,40.7406143 21.3562884,41.1188334 C20.6296377,41.4970524 19.8289109,41.686162 18.9541081,41.686162 C17.9029338,41.686162 17.0440044,41.3632485 16.37732,40.7174217 C15.7106356,40.0715948 15.3772934,39.2634192 15.3772934,38.2928948 C15.3772934,37.2295998 15.7053444,36.4053677 16.3614465,35.8201986 C17.0175487,35.2350295 17.8782418,34.8746509 18.9435258,34.739063 L21.9806437,34.3537077 Z" id="Shape"></path>
                            <path d="M27.0613668,29.8364877 L28.8709387,29.8364877 L28.8709387,31.8167856 C29.0190908,31.4314303 29.3824162,30.9622246 29.9609148,30.4091685 C30.5394135,29.8561123 31.2060979,29.5795842 31.9609681,29.5795842 C31.9962424,29.5795842 32.0562087,29.5831523 32.140867,29.5902886 C32.2255254,29.5974248 32.37015,29.6116972 32.574741,29.6331058 L32.574741,31.6669252 C32.4618632,31.6455166 32.357804,31.6312442 32.2625634,31.624108 C32.1673227,31.6169718 32.0632635,31.6134037 31.9503858,31.6134037 C30.9909246,31.6134037 30.2536916,31.9256128 29.7386867,32.550031 C29.2236818,33.1744493 28.9661794,33.8934223 28.9661794,34.70695 L28.9661794,41.3008067 L27.0613668,41.3008067 L27.0613668,29.8364877 Z" id="Path"></path>
                            <path d="M33.3273066,29.8364877 L35.1368785,29.8364877 L35.1368785,31.8167856 C35.2850306,31.4314303 35.648356,30.9622246 36.2268546,30.4091685 C36.8053533,29.8561123 37.4720377,29.5795842 38.2269079,29.5795842 C38.2621822,29.5795842 38.3221485,29.5831523 38.4068068,29.5902886 C38.4914652,29.5974248 38.6360898,29.6116972 38.8406808,29.6331058 L38.8406808,31.6669252 C38.727803,31.6455166 38.6237438,31.6312442 38.5285032,31.624108 C38.4332626,31.6169718 38.3292034,31.6134037 38.2163256,31.6134037 C37.2568644,31.6134037 36.5196314,31.9256128 36.0046265,32.550031 C35.4896216,33.1744493 35.2321192,33.8934223 35.2321192,34.70695 L35.2321192,41.3008067 L33.3273066,41.3008067 L33.3273066,29.8364877 Z" id="Path"></path>
                            <path d="M41.0006913,38.2500776 C41.0006913,38.8067018 41.2017548,39.2455787 41.6038819,39.566708 C42.006009,39.8878374 42.4822122,40.0484021 43.0324914,40.0484021 C43.7027032,40.0484021 44.3517504,39.8914055 44.9796331,39.5774123 C46.0378623,39.0564691 46.5669769,38.2036922 46.5669769,37.0190816 L46.5669769,35.4669563 C46.3341665,35.6168166 46.0343349,35.7417003 45.6674821,35.8416072 C45.3006293,35.9415141 44.9408314,36.0128762 44.5880883,36.0556935 L43.4346185,36.2055538 C42.743242,36.2983245 42.2247097,36.4446168 41.8790215,36.6444307 C41.293468,36.9798325 41.0006913,37.5150481 41.0006913,38.2500776 Z M45.6145706,34.3537077 C46.0519721,34.2966181 46.3447488,34.1110766 46.4929009,33.7970835 C46.5775592,33.6258145 46.6198884,33.3796153 46.6198884,33.0584859 C46.6198884,32.4019547 46.3888417,31.9256128 45.9267483,31.6294601 C45.4646548,31.3333075 44.8032616,31.1852312 43.9425685,31.1852312 C42.947833,31.1852312 42.2423469,31.4564071 41.82611,31.9987589 C41.5932996,32.2984797 41.4416201,32.7444927 41.3710715,33.336798 L39.5932464,33.336798 C39.6285207,31.9238287 40.0817955,30.940816 40.9530709,30.3877599 C41.8243463,29.8347037 42.8349552,29.5581756 43.9848976,29.5581756 C45.3182665,29.5581756 46.4011877,29.8150791 47.2336613,30.3288861 C48.0590801,30.8426931 48.4717895,31.6419485 48.4717895,32.7266522 L48.4717895,39.3312132 C48.4717895,39.531027 48.512355,39.6915917 48.5934859,39.8129072 C48.6746168,39.9342228 48.8456972,39.9948805 49.1067271,39.9948805 C49.1913854,39.9948805 49.286626,39.9895284 49.3924489,39.9788241 C49.4982719,39.9681198 49.6111497,39.9520633 49.7310823,39.9306547 L49.7310823,41.3543283 C49.4347781,41.4399628 49.2090225,41.4934843 49.0538156,41.514893 C48.8986086,41.5363016 48.6869628,41.5470059 48.4188781,41.5470059 C47.762776,41.5470059 47.2865728,41.311511 46.9902686,40.8405213 C46.8350617,40.590754 46.7257113,40.2375116 46.6622176,39.7807943 C46.2742002,40.2946013 45.7168661,40.7406143 44.9902154,41.1188334 C44.2635647,41.4970524 43.4628379,41.686162 42.5880351,41.686162 C41.5368607,41.686162 40.6779313,41.3632485 40.0112469,40.7174217 C39.3445625,40.0715948 39.0112203,39.2634192 39.0112203,38.2928948 C39.0112203,37.2295998 39.3392714,36.4053677 39.9953735,35.8201986 C40.6514756,35.2350295 41.5121687,34.8746509 42.5774528,34.739063 L45.6145706,34.3537077 Z" id="Shape"></path>
                            <path d="M50.6423823,29.8364877 L52.4519542,29.8364877 L52.4519542,31.4635433 C52.9881237,30.7927397 53.55604,30.3110456 54.1557033,30.0184611 C54.7553665,29.7258765 55.4220509,29.5795842 56.1557565,29.5795842 C57.7642649,29.5795842 58.8507136,30.1469128 59.4151025,31.28157 C59.7255164,31.9024201 59.8807233,32.7908781 59.8807233,33.9469438 L59.8807233,41.3008067 L57.9441639,41.3008067 L57.9441639,34.0753956 C57.9441639,33.3760472 57.8418684,32.8122867 57.6372774,32.3841142 C57.298644,31.6704933 56.6848711,31.3136829 55.7959586,31.3136829 C55.3444474,31.3136829 54.9740672,31.3600683 54.6848179,31.452839 C54.1627581,31.6098356 53.7041921,31.9238287 53.3091199,32.3948185 C52.9916511,32.7730375 52.7852964,33.163745 52.6900558,33.5669407 C52.5948152,33.9701365 52.5471949,34.5463854 52.5471949,35.2956872 L52.5471949,41.3008067 L50.6423823,41.3008067 L50.6423823,29.8364877 Z" id="Path"></path>
                            <path d="M62.1253921,26.6358982 L64.0513693,26.6358982 L64.0513693,29.8364877 L65.8609413,29.8364877 L65.8609413,31.4100217 L64.0513693,31.4100217 L64.0513693,38.8923363 C64.0513693,39.291964 64.1854117,39.5595718 64.4534964,39.6951598 C64.6016485,39.7736581 64.8485686,39.8129072 65.1942568,39.8129072 C65.28597,39.8129072 65.3847381,39.8111232 65.490561,39.8075551 C65.596384,39.803987 65.719844,39.7950667 65.8609413,39.7807943 L65.8609413,41.3008067 C65.6422405,41.3650326 65.4147213,41.4114179 65.1783834,41.4399628 C64.9420456,41.4685076 64.6863068,41.48278 64.4111672,41.48278 C63.5222547,41.48278 62.919064,41.2526373 62.6015953,40.7923518 C62.2841265,40.3320664 62.1253921,39.7344089 62.1253921,38.9993795 L62.1253921,31.4100217 L60.5909598,31.4100217 L60.5909598,29.8364877 L62.1253921,29.8364877 L62.1253921,26.6358982 Z" id="Path"></path>
                            <path d="M73.8941239,29.8364877 L76,29.8364877 C75.7319153,30.5715172 75.1357795,32.2485262 74.2115926,34.8675147 C73.5202162,36.8371083 72.9417176,38.4427552 72.4760967,39.6844555 C71.3755383,42.610301 70.5995036,44.3943531 70.1479924,45.0366119 C69.6964813,45.6788706 68.9204465,46 67.8198881,46 C67.5518034,46 67.3454487,45.9892957 67.2008241,45.9678871 C67.0561994,45.9464784 66.8780641,45.9072293 66.6664183,45.8501396 L66.6664183,44.0946323 C66.9979968,44.187403 67.2378621,44.2444927 67.3860142,44.2659013 C67.5341663,44.28731 67.6646812,44.2980143 67.777559,44.2980143 C68.1303021,44.2980143 68.3895682,44.2391406 68.5553575,44.1213931 C68.7211467,44.0036457 68.8604802,43.8591374 68.973358,43.6878684 C69.0086323,43.6307788 69.1356198,43.3381942 69.3543205,42.8101148 C69.5730212,42.2820354 69.7317556,41.8895439 69.8305237,41.6326404 L65.639936,29.8364877 L67.7987236,29.8364877 L70.8358414,39.1706485 L73.8941239,29.8364877 Z" id="Path"></path>
                        </g>
                        <g id="Group">
                            <polygon id="Path" points="0 0 24 0 24 24 0 24"></polygon>
                            <path d="M11.186,4.31430589 L9.357,2.55884762 L10.772,1.2 L15.014,5.27462223 L10.772,9.34924446 L9.357,7.99039684 L11.186,6.23493857 L8.6,6.23493857 C6.94314575,6.23493857 5.6,7.52478338 5.6,9.11588759 L5.6,12.9571529 L3.6,12.9571529 L3.6,9.11588759 C3.6,6.46404724 5.83857625,4.31430589 8.6,4.31430589 L11.186,4.31430589 Z M9.6,11.0365203 C9.6,10.5061522 10.0477153,10.0762039 10.6,10.0762039 L20.6,10.0762039 C21.1522847,10.0762039 21.6,10.5061522 21.6,11.0365203 L21.6,20.6396837 C21.6,21.1700517 21.1522847,21.6 20.6,21.6 L10.6,21.6 C10.0477153,21.6 9.6,21.1700517 9.6,20.6396837 L9.6,11.0365203 Z M11.6,11.9968366 L11.6,19.6793673 L19.6,19.6793673 L19.6,11.9968366 L11.6,11.9968366 Z" id="Shape" fill="#B3B3B3" fill-rule="nonzero"></path>
                        </g>
                        <g id="Group" transform="translate(374.000000, 0.000000)">
                            <polygon id="Path" points="0 0 24 0 24 24 0 24"></polygon>
                            <path d="M16.4997465,15.4333864 L16.4997465,22.3002669 C16.4997805,22.4802358 16.4126418,22.6463184 16.2716281,22.7350505 C16.1306144,22.8237827 15.9575186,22.8214513 15.8184849,22.7289473 L12,20.184844 L8.18151511,22.7289473 C8.04234323,22.8215438 7.86905376,22.8237819 7.72797973,22.7348049 C7.58690571,22.6458278 7.49989472,22.4794152 7.50025349,22.2992676 L7.50025349,15.4343857 C5.1138307,13.312884 4.19425035,9.74931922 5.20672436,6.54648421 C6.21919838,3.34364919 8.9429322,1.2 12,1.2 C15.0570678,1.2 17.7808016,3.34364919 18.7932756,6.54648421 C19.8057497,9.74931922 18.8861693,13.312884 16.4997465,15.4343857 L16.4997465,15.4333864 Z M9.30015209,16.6055126 L9.30015209,19.6532404 L12,17.8545813 L14.6998479,19.6532404 L14.6998479,16.6055126 C13.8420566,16.9907247 12.925292,17.1882023 12,17.187079 C11.074708,17.1882023 10.1579434,16.9907247 9.30015209,16.6055126 L9.30015209,16.6055126 Z M12,15.1885689 C14.9821697,15.1885689 17.3996958,12.5042787 17.3996958,9.19303886 C17.3996958,5.88179903 14.9821697,3.19750877 12,3.19750877 C9.01783035,3.19750877 6.60030419,5.88179903 6.60030419,9.19303886 C6.60030419,12.5042787 9.01783035,15.1885689 12,15.1885689 L12,15.1885689 Z" id="Shape" fill="#B3B3B3" fill-rule="nonzero"></path>
                        </g>
                        <g id="Group" transform="translate(164.000000, 0.000000)">
                            <polygon id="Path" points="0 0 24 0 24 24 0 24"></polygon>
                            <path d="M12.6,21.6 C6.96654,21.6 2.4,17.03346 2.4,11.4 C2.4,5.76654 6.96654,1.2 12.6,1.2 C18.23346,1.2 22.8,5.76654 22.8,11.4 C22.8,17.03346 18.23346,21.6 12.6,21.6 Z M10.2642,19.22034 C9.25788291,17.0858006 8.67490864,14.7764188 8.54754,12.42 L4.50324,12.42 C4.90875443,15.6270375 7.16743089,18.2932195 10.2642,19.22034 L10.2642,19.22034 Z M10.5906,12.42 C10.74462,14.90778 11.45556,17.2446 12.6,19.30704 C13.7753661,17.1900819 14.4619522,14.8368691 14.6094,12.42 L10.5906,12.42 L10.5906,12.42 Z M20.69676,12.42 L16.65246,12.42 C16.5250914,14.7764188 15.9421171,17.0858006 14.9358,19.22034 C18.0325691,18.2932195 20.2912456,15.6270375 20.69676,12.42 Z M4.50324,10.38 L8.54754,10.38 C8.67490864,8.02358115 9.25788291,5.7141994 10.2642,3.57966 C7.16743089,4.50678052 4.90875443,7.17296252 4.50324,10.38 Z M10.59162,10.38 L14.60838,10.38 C14.4612463,7.96321081 13.7750101,5.61000267 12.6,3.49296 C11.4246339,5.60991808 10.7380478,7.96313093 10.5906,10.38 L10.59162,10.38 Z M14.9358,3.57966 C15.9421171,5.7141994 16.5250914,8.02358115 16.65246,10.38 L20.69676,10.38 C20.2912456,7.17296252 18.0325691,4.50678052 14.9358,3.57966 L14.9358,3.57966 Z" id="Shape" fill="#B3B3B3" fill-rule="nonzero"></path>
                        </g>
                    </g>
                </g>
                <g id="Group" transform="translate(622.000000, 4.000000)">
                    <polygon id="Path" points="0 0 23 0 23 23 0 23"></polygon>
                    <path d="M16.5,20 C14.5670034,20 13,18.4329966 13,16.5 C13,14.5670034 14.5670034,13 16.5,13 C18.4329966,13 20,14.5670034 20,16.5 C20,18.4329966 18.4329966,20 16.5,20 Z M16.5,18 C17.3284271,18 18,17.3284271 18,16.5 C18,15.6715729 17.3284271,15 16.5,15 C15.6715729,15 15,15.6715729 15,16.5 C15,17.3284271 15.6715729,18 16.5,18 Z M5.5,9 C4.24957048,9 3.09412589,8.3329038 2.4689111,7.25000002 C1.8436963,6.16709624 1.8436963,4.83290376 2.4689111,3.74999998 C3.09412589,2.6670962 4.24957048,2 5.5,2 C7.43299665,2 9,3.5670034 9,5.5 C9,7.4329966 7.43299665,9 5.5,9 L5.5,9 Z M5.50000007,7 C6.32842718,7 7.00000007,6.32842712 7.00000007,5.5 C7.00000007,4.67157288 6.32842718,4 5.50000007,4 C4.67157294,4 4.00000007,4.67157288 4.00000007,5.5 C4.00000007,6.32842712 4.67157294,7 5.50000007,7 Z M18.071,2.515 L19.485,3.929 L3.93000007,19.485 L2.51600007,18.071 L18.07,2.515 L18.071,2.515 Z" id="Shape" fill="#B3B3B3" fill-rule="nonzero"></path>
                </g>
            </g>
        </g>
    </g>
</svg>