<?xml version="1.0" encoding="UTF-8"?>
<svg viewBox="0 0 329 44" version="1.1" xmlns="http://www.w3.org/2000/svg">
  <g stroke="none" stroke-width="1" fill="none" fill-rule="evenodd">
    <g transform="translate(-340.000000, -1027.000000)" fill-rule="nonzero">
      <g transform="translate(340.264476, 1027.069336)">
        <g fill="#A4FF6B">
          <path
            d="M5.82342851,5.79733004 L3.55271368e-15,27.5306611 L16.0073034,43.4666622 L37.8382004,37.6693764 L43.6616289,15.9360453 L27.6541605,-1.15463195e-13 L5.82342851,5.79733004 Z M95.8234285,5.79733004 L90,27.5306611 L106.007303,43.4666622 L127.8382,37.6693764 L133.661629,15.9360453 L117.65416,-1.15463195e-13 L95.8234285,5.79733004 Z M185.823429,5.79733004 L180,27.5306611 L196.007303,43.4666622 L217.8382,37.6693764 L223.661629,15.9360453 L207.65416,1.70352621e-12 L185.823429,5.79733004 Z M275.823429,5.79733004 L270,27.5306611 L286.007303,43.4666622 L307.8382,37.6693764 L313.661629,15.9360453 L297.65416,-1.15463195e-13 L275.823429,5.79733004 Z"
          ></path>
        </g>
        <path
          d="M102.735524,12.9306645 L101.557487,12.9306645 L101.098253,16.1520827 C100.968469,17.1853678 100.948502,17.8539641 100.978452,18.8062072 L99.3711313,12.9306645 L97.70391,12.9306645 L96.7355239,19.9306645 L97.9235439,19.9306645 L98.3029116,17.1347166 C98.4925955,15.7975241 98.5225456,14.9161927 98.5125622,14.0551218 L100.099917,19.9306645 L101.767138,19.9306645 L102.735524,12.9306645 Z M107.203504,12.9306645 C108.789711,12.9306645 109.735524,13.911247 109.735524,15.6685286 C109.735524,17.4549363 108.888233,19.9306645 106.267544,19.9306645 C104.681337,19.9306645 103.735524,18.950082 103.735524,17.2025092 C103.735524,15.4452276 104.582815,12.9306645 107.203504,12.9306645 Z M112.371131,12.9306645 L113.978452,18.8062072 C113.948502,17.8539641 113.968469,17.1853678 114.098253,16.1520827 L114.098253,16.1520827 L114.557487,12.9306645 L115.735524,12.9306645 L114.767138,19.9306645 L113.099917,19.9306645 L111.512562,14.0551218 C111.522546,14.9161927 111.492595,15.7975241 111.302912,17.1347166 L111.302912,17.1347166 L110.923544,19.9306645 L109.735524,19.9306645 L110.70391,12.9306645 L112.371131,12.9306645 Z M107.124687,13.911247 C105.479366,13.911247 105.065573,16.0568781 105.065573,17.2801791 C105.065573,18.4840625 105.548332,18.950082 106.336509,18.950082 C108.001534,18.950082 108.395622,16.7947422 108.395622,15.5714412 C108.395622,14.3869752 107.94242,13.911247 107.124687,13.911247 Z M116.735524,16.9306645 L119.601339,16.9306645 L119.735524,15.9306645 L116.869709,15.9306645 L116.735524,16.9306645 Z M125.735524,12.9306645 L121.719297,12.9306645 L120.735524,19.9306645 L124.792319,19.9306645 L124.934307,18.9277701 L122.206112,18.9277701 L122.490088,16.8713302 L124.711183,16.8713302 L124.843029,15.8785661 L122.621934,15.8785661 L122.905909,13.9234286 L125.451548,13.9234286 L125.735524,12.9306645 Z M131.735524,12.9306645 L130.371467,12.9306645 L129.705057,17.4519109 C129.55928,18.4136673 129.069885,18.909418 128.163984,18.909418 C127.310147,18.909418 126.987355,18.4533274 127.133132,17.501486 L127.809954,12.9306645 L126.445897,12.9306645 L125.769074,17.521316 C125.560821,18.9292481 126.320945,19.9306645 128.080683,19.9306645 C129.798771,19.9306645 130.850449,18.9391631 131.058702,17.5609761 L131.735524,12.9306645 Z M137.504755,12.9306645 L135.753006,12.9306645 L134.735524,19.9306645 L136.707552,19.9306645 C139.697062,19.9306645 140.735524,17.8438338 140.735524,15.5847889 C140.735524,13.4067861 139.183076,12.9306645 137.504755,12.9306645 Z M137.620139,13.9335588 C138.543216,13.9335588 139.32993,14.1766848 139.32993,15.5746587 C139.32993,17.0739351 138.794964,18.9277701 136.906853,18.9277701 L136.256503,18.9277701 L136.980279,13.9335588 L137.620139,13.9335588 Z M146.735524,12.9306645 L146.451548,13.9234286 L143.905909,13.9234286 L143.621934,15.8785661 L145.843029,15.8785661 L145.711183,16.8713302 L143.490088,16.8713302 L143.206112,18.9277701 L145.934307,18.9277701 L145.792319,19.9306645 L141.735524,19.9306645 L142.719297,12.9306645 L146.735524,12.9306645 Z M148.917342,12.9306645 L148.132653,18.8365979 L150.735524,18.8365979 L150.458012,19.9306645 L146.735524,19.9306645 L147.663754,12.9306645 L148.917342,12.9306645 Z M153.735524,12.9306645 L152.586401,12.9306645 L151.735524,19.9306645 L152.884647,19.9306645 L153.735524,12.9306645 Z M156.179772,12.9306645 L156.891276,18.7454257 L159.301896,12.9306645 L160.735524,12.9306645 L157.560303,19.9306645 L155.914285,19.9306645 L154.735524,12.9306645 L156.179772,12.9306645 Z M165.735524,12.9306645 L165.451548,13.9234286 L162.905909,13.9234286 L162.621934,15.8785661 L164.843029,15.8785661 L164.711183,16.8713302 L162.490088,16.8713302 L162.206112,18.9277701 L164.934307,18.9277701 L164.792319,19.9306645 L160.735524,19.9306645 L161.719297,12.9306645 L165.735524,12.9306645 Z M169.027267,12.9306645 C170.832772,12.9306645 171.735524,13.56887 171.735524,14.7338483 C171.735524,15.5422419 171.357964,16.3689206 170.112018,16.8404114 L169.908001,16.9118512 L171.39424,19.9306645 L169.808918,19.9306645 L168.553873,17.1245863 L167.607084,17.1245863 L167.177726,19.9306645 L165.735524,19.9306645 L166.803414,12.9306645 L169.027267,12.9306645 Z M173.198682,12.9306645 L174.251313,16.1824735 L176.251313,12.9306645 L177.735524,12.9306645 L174.798682,17.27654 L174.409208,19.9306645 L173.019734,19.9306645 L173.409208,17.2866703 L171.735524,12.9306645 L173.198682,12.9306645 Z M168.895157,13.9031681 L168.091487,13.9031681 L167.750203,16.162213 L168.674973,16.162213 C169.885983,16.162213 170.238276,15.4125748 170.238276,14.7844995 C170.238276,14.1564243 169.808918,13.9031681 168.895157,13.9031681 Z M96.9906492,28.9372434 L100.59885,28.9372434 L100.735524,27.9306645 L97.1273235,27.9306645 L96.9906492,28.9372434 Z M96.7355239,30.9306645 L100.343724,30.9306645 L100.480399,29.9240855 L96.8721982,29.9240855 L96.7355239,30.9306645 Z M109.735524,24.9306645 L108.557487,24.9306645 L108.098253,28.1520827 C107.968469,29.1853678 107.948502,29.8539641 107.978452,30.8062072 L106.371131,24.9306645 L104.70391,24.9306645 L103.735524,31.9306645 L104.923544,31.9306645 L105.302912,29.1347166 C105.492595,27.7975241 105.522546,26.9161927 105.512562,26.0551218 L107.099917,31.9306645 L108.767138,31.9306645 L109.735524,24.9306645 Z M114.203504,24.9306645 C111.582815,24.9306645 110.735524,27.4452276 110.735524,29.2025092 C110.735524,30.950082 111.681337,31.9306645 113.267544,31.9306645 C115.888233,31.9306645 116.735524,29.4549363 116.735524,27.6685286 C116.735524,25.911247 115.789711,24.9306645 114.203504,24.9306645 Z M114.124687,25.911247 C114.94242,25.911247 115.395622,26.3869752 115.395622,27.5714412 C115.395622,28.7947422 115.001534,30.950082 113.336509,30.950082 C112.548332,30.950082 112.065573,30.4840625 112.065573,29.2801791 C112.065573,28.0568781 112.479366,25.911247 114.124687,25.911247 Z M121.179772,24.9306645 L121.891276,30.7454257 L124.301896,24.9306645 L125.735524,24.9306645 L122.560303,31.9306645 L120.914285,31.9306645 L119.735524,24.9306645 L121.179772,24.9306645 Z M129.556037,24.9306645 L130.735524,31.9306645 L129.330396,31.9306645 L129.125268,30.3098251 L126.786806,30.3098251 L126.130396,31.9306645 L124.735524,31.9306645 L127.915011,24.9306645 L129.556037,24.9306645 Z M135.735524,24.9306645 L135.457746,25.9943403 L133.752765,25.9943403 L132.967325,31.9306645 L131.712535,31.9306645 L132.497976,25.9943403 L130.735524,25.9943403 L130.879202,24.9306645 L135.735524,24.9306645 Z M128.581678,25.9031681 L127.197062,29.2968005 L129.002191,29.2968005 L128.581678,25.9031681 Z M12.7355239,12.9306645 L12.4560208,13.9234286 L9.95084485,13.9234286 L9.65063781,16.0203895 L11.8245509,16.0203895 L11.6899753,17.0131536 L9.50571027,17.0131536 L9.0916316,19.9306645 L7.73552394,19.9306645 L8.73966473,12.9306645 L12.7355239,12.9306645 Z M16.0272671,12.9306645 C17.8327716,12.9306645 18.7355239,13.56887 18.7355239,14.7338483 C18.7355239,15.5847889 18.3171753,16.4559901 16.908001,16.9118512 L16.908001,16.9118512 L18.3942395,19.9306645 L16.8089184,19.9306645 L15.5538726,17.1245863 L14.6070836,17.1245863 L14.1777258,19.9306645 L12.7355239,19.9306645 L13.8034138,12.9306645 Z M15.895157,13.9031681 L15.0914872,13.9031681 L14.7502028,16.162213 L15.6749735,16.162213 C16.8859827,16.162213 17.2382762,15.4125748 17.2382762,14.7844995 C17.2382762,14.1564243 16.8089184,13.9031681 15.895157,13.9031681 L15.895157,13.9031681 Z M24.7355239,12.9306645 L24.4515483,13.9234286 L21.9059093,13.9234286 L21.6219337,15.8785661 L23.843029,15.8785661 L23.7111832,16.8713302 L21.4900878,16.8713302 L21.2061122,18.9277701 L23.9343069,18.9277701 L23.7923191,19.9306645 L19.7355239,19.9306645 L20.7192968,12.9306645 L24.7355239,12.9306645 Z M29.7355239,12.9306645 L29.4515483,13.9234286 L26.9059093,13.9234286 L26.6219337,15.8785661 L28.843029,15.8785661 L28.7111832,16.8713302 L26.4900878,16.8713302 L26.2061122,18.9277701 L28.9343069,18.9277701 L28.7923191,19.9306645 L24.7355239,19.9306645 L25.7192968,12.9306645 L29.7355239,12.9306645 Z M35.3848978,12.9306645 C36.4153093,12.9306645 37.1559175,13.2413441 37.7355239,13.7753247 L37.7355239,13.7753247 L36.9412484,14.4743538 C36.47971,14.0762956 36.0074381,13.911247 35.4170982,13.911247 C34.6657565,13.911247 34.1183504,14.2413441 34.1183504,14.8141596 C34.1183504,15.2607616 34.4081536,15.4743538 35.4278316,15.7850334 C36.5548442,16.1054218 37.3491196,16.5811499 37.3491196,17.6588198 C37.3491196,18.7364897 36.4904434,19.9306645 34.2900857,19.9306645 C33.1094059,19.9306645 32.28293,19.5326062 31.7355239,18.9889169 L31.7355239,18.9889169 L32.5727332,18.2510528 C33.0235382,18.6782373 33.5709443,18.9209558 34.322286,18.9209558 C35.2775633,18.9209558 35.8679032,18.50348 35.8679032,17.8141596 C35.8679032,17.319014 35.5566331,17.0665868 34.6120892,16.7656159 C33.2811411,16.357849 32.6586009,15.8529946 32.6586009,14.9403732 C32.6586009,13.9792082 33.5602109,12.9306645 35.3848978,12.9306645 Z M40.0117303,12.9306645 L39.6123958,15.7367426 L42.0383526,15.7367426 L42.4277036,12.9306645 L43.7355239,12.9306645 L42.7671379,19.9306645 L41.4593176,19.9306645 L41.8886021,16.8004185 L39.4726288,16.8004185 L39.0333609,19.9306645 L37.7355239,19.9306645 L38.70391,12.9306645 L40.0117303,12.9306645 Z M46.7355239,12.9306645 L45.5864011,12.9306645 L44.7355239,19.9306645 L45.8846467,19.9306645 L46.7355239,12.9306645 Z M50.9932936,12.9306645 C52.7044453,12.9306645 53.7355239,13.5486095 53.7355239,14.8351507 C53.7355239,16.0788073 52.9360358,17.398193 50.6732111,17.4847702 L50.4338786,17.4892752 L49.545396,17.4892752 L49.1724526,19.9306645 L47.7355239,19.9306645 L48.7995093,12.9306645 L50.9932936,12.9306645 Z M56.9932936,12.9306645 C58.7044453,12.9306645 59.7355239,13.5486095 59.7355239,14.8351507 C59.7355239,16.0788073 58.9360358,17.398193 56.6732111,17.4847702 L56.4338786,17.4892752 L55.545396,17.4892752 L55.1724526,19.9306645 L53.7355239,19.9306645 L54.7995093,12.9306645 L56.9932936,12.9306645 Z M61.7355239,12.9306645 L60.8846467,19.9306645 L59.7355239,19.9306645 L60.5864011,12.9306645 L61.7355239,12.9306645 Z M50.8726355,13.9132984 L50.0828731,13.9132984 L49.6989609,16.4863808 L50.4338786,16.4863808 C51.8817762,16.4863808 52.2327817,15.6253099 52.2327817,14.8756717 C52.2327817,14.1766848 51.7282113,13.9132984 50.8726355,13.9132984 Z M56.8726355,13.9132984 L56.0828731,13.9132984 L55.6989609,16.4863808 L56.4338786,16.4863808 C57.8817762,16.4863808 58.2327817,15.6253099 58.2327817,14.8756717 C58.2327817,14.1766848 57.7282113,13.9132984 56.8726355,13.9132984 Z M65.3711313,12.9306645 L66.9784524,18.8062072 C66.9485023,17.8539641 66.968469,17.1853678 67.0982527,16.1520827 L67.0982527,16.1520827 L67.5574873,12.9306645 L68.7355239,12.9306645 L67.7671379,19.9306645 L66.0999166,19.9306645 L64.5125622,14.0551218 C64.5225456,14.9161927 64.4925955,15.7975241 64.3029116,17.1347166 L64.3029116,17.1347166 L63.9235439,19.9306645 L62.7355239,19.9306645 L63.70391,12.9306645 L65.3711313,12.9306645 Z M72.5337848,12.9306645 C73.5146544,12.9306645 74.2137848,13.2510528 74.7355239,13.7461985 L74.7355239,13.7461985 L73.9424805,14.3966839 C73.48335,14.0568781 73.1076979,13.9015383 72.52335,13.9015383 C70.7390022,13.9015383 70.1442196,15.8821208 70.1442196,17.3966839 C70.1442196,18.5131888 70.6242196,18.950082 71.5320457,18.950082 C71.9390022,18.950082 72.3250892,18.8627033 72.7007413,18.6782373 L72.7007413,18.6782373 L72.9720457,16.9403732 L71.9076979,16.9403732 L71.9076979,15.9889169 L74.4537848,15.9889169 L73.9737848,19.2510528 C73.2224805,19.687946 72.3668283,19.9306645 71.4172631,19.9306645 C69.6955239,19.9306645 68.7355239,19.0180431 68.7355239,17.2704703 C68.7355239,15.2995965 69.8207413,12.9306645 72.5337848,12.9306645 Z M10.0151209,24.9306645 L10.0654987,30.8669887 L12.0201587,24.9306645 L13.4206625,24.9306645 L13.6927028,30.8669887 L15.4861537,24.9306645 L16.7355239,24.9306645 L14.4987481,31.9306645 L12.7859018,31.9306645 L12.523937,26.3488989 L10.6700328,31.9306645 L9.00756424,31.9306645 L8.73552394,24.9306645 L10.0151209,24.9306645 Z M20.2035042,24.9306645 C21.7897111,24.9306645 22.7355239,25.911247 22.7355239,27.6685286 C22.7355239,29.4549363 21.8882333,31.9306645 19.2675436,31.9306645 C17.6813367,31.9306645 16.7355239,30.950082 16.7355239,29.2025092 C16.7355239,27.4452276 17.5828146,24.9306645 20.2035042,24.9306645 Z M20.1246865,25.911247 C18.4793663,25.911247 18.0655732,28.0568781 18.0655732,29.2801791 C18.0655732,30.4840625 18.5483318,30.950082 19.3365092,30.950082 C21.0015338,30.950082 21.3956225,28.7947422 21.3956225,27.5714412 C21.3956225,26.3869752 20.9424205,25.911247 20.1246865,25.911247 Z M27.0272671,24.9306645 C28.8327716,24.9306645 29.7355239,25.56887 29.7355239,26.7338483 C29.7355239,27.5847889 29.3171753,28.4559901 27.908001,28.9118512 L27.908001,28.9118512 L29.3942395,31.9306645 L27.8089184,31.9306645 L26.5538726,29.1245863 L25.6070836,29.1245863 L25.1777258,31.9306645 L23.7355239,31.9306645 L24.8034138,24.9306645 Z M31.9173421,24.9306645 L31.1326531,30.8365979 L33.7355239,30.8365979 L33.458012,31.9306645 L29.7355239,31.9306645 L30.6637536,24.9306645 L31.9173421,24.9306645 Z M26.895157,25.9031681 L26.0914872,25.9031681 L25.7502028,28.162213 L26.6749735,28.162213 C27.8859827,28.162213 28.2382762,27.4125748 28.2382762,26.7844995 C28.2382762,26.1564243 27.8089184,25.9031681 26.895157,25.9031681 L26.895157,25.9031681 Z M37.5047547,24.9306645 L35.7530065,24.9306645 L34.7355239,31.9306645 L36.7075519,31.9306645 C39.6970624,31.9306645 40.7355239,29.8438338 40.7355239,27.5847889 C40.7355239,25.4067861 39.1830764,24.9306645 37.5047547,24.9306645 Z M37.6201393,25.9335588 C38.5432162,25.9335588 39.3299295,26.1766848 39.3299295,27.5746587 C39.3299295,29.0739351 38.7949645,30.9277701 36.9068526,30.9277701 L36.256503,30.9277701 L36.9802792,25.9335588 L37.6201393,25.9335588 Z M43.0151209,24.9306645 L43.0654987,30.8669887 L45.0201587,24.9306645 L46.4206625,24.9306645 L46.6927028,30.8669887 L48.4861537,24.9306645 L49.7355239,24.9306645 L47.4987481,31.9306645 L45.7859018,31.9306645 L45.523937,26.3488989 L43.6700328,31.9306645 L42.0075642,31.9306645 L41.7355239,24.9306645 L43.0151209,24.9306645 Z M51.7355239,24.9306645 L50.8846467,31.9306645 L49.7355239,31.9306645 L50.5864011,24.9306645 L51.7355239,24.9306645 Z M55.5047547,24.9306645 C57.1830764,24.9306645 58.7355239,25.4067861 58.7355239,27.5847889 C58.7355239,29.8438338 57.6970624,31.9306645 54.7075519,31.9306645 L54.7075519,31.9306645 L52.7355239,31.9306645 L53.7530065,24.9306645 Z M63.7355239,24.9306645 L63.4515483,25.9234286 L60.9059093,25.9234286 L60.6219337,27.8785661 L62.843029,27.8785661 L62.7111832,28.8713302 L60.4900878,28.8713302 L60.2061122,30.9277701 L62.9343069,30.9277701 L62.7923191,31.9306645 L58.7355239,31.9306645 L59.7192968,24.9306645 L63.7355239,24.9306645 Z M55.6201393,25.9335588 L54.9802792,25.9335588 L54.256503,30.9277701 L54.9068526,30.9277701 C56.7949645,30.9277701 57.3299295,29.0739351 57.3299295,27.5746587 C57.3299295,26.1766848 56.5432162,25.9335588 55.6201393,25.9335588 L55.6201393,25.9335588 Z M191.918181,12.9306645 C192.639415,12.9306645 193.177673,13.1553295 193.609194,13.5535993 L193.735524,13.6782373 L193.071317,14.357849 C192.720764,14.0665868 192.379435,13.9209558 191.955081,13.9209558 C190.460616,13.9209558 189.990136,15.8821208 189.990136,17.2122179 C189.990136,18.4161014 190.497517,18.9015383 191.235524,18.9015383 C191.735729,18.9015383 192.119311,18.6867474 192.470497,18.4344534 L192.600838,18.3384315 L193.089767,19.134548 C192.637738,19.542315 191.964306,19.9306645 191.087922,19.9306645 C189.685708,19.9306645 188.735524,18.9694994 188.735524,17.1733829 C188.735524,15.357849 189.611908,12.9306645 191.918181,12.9306645 Z M197.027267,12.9306645 C198.832772,12.9306645 199.735524,13.56887 199.735524,14.7338483 C199.735524,15.5422419 199.357964,16.3689206 198.112018,16.8404114 L197.908001,16.9118512 L199.050937,19.2346645 L201.915011,12.9306645 L203.556037,12.9306645 L204.735524,19.9306645 L203.330396,19.9306645 L203.125268,18.3098251 L200.786806,18.3098251 L200.130396,19.9306645 L197.808918,19.9306645 L196.553873,17.1245863 L195.607084,17.1245863 L195.177726,19.9306645 L193.735524,19.9306645 L194.803414,12.9306645 L197.027267,12.9306645 Z M208.384898,12.9306645 C209.336047,12.9306645 210.040263,13.1953856 210.598852,13.6561021 L210.735524,13.7753247 L209.941248,14.4743538 C209.47971,14.0762956 209.007438,13.911247 208.417098,13.911247 C207.665756,13.911247 207.11835,14.2413441 207.11835,14.8141596 C207.11835,15.2607616 207.408154,15.4743538 208.427832,15.7850334 C209.554844,16.1054218 210.34912,16.5811499 210.34912,17.6588198 C210.34912,18.7364897 209.490443,19.9306645 207.290086,19.9306645 C206.19374,19.9306645 205.402805,19.5874408 204.857124,19.1031007 L204.735524,18.9889169 L205.572733,18.2510528 C206.023538,18.6782373 206.570944,18.9209558 207.322286,18.9209558 C208.277563,18.9209558 208.867903,18.50348 208.867903,17.8141596 C208.867903,17.319014 208.556633,17.0665868 207.612089,16.7656159 C206.281141,16.357849 205.658601,15.8529946 205.658601,14.9403732 C205.658601,13.9792082 206.560211,12.9306645 208.384898,12.9306645 Z M213.01173,12.9306645 L212.612396,15.7367426 L215.038353,15.7367426 L215.427704,12.9306645 L216.735524,12.9306645 L215.767138,19.9306645 L214.459318,19.9306645 L214.888602,16.8004185 L212.472629,16.8004185 L212.033361,19.9306645 L210.735524,19.9306645 L211.70391,12.9306645 L213.01173,12.9306645 Z M202.581678,13.9031681 L201.197062,17.2968005 L203.002191,17.2968005 L202.581678,13.9031681 Z M196.895157,13.9031681 L196.091487,13.9031681 L195.750203,16.162213 L196.674973,16.162213 C197.885983,16.162213 198.238276,15.4125748 198.238276,14.7844995 C198.238276,14.1564243 197.808918,13.9031681 196.895157,13.9031681 Z M191.027267,24.9306645 C192.832772,24.9306645 193.735524,25.56887 193.735524,26.7338483 C193.735524,27.5422419 193.357964,28.3689206 192.112018,28.8404114 L191.908001,28.9118512 L193.39424,31.9306645 L191.808918,31.9306645 L190.553873,29.1245863 L189.607084,29.1245863 L189.177726,31.9306645 L187.735524,31.9306645 L188.803414,24.9306645 L191.027267,24.9306645 Z M198.735524,24.9306645 L198.451548,25.9234286 L195.905909,25.9234286 L195.621934,27.8785661 L197.843029,27.8785661 L197.711183,28.8713302 L195.490088,28.8713302 L195.206112,30.9277701 L197.934307,30.9277701 L197.792319,31.9306645 L193.735524,31.9306645 L194.719297,24.9306645 L198.735524,24.9306645 Z M201.993294,24.9306645 C203.704445,24.9306645 204.735524,25.5486095 204.735524,26.8351507 C204.735524,28.121692 203.879948,29.4892752 201.433879,29.4892752 L201.433879,29.4892752 L200.545396,29.4892752 L200.172453,31.9306645 L198.735524,31.9306645 L199.799509,24.9306645 Z M201.872635,25.9132984 L201.082873,25.9132984 L200.698961,28.4863808 L201.433879,28.4863808 C202.881776,28.4863808 203.232782,27.6253099 203.232782,26.8756717 C203.232782,26.1766848 202.728211,25.9132984 201.872635,25.9132984 L201.872635,25.9132984 Z M190.895157,25.9031681 L190.091487,25.9031681 L189.750203,28.162213 L190.674973,28.162213 C191.885983,28.162213 192.238276,27.4125748 192.238276,26.7844995 C192.238276,26.1564243 191.808918,25.9031681 190.895157,25.9031681 Z M207.917342,24.9306645 L207.132653,30.8365979 L209.735524,30.8365979 L209.458012,31.9306645 L205.735524,31.9306645 L206.663754,24.9306645 L207.917342,24.9306645 Z M214.556037,24.9306645 L215.735524,31.9306645 L214.330396,31.9306645 L214.125268,30.3098251 L211.786806,30.3098251 L211.130396,31.9306645 L209.735524,31.9306645 L212.915011,24.9306645 L214.556037,24.9306645 Z M213.581678,25.9031681 L212.197062,29.2968005 L214.002191,29.2968005 L213.581678,25.9031681 Z M219.918181,24.9306645 C220.639415,24.9306645 221.177673,25.1553295 221.609194,25.5535993 L221.735524,25.6782373 L221.071317,26.357849 C220.720764,26.0665868 220.379435,25.9209558 219.955081,25.9209558 C218.460616,25.9209558 217.990136,27.8821208 217.990136,29.2122179 C217.990136,30.4161014 218.497517,30.9015383 219.235524,30.9015383 C219.735729,30.9015383 220.119311,30.6867474 220.470497,30.4344534 L220.600838,30.3384315 L221.089767,31.134548 C220.637738,31.542315 219.964306,31.9306645 219.087922,31.9306645 C217.685708,31.9306645 216.735524,30.9694994 216.735524,29.1733829 C216.735524,27.357849 217.611908,24.9306645 219.918181,24.9306645 Z M226.735524,24.9306645 L226.451548,25.9234286 L223.905909,25.9234286 L223.621934,27.8785661 L225.843029,27.8785661 L225.711183,28.8713302 L223.490088,28.8713302 L223.206112,30.9277701 L225.934307,30.9277701 L225.792319,31.9306645 L221.735524,31.9306645 L222.719297,24.9306645 L226.735524,24.9306645 Z M229.752099,24.9306645 L230.293535,29.8843548 L232.043535,24.9306645 L233.735524,24.9306645 L233.319778,31.9306645 L232.091878,31.9306645 L232.314253,28.9726327 C232.381933,27.9494778 232.478618,26.926323 232.604308,26.0753823 L232.604308,26.0753823 L230.728618,31.170896 L229.520054,31.170896 L228.910938,26.0956428 C228.852927,27.0681464 228.688563,28.0710408 228.495192,29.0638049 L228.495192,29.0638049 L227.963424,31.9306645 L226.735524,31.9306645 L228.195469,24.9306645 L229.752099,24.9306645 Z M239.735524,24.9306645 L239.451548,25.9234286 L236.905909,25.9234286 L236.621934,27.8785661 L238.843029,27.8785661 L238.711183,28.8713302 L236.490088,28.8713302 L236.206112,30.9277701 L238.934307,30.9277701 L238.792319,31.9306645 L234.735524,31.9306645 L235.719297,24.9306645 L239.735524,24.9306645 Z M242.371131,24.9306645 L243.978452,30.8062072 C243.948502,29.8539641 243.968469,29.1853678 244.098253,28.1520827 L244.098253,28.1520827 L244.557487,24.9306645 L245.735524,24.9306645 L244.767138,31.9306645 L243.099917,31.9306645 L241.512562,26.0551218 C241.522546,26.9161927 241.492595,27.7975241 241.302912,29.1347166 L241.302912,29.1347166 L240.923544,31.9306645 L239.735524,31.9306645 L240.70391,24.9306645 L242.371131,24.9306645 Z M251.735524,24.9306645 L246.879202,24.9306645 L246.735524,25.9943403 L248.497976,25.9943403 L247.712535,31.9306645 L248.967325,31.9306645 L249.752765,25.9943403 L251.457746,25.9943403 L251.735524,24.9306645 Z M280.694287,12.9306645 C279.756142,12.9306645 279.003565,13.2985477 278.333462,14.0036572 L279.086039,14.6985477 C279.570575,14.1978178 279.972637,13.9627813 280.519029,13.9627813 C281.034493,13.9627813 281.385008,14.2489127 281.385008,14.8007375 C281.385008,15.6693506 280.910782,16.2313944 277.859235,18.9496426 L277.735524,19.9306645 L281.993256,19.9306645 L282.281916,18.8985477 L279.36439,18.9189857 C282.230369,16.6094966 282.735524,15.7102265 282.735524,14.7087667 C282.735524,13.6868689 282.003565,12.9306645 280.694287,12.9306645 Z M287.198682,12.9306645 L288.251313,16.1824735 L290.251313,12.9306645 L291.735524,12.9306645 L288.798682,17.27654 L288.409208,19.9306645 L287.019734,19.9306645 L287.409208,17.2866703 L285.735524,12.9306645 L287.198682,12.9306645 Z M291.735524,19.9306645 L292.719297,12.9306645 L296.735524,12.9306645 L296.451548,13.9234286 L293.905909,13.9234286 L293.621934,15.8785661 L295.843029,15.8785661 L295.711183,16.8713302 L293.490088,16.8713302 L293.206112,18.9277701 L295.934307,18.9277701 L295.817603,19.7486645 L298.915011,12.9306645 L300.556037,12.9306645 L301.735524,19.9306645 L300.330396,19.9306645 L300.125268,18.3098251 L297.786806,18.3098251 L297.130396,19.9306645 L291.735524,19.9306645 Z M299.581678,13.9031681 L298.197062,17.2968005 L300.002191,17.2968005 L299.581678,13.9031681 Z M306.027267,12.9306645 C307.832772,12.9306645 308.735524,13.56887 308.735524,14.7338483 C308.735524,15.5847889 308.317175,16.4559901 306.908001,16.9118512 L306.908001,16.9118512 L308.39424,19.9306645 L306.808918,19.9306645 L305.553873,17.1245863 L304.607084,17.1245863 L304.177726,19.9306645 L302.735524,19.9306645 L303.803414,12.9306645 Z M312.384898,12.9306645 C313.415309,12.9306645 314.155917,13.2413441 314.735524,13.7753247 L314.735524,13.7753247 L313.941248,14.4743538 C313.47971,14.0762956 313.007438,13.911247 312.417098,13.911247 C311.665756,13.911247 311.11835,14.2413441 311.11835,14.8141596 C311.11835,15.2607616 311.408154,15.4743538 312.427832,15.7850334 C313.554844,16.1054218 314.34912,16.5811499 314.34912,17.6588198 C314.34912,18.7364897 313.490443,19.9306645 311.290086,19.9306645 C310.109406,19.9306645 309.28293,19.5326062 308.735524,18.9889169 L308.735524,18.9889169 L309.572733,18.2510528 C310.023538,18.6782373 310.570944,18.9209558 311.322286,18.9209558 C312.277563,18.9209558 312.867903,18.50348 312.867903,17.8141596 C312.867903,17.319014 312.556633,17.0665868 311.612089,16.7656159 C310.281141,16.357849 309.658601,15.8529946 309.658601,14.9403732 C309.658601,13.9792082 310.560211,12.9306645 312.384898,12.9306645 Z M305.895157,13.9031681 L305.091487,13.9031681 L304.750203,16.162213 L305.674973,16.162213 C306.885983,16.162213 307.238276,15.4125748 307.238276,14.7844995 C307.238276,14.1564243 306.808918,13.9031681 305.895157,13.9031681 L305.895157,13.9031681 Z M280.015121,24.9306645 L280.065499,30.8669887 L282.020159,24.9306645 L283.420662,24.9306645 L283.692703,30.8669887 L285.486154,24.9306645 L286.735524,24.9306645 L284.498748,31.9306645 L282.785902,31.9306645 L282.523937,26.3488989 L280.670033,31.9306645 L279.007564,31.9306645 L278.735524,24.9306645 L280.015121,24.9306645 Z M290.556037,24.9306645 L291.735524,31.9306645 L290.330396,31.9306645 L290.125268,30.3098251 L287.786806,30.3098251 L287.130396,31.9306645 L285.735524,31.9306645 L288.915011,24.9306645 L290.556037,24.9306645 Z M289.581678,25.9031681 L288.197062,29.2968005 L290.002191,29.2968005 L289.581678,25.9031681 Z M296.027267,24.9306645 C297.832772,24.9306645 298.735524,25.56887 298.735524,26.7338483 C298.735524,27.5422419 298.357964,28.3689206 297.112018,28.8404114 L296.908001,28.9118512 L298.39424,31.9306645 L296.808918,31.9306645 L295.553873,29.1245863 L294.607084,29.1245863 L294.177726,31.9306645 L292.735524,31.9306645 L293.803414,24.9306645 L296.027267,24.9306645 Z M302.808918,31.9306645 L301.553873,29.1245863 L300.607084,29.1245863 L300.177726,31.9306645 L298.735524,31.9306645 L299.803414,24.9306645 L302.027267,24.9306645 C303.832772,24.9306645 304.735524,25.56887 304.735524,26.7338483 C304.735524,27.5422419 304.357964,28.3689206 303.112018,28.8404114 L302.908001,28.9118512 L304.050603,31.2346645 L306.915011,24.9306645 L308.556037,24.9306645 L309.735524,31.9306645 L308.330396,31.9306645 L308.125268,30.3098251 L305.786806,30.3098251 L305.130396,31.9306645 L302.808918,31.9306645 Z M307.581678,25.9031681 L306.197062,29.2968005 L308.002191,29.2968005 L307.581678,25.9031681 Z M295.895157,25.9031681 L295.091487,25.9031681 L294.750203,28.162213 L295.674973,28.162213 C296.885983,28.162213 297.238276,27.4125748 297.238276,26.7844995 C297.238276,26.1564243 296.808918,25.9031681 295.895157,25.9031681 Z M301.895157,25.9031681 L301.091487,25.9031681 L300.750203,28.162213 L301.674973,28.162213 C302.885983,28.162213 303.238276,27.4125748 303.238276,26.7844995 C303.238276,26.1564243 302.808918,25.9031681 301.895157,25.9031681 Z M316.735524,24.9306645 L315.557487,24.9306645 L315.098253,28.1520827 C314.968469,29.1853678 314.948502,29.8539641 314.978452,30.8062072 L313.371131,24.9306645 L311.70391,24.9306645 L310.735524,31.9306645 L311.923544,31.9306645 L312.302912,29.1347166 C312.492595,27.7975241 312.522546,26.9161927 312.512562,26.0551218 L314.099917,31.9306645 L315.767138,31.9306645 L316.735524,24.9306645 Z M322.735524,24.9306645 L322.457746,25.9943403 L320.752765,25.9943403 L319.967325,31.9306645 L318.712535,31.9306645 L319.497976,25.9943403 L317.735524,25.9943403 L317.879202,24.9306645 L322.735524,24.9306645 Z M324.198682,24.9306645 L325.251313,28.1824735 L327.251313,24.9306645 L328.735524,24.9306645 L325.798682,29.27654 L325.409208,31.9306645 L324.019734,31.9306645 L324.409208,29.2866703 L322.735524,24.9306645 L324.198682,24.9306645 Z"
          fill="#000000"></path>
      </g>
    </g>
  </g>
</svg>
